<svg xmlns:xlink="http://www.w3.org/1999/xlink" width="136.10080423405088" xmlns="http://www.w3.org/2000/svg" height="120.48387899508589" id="screenshot-0cfa92b0-08be-11ed-bb45-377194cd868a" viewBox="6008.45 745.758 136.101 120.484" style="-webkit-print-color-adjust: exact;" fill="none" version="1.1"><g id="shape-0cfa92b0-08be-11ed-bb45-377194cd868a"><g id="fills-0cfa92b0-08be-11ed-bb45-377194cd868a"><path rx="0" ry="0" d="M6129.367652545637,759.5980244179882C6129.367652545637,759.5980244179882,6138.081121236625,767.1317324723016,6142.730534746584,793.0804797027383C6147.613951761788,820.3352191396332,6141.781601041182,828.031780567635,6135.6981627860105,839.7572581222062C6129.6147245308375,851.5683231041817,6115.3501106911235,860.9829401188003,6099.617080720854,864.4920246424308C6083.988937617051,868.0866965934667,6066.78749151622,865.7758360535156,6050.949574679481,860.8973526913946C6035.216544709209,855.9332819018682,6020.74215713656,848.401588290174,6014.134284549044,837.788747291876C6007.421525095063,827.1759062935798,6008.365506893278,813.4819179086799,6008.680167492684,797.562656411234C6008.889941225622,781.6433949137872,6008.470393759747,763.4132728763907,6019.273741006001,753.5707187247431C6029.972201385785,743.7281645730968,6054.17405338395,745.2793741801781,6087.233165941435,747.1273325648006C6117.907052376325,748.841960128615,6129.367652545637,759.5980244179882,6129.367652545637,759.5980244179882ZL6129.367652545637,759.5980244179882Z"/></g><g id="strokes-0cfa92b0-08be-11ed-bb45-377194cd868a"><g class="stroke-shape"><path rx="0" ry="0" d="M6129.367652545637,759.5980244179882C6129.367652545637,759.5980244179882,6138.081121236625,767.1317324723016,6142.730534746584,793.0804797027383C6147.613951761788,820.3352191396332,6141.781601041182,828.031780567635,6135.6981627860105,839.7572581222062C6129.6147245308375,851.5683231041817,6115.3501106911235,860.9829401188003,6099.617080720854,864.4920246424308C6083.988937617051,868.0866965934667,6066.78749151622,865.7758360535156,6050.949574679481,860.8973526913946C6035.216544709209,855.9332819018682,6020.74215713656,848.401588290174,6014.134284549044,837.788747291876C6007.421525095063,827.1759062935798,6008.365506893278,813.4819179086799,6008.680167492684,797.562656411234C6008.889941225622,781.6433949137872,6008.470393759747,763.4132728763907,6019.273741006001,753.5707187247431C6029.972201385785,743.7281645730968,6054.17405338395,745.2793741801781,6087.233165941435,747.1273325648006C6117.907052376325,748.841960128615,6129.367652545637,759.5980244179882,6129.367652545637,759.5980244179882ZL6129.367652545637,759.5980244179882Z" style="fill: none; stroke-width: 2; stroke: rgb(232, 233, 235); stroke-opacity: 1;"/></g></g></g></svg>