<svg xmlns:xlink="http://www.w3.org/1999/xlink" width="147" xmlns="http://www.w3.org/2000/svg" height="122" id="screenshot-15d93bc0-08be-11ed-bb45-377194cd868a" viewBox="6003 745 147 122" style="-webkit-print-color-adjust: exact;" fill="none" version="1.1"><g id="shape-15d93bc0-08be-11ed-bb45-377194cd868a"><g id="fills-15d93bc0-08be-11ed-bb45-377194cd868a"><path rx="0" ry="0" d="M6128.072245408988,763.4911925911156C6139.291829981232,772.6868566778608,6145.32500281725,785.2570763927702,6148.18282152905,798.1647516704966C6151.04064024085,811.1567908389256,6150.934795103376,824.5706494608762,6144.9016222673545,837.3939608478972C6138.762604293861,850.3016361256236,6126.907948896771,862.7031280591245,6111.877939375462,865.9933197965834C6096.847929854151,869.3678754247471,6078.854256483567,863.6311308568688,6061.178118525405,858.0631140703995C6043.607825704721,852.4950972839301,6026.460913433928,847.0114443881635,6015.982244824001,836.550321940857C6005.503576214072,826.0048356028456,6001.693151265008,810.5662436039975,6003.386673464593,794.7058321516283C6005.186040801651,778.8454206992596,6012.595200424832,762.6475536840744,6026.884293983825,753.8737090508489C6041.27923268029,745.0155005269198,6062.554105312568,743.6656782756545,6081.500384920418,746.027867215369C6100.446664528269,748.3056922643786,6116.958505974214,754.295528504369,6128.072245408988,763.4911925911156ZZ"/></g><g id="strokes-15d93bc0-08be-11ed-bb45-377194cd868a"><g class="stroke-shape"><path rx="0" ry="0" d="M6128.072245408988,763.4911925911156C6139.291829981232,772.6868566778608,6145.32500281725,785.2570763927702,6148.18282152905,798.1647516704966C6151.04064024085,811.1567908389256,6150.934795103376,824.5706494608762,6144.9016222673545,837.3939608478972C6138.762604293861,850.3016361256236,6126.907948896771,862.7031280591245,6111.877939375462,865.9933197965834C6096.847929854151,869.3678754247471,6078.854256483567,863.6311308568688,6061.178118525405,858.0631140703995C6043.607825704721,852.4950972839301,6026.460913433928,847.0114443881635,6015.982244824001,836.550321940857C6005.503576214072,826.0048356028456,6001.693151265008,810.5662436039975,6003.386673464593,794.7058321516283C6005.186040801651,778.8454206992596,6012.595200424832,762.6475536840744,6026.884293983825,753.8737090508489C6041.27923268029,745.0155005269198,6062.554105312568,743.6656782756545,6081.500384920418,746.027867215369C6100.446664528269,748.3056922643786,6116.958505974214,754.295528504369,6128.072245408988,763.4911925911156ZZ" style="fill: none; stroke-width: 2; stroke: rgb(232, 233, 235); stroke-opacity: 1;"/></g></g></g></svg>