<svg xmlns:xlink="http://www.w3.org/1999/xlink" width="143" xmlns="http://www.w3.org/2000/svg" height="122" id="screenshot-07f04a30-08be-11ed-bb45-377194cd868a" viewBox="6005 745 143 122" style="-webkit-print-color-adjust: exact;" fill="none" version="1.1"><g id="shape-07f04a30-08be-11ed-bb45-377194cd868a"><g id="fills-07f04a30-08be-11ed-bb45-377194cd868a"><path rx="0" ry="0" d="M6126.668919003301,763.4911925911156C6137.583208757254,772.6868566778608,6143.452213624945,785.2570763927702,6146.232268562273,798.1647516704966C6149.012323499603,811.1567908389256,6148.909358501924,824.5706494608762,6143.040353634229,837.3939608478972C6137.068383768859,850.3016361256236,6125.536304028832,862.7031280591245,6110.915274358442,865.9933197965834C6096.294244688052,869.3678754247471,6078.7901950826545,863.6311308568688,6061.595040470293,858.0631140703995C6044.5028508556115,852.4950972839301,6027.822521231643,847.0114443881635,6017.628986461441,836.550321940857C6007.435451691241,826.0048356028456,6003.728711774804,810.5662436039975,6005.376151737664,794.7058321516283C6007.126556698204,778.8454206992596,6014.33410653572,762.6475536840744,6028.234381222359,753.8737090508489C6042.237620906677,745.0155005269198,6062.933585440118,743.6656782756545,6081.364320024624,746.027867215369C6099.795054609132,748.3056922643786,6115.857594247023,754.295528504369,6126.668919003301,763.4911925911156ZZ"/></g><g id="strokes-07f04a30-08be-11ed-bb45-377194cd868a"><g class="stroke-shape"><path rx="0" ry="0" d="M6126.668919003301,763.4911925911156C6137.583208757254,772.6868566778608,6143.452213624945,785.2570763927702,6146.232268562273,798.1647516704966C6149.012323499603,811.1567908389256,6148.909358501924,824.5706494608762,6143.040353634229,837.3939608478972C6137.068383768859,850.3016361256236,6125.536304028832,862.7031280591245,6110.915274358442,865.9933197965834C6096.294244688052,869.3678754247471,6078.7901950826545,863.6311308568688,6061.595040470293,858.0631140703995C6044.5028508556115,852.4950972839301,6027.822521231643,847.0114443881635,6017.628986461441,836.550321940857C6007.435451691241,826.0048356028456,6003.728711774804,810.5662436039975,6005.376151737664,794.7058321516283C6007.126556698204,778.8454206992596,6014.33410653572,762.6475536840744,6028.234381222359,753.8737090508489C6042.237620906677,745.0155005269198,6062.933585440118,743.6656782756545,6081.364320024624,746.027867215369C6099.795054609132,748.3056922643786,6115.857594247023,754.295528504369,6126.668919003301,763.4911925911156ZZ" style="fill: none; stroke-width: 2; stroke: rgb(232, 233, 235); stroke-opacity: 1;"/></g></g></g></svg>