<svg xmlns:xlink="http://www.w3.org/1999/xlink" width="160" xmlns="http://www.w3.org/2000/svg" height="160" id="screenshot-98cda9d0-08c8-11ed-bb45-377194cd868a" viewBox="0 0 160 160" style="-webkit-print-color-adjust: exact;" fill="none" version="1.1"><g id="shape-98cda9d0-08c8-11ed-bb45-377194cd868a"><defs><clipPath id="frame-clip-98cda9d0-08c8-11ed-bb45-377194cd868a-d28c39c0-08c8-11ed-9c5c-8702cd45557c" class="frame-clip"><rect rx="0" ry="0" x="0" y="0" width="160" height="160" transform=""/></clipPath></defs><g clip-path="url(#frame-clip-98cda9d0-08c8-11ed-bb45-377194cd868a-d28c39c0-08c8-11ed-9c5c-8702cd45557c)"><clipPath id="frame-clip-98cda9d0-08c8-11ed-bb45-377194cd868a-d28c39c0-08c8-11ed-9c5c-8702cd45557c" class="frame-clip"><rect rx="0" ry="0" x="0" y="0" width="160" height="160" transform=""/></clipPath><g id="fills-98cda9d0-08c8-11ed-bb45-377194cd868a"><rect rx="0" ry="0" x="0" y="0" transform="" width="160" height="160" class="frame-background"/></g><g class="frame-children"><g id="shape-a447be40-08c8-11ed-bb45-377194cd868a" width="17" height="17" rx="0" ry="0" style="fill: rgb(0, 0, 0);"><g id="shape-a44b8ed0-08c8-11ed-bb45-377194cd868a"><g id="fills-a44b8ed0-08c8-11ed-bb45-377194cd868a"><path rx="0" ry="0" d="M66,79.65552717737864C66,77.34189103663994,67.56811991323048,76.18509171625874,70.70438223973906,76.18509171625874L78.03086518480086,76.18509171625874L78.03086518480086,65.07969074068251C78.18512173367162,64.35989741356116,78.98203577769345,64,80.42162606689817,64C82.7352492995451,64,83.89197654070267,65.5681223287288,83.89197654070267,68.70437111118235L83.89197654070267,76.18509171625874L94.92037290822009,76.10795426157756C95.6401868028588,76.26221042095176,95.99999999999818,77.05912245276613,95.99999999999818,78.49870910700929C95.99999999999818,80.81232649775848,94.43193446187252,81.96914456812829,91.29561588525394,81.96914456812829L83.89197654070267,82.04626327282085L83.96922669037667,92.92037563427948C83.8149138913941,93.64000021150014,83.0180373474468,94.00000000000045,81.57844705824027,94.00000000000045C79.26480507555789,94.00000000000045,78.10800283425306,92.43193842123674,78.10800283425306,89.29562776381908L78.03086518480086,82.04626327282085L67.07970021691835,82.04626327282085C66.35990507231509,81.89202586343526,66,81.09511383162089,66,79.65552717737864ZZ" style="fill: rgb(0, 0, 0);"/></g></g></g></g></g></g></svg>