<svg width="201" xmlns="http://www.w3.org/2000/svg" height="204" style="-webkit-print-color-adjust:exact" fill="none"><g style="fill:#000"><path color="#000" overflow="visible" d="M99.51 3C46.773 3 5.09 47.11 4.021 101.5c-1.117 56.807 42.49 99.063 95.49 98.5 52.737 0 95.49-44.1 95.489-98.5C195 47.1 152.248 3 99.51 3Z" style="fill:#fff"/><path d="M43.766 190.468C-4.645 162.126-3.258 106.053 3.338 74.733c.329-.321.598-1.028.598-1.57C12.754 36.452 47.26 7.356 85.106 1.49c1.617-.165 5.485-.7 8.595-1.188 26.893-2.096 55.395 6.854 71.364 22.657 2.988 3.024 6.144 6.386 7.013 7.47 34.08 37.096 36.555 90.193 15.207 126.32-.66.84-2.498 3.234-4.086 5.32-32.907 38.394-86.28 56.214-139.433 28.399Zm65.323 5.004c2.974-.63 6.836-1.395 8.582-1.7 1.747-.304 3.825-.841 4.62-1.193.793-.352 1.702-.695 2.02-.763 2.617-.557 6.17-1.68 8.352-2.64 11.762-5.172 20.057-9.202 21.67-10.528.634-.523 2.323-1.679 3.752-2.569 1.429-.89 5.728-4.68 9.554-8.42 8.204-8.022 9.598-9.617 12.666-14.491.322-.51 1.27-1.778 2.106-2.817 18.865-39.29 14.03-78.904-20.573-116.882-18.536-21.696-51.385-28.5-70.435-25.585-1.588.36-4.429.77-6.313.912-39.436 8.057-68.95 33.806-77.677 77.691-2.49 27.801.468 60.745 22.576 82.193a1079.89 1079.89 0 0 1 6.856 6.238c1.746 1.607 3.824 3.35 4.618 3.873.794.523 2.613 1.834 4.042 2.915 18.675 13.025 44.719 17.511 63.584 13.766ZM44.8 173.437c-7.455-6.865-10.73-10.264-12.64-13.114-3.696-4.693-7.016-11.283-9.177-17.213-1.994-5.178-2.878-8.52-3.976-13.522-2.527-11.703-3.352-28.962-.11-43.1.593-1.86 1.536-4.902 2.095-6.762.559-1.859 1.626-4.695 2.372-6.302 2.092-6.19 5.894-11.7 8.997-17.095 11.62-15.291 22.475-29.153 45.374-35.788 23.226-6.728 40.033-2.963 56.68 5.335 3.586 1.763 4.478 2.274 8.201 4.693 1.789 1.162 3.362 2.113 3.496 2.113.503 0 4.787 3.828 10.07 8.995 8.522 8.339 18.708 24.191 22.999 35.796.573 1.55 1.222 3.07 1.443 3.38 1.982 8.77 3.997 18.682 4.856 27.798-.121 16.505-2.336 28.572-10.941 40.41-1.94 2.674-11.159 12.225-14.165 14.678-45.654 33.022-89.385 27.066-115.574 9.698Zm45.737 6.294c.467-3.437 5.92-3.622 6.914-1.303.305.783.375 1.474.839 1.648.883.33 7.113-.467 12.36-1.582 2.938-.624 3.068-.727 2.767-2.195-.181-.886-.02-1.767.382-2.075 2.26-2.377 3.96-1.404 5.666.612 1.1 1.287.466 1.56 3.804.626 4.2-1.54 8.294-2.753 12.171-4.577 2.98-1.413 3.028-1.474 2.165-2.759-.485-.722-.882-1.673-.882-2.113 0-1.724 4.42-1.575 6.07.205.908.979 1.03.973 3.21-.164 3.418-2.96 13.263-7.765 13.81-10.413-.004-.23-.52-1.179-1.15-2.108-1.453-2.14-1.442-2.326.192-3.371 1.214-.776 1.533-.772 3.209.044 1.735.845 1.939.838 3-.098 2.169-1.916 10.426-15.294 9.657-15.647-2.634-1.213-3.679-2.03-3.821-2.99-.196-1.316 1.412-3.205 2.414-2.838 2.911 1.065 3.087 1.021 3.483-.861.696-3.315.987-12.47.514-16.167l-.463-3.616-2.453-.797c-2.883-1.35-3.39-2.994-2.284-4.626 1.276-1.826 3.871-1.067 3.874-2.06-.888-7.372-3.174-18.542-6.855-25.157-.525-.512-3.54.63-3.54 1.34 0 .244-.78.178-1.732-.146-2.32-.789-2.183-1.782.613-4.457l2.345-2.243-1.885-3.228a1601.46 1601.46 0 0 1-2.778-4.773c-1.032-1.786-1.188-.867-2.995.368-1.31.896-3.382-.283-3.382-1.297 0-.296-.113-2.22.714-3.179 1.378-1.599 2.221-.95 1.445-2.103-.746-1.109-7.248-8.892-8.525-10.205-.271-.28-1.44.274-2.674 1.268-1.206.97-2.653 1.763-3.216 1.763-1.521 0-1.292-2.336.42-4.279.793-.9 1.442-1.78 1.443-1.954-2.768-2.69-6.581-7.607-11.633-9.414-1.65 2.373-.94.869-2.307 2.245-1.792 2.57-7.196 1.6-4.348-2.323 1.38-2.036 1.415-2.241.503-3.002-5.611-3.367-11.786-5.654-20.983-6.556.136 3.287-1.057 8.88-4.955 3.816-.928-1.206.113-2.71-1.605-3.71-3.611-.77-7.456.203-12.58.284 0 0 .02.311.02 2.345 0 2.743-3.45 3.425-5.384 1.652-.764-.7-1.39-1.558-1.39-1.907-1.524-3.557-13.558 2.61-16.07 4.688-1.362 1.203-.219 1.453 1 3.324 1.494 1.585.935 2.843-.734 3.984-1.062.726-1.512.73-3.558.025-1.289-.444-1.854-2.205-2.221-2.502-.46-.372-1.387.2-2.982 1.839-2.71 2.783-7.192 5.214-8.13 7.082-.822 1.635.907 2.033 2.177 3.377 2.412 2.553 1.748 3.28.536 4.164-1.542.969-5.268-1.173-5.812-2.05 0-1.925-2.905 1.525-7.313 8.685l-2.405 3.908 2.498 1.337c3.106 2.413 1.416 5.813-2.99 4.936-1.15-.469-2.141-.786-2.202-.704-1.91 2.546-5.723 12.312-4.926 13.09 2.236 1.145 3.997-.735 4.06 3.159 0 1.546-1.55 2.386-3.758 2.036-1.109-.175-2.39.037-2.391.25-1.016 5.748-1.64 10.322-1.49 17.39h1.735c4.879.449 2.719 5.848-.753 5.097-1.035-.264-.849-.979-.849 2.442 0 3.425.854 9.572 2.384 17.162.538 2.666.374 1.886 1.452 1.61 4.802-1.085 6.04 4.32 2.402 5.673-1.492.78-1.934.03.06 4.824 3.657 8.798 3.464 8.485 4.605 7.477 1.42-1.254 2.295-1.13 3.022.427.476 1.021.415 1.72-.267 3.005-.815 1.539-.8 1.814.176 3.381 1.62 2.601 5.13 7.043 6.845 8.664 1.354 1.28 1.088 1.016 2.623.482 1.415-1.494 3.045-1.215 4.285-.59 1.297.679 1.176 2.445-.282 4.095-.73.825-.606 1.085 1.092 2.314 1.052.762 3.342 2.084 5.089 2.937 1.746.853 3.607 1.765 4.136 2.026.705.349 1.205.112 1.877-.89 2.328-4.186 7.694-2.4 6.968.782.28.888-.027 2.04-.544 2.352-1.225.739.25 1.053 4.079 2.049a58.195 58.195 0 0 0 12.763 1.793c3.699-.23 3.357 1.038 3.629-1.053Zm-9.215-7.928c1.626-3.021 7.221-.746 8.199-.674 2.565.2 4.26.02 5.83-.62 2.743-1.118 2.512-2.142-.653-2.9-12.591-3.376-15.348-10.47-2.676-14.728 2.724-.905 10.917-1.107 11.122 1.935.373 1.923-4.116 1.372-5.898 1.516-3.352.155-9.095 2.707-4.589 4.568 3.603 1.73 13.15 3.712 12.89 7.865 0 1.752-.454 3.064-3.053 4.349-6.898 2.964-23.751 4.433-21.172-1.311Zm-4.786-15.956c-1.245-.922-1.26-2.037-.097-6.927.86-3.614 1.944-10.457 3.126-19.73 2.975-15.524 3.142-21.71 5.328-30.256.93-5.056 1.103-7.333 8.675-13.722 5.62-5.106 7.25-7.37 10.12-10.375 5.524-6.248 10.487-12.724 16.293-18.482 1.112-1.09 3.244-3.313 4.739-4.94 3.258-3.166 4.988-1.43 4.814 2.528-1.442 5.022-.965 4.842-1.46 8.92a361.644 361.644 0 0 0-.823 7.286 494.86 494.86 0 0 1-.912 8.169c-1.827 10.948-2.106 10.877-2.737 19.642.883 8.079-.378 8.79-3.32 12.472-7.45 8.864-14.33 16.182-22.962 25.01-2.056 2.052-4.956 5.258-7.613 8.416a154.372 154.372 0 0 1-5.128 5.731c-1.472 1.55-2.992 3.578-3.378 4.507-1.094 2.634-2.673 3.227-4.665 1.751ZM90.17 134.94c10.159-10.82 14.214-15.413 18.806-23.188-.02-.261-1.224-1.32-2.675-2.354-2.293-1.634-1.75-1.258-3.565-.894-4.214.847-6.281.253-8.093-2.327-1.208-1.721-1.72-2.52-1.447-5.844 0 0-1.557-1.36-1.898-.766-.591 1.03-2.108 9.72-3.325 17.063-2.606 15.955-2.47 11.465-4.531 26.198.308-.31 3.336-3.86 6.728-7.888Zm26.354-32.71c-.135-7.051 1.552-9.402 2.232-15.27 2.512-21.76 2.69-25.263 1.149-22.575-.312.543-1.152 1.555-1.867 2.249-.715.693-2.058 2.275-2.985 3.515-2.108 2.82-10.803 12.225-16.137 17.455-3.2 3.136-5.318 4.637-5.42 6.342-.004.08 2.577 1.676 3.133 1.39 2.405-1.24 4.64-1.974 5.728-2.058 2.005-.155 6.155 1.25 7.597 2.573 1.617 1.482 1.832 4.42.505 6.902-1.203 2.251-2.322 1.784.42 3.108l2.446 1.18 1.348-1.314c.74-.723 1.574-2.297 1.851-3.497Zm-13.674-.558c1.408-1.888 1.092-4.42-.582-4.652-1.04-.144-1.333.174-1.642 1.782-.38 1.97.05 4.325.782 4.292.217-.01.866-.65 1.442-1.422Zm-65.875 16.205c-1.453-1.175-2.332-2.769-3.793-6.881-2.22-6.244-3.604-12.47-3.332-14.981 2.127-3.372 3.895-1.938 5.132-.88 1.406 1.202.797 1.42 1.828 5.438.719 2.803 1.276 4.612 2.08 6.76.396 1.056.45 1.038.863-.281.242-.775.466-2.931.498-4.793.054-3.187.157-3.426 1.77-4.123.943-.407 2.431-.66 3.308-.56 1.43.161 1.752.634 3.144 4.61.853 2.437 1.807 4.68 2.12 4.986.628.613.761.134 2.109-7.59 1.165-6.682 2.071-8.306 4.632-8.306 2.332 0 3.448 1.475 2.914 3.85-.19.84-.469 3.298-.62 5.46-.279 3.953-1.868 9.717-3.598 13.048-1.505 2.897-5.194 3.295-8.178.883-1.054-.852-2.078-1.482-2.276-1.4-.198.082-.638.955-.978 1.94-.632 1.83-2.512 3.49-4.578 4.041-.746.2-1.824-.233-3.045-1.22Zm113.299-.511c-3.914-1.323-3.948-1.421-3.105-8.982.41-3.676.807-9.063.883-11.97.076-2.907.416-5.556.756-5.888.34-.33 1.933-.66 3.542-.733 2.904-.471 6.938-3.47 9.564-3.112 2.627.359 1.367 1.83 1.367 3.555s-3.12 3.007-5.656 3.55c-2.397.514-3.004 1.708-3.004 5.904 0 3.17.094 3.418 1.299 3.414.714 0 2.078-.507 3.03-1.123.953-.616 2.26-1.121 2.904-1.123 1.167-.006 3.159 1.77 3.159 2.812 0 .947-4.204 3.295-7.217 4.03-3.697.903-4.33 1.39-4.33 3.331 0 2.135.754 2.455 3.014 1.28 1.042-.54 2.072-.937 2.29-.88.217.057 1.436-.255 2.708-.693 2.65-.912 6.006-.132 5.717 1.33-.212 1.068-5.245 3.755-8.533 4.555-1.429.348-3.386.831-4.348 1.074-1.117.282-2.58.162-4.04-.331Zm-59.16-67.407c-1.985-.86-2.172-1.242-1.93-3.938.117-1.294.38-5.115.585-8.49.346-5.703.065-6.89 1.603-8.6 1.244-.908 2.17-1.176 3.658-.45.868.422 2.53 1.986 3.695 3.476 1.164 1.49 2.59 3.262 3.17 3.939.58.677 1.668 2.005 2.418 2.952 1.862 2.35 2.606 2.193 2.24-.472-.393-2.854.428-7.05 1.722-8.81.838-1.14 1.446-1.367 3.334-1.251 4.488-.408 2.194 6.435 2.124 10.261-.102 5.566-.29 10.286-.419 10.488-.437.69-4.38 1.027-5.81.497-1.382-.513-7.429-6.153-8.596-8.018-.318-.508-.933-.998-1.368-1.089-.6-.126-.83.817-.954 3.936-.163 4.086.185 4.7-1.682 5.65-1.174.733-2.738.36-3.79-.08Z" style="fill:#030303"/></g></svg>