<svg xmlns:xlink="http://www.w3.org/1999/xlink" width="121" xmlns="http://www.w3.org/2000/svg" height="102" id="screenshot-093c1a60-08da-11ed-bb45-377194cd868a" viewBox="0 0 121 102" style="-webkit-print-color-adjust: exact;" fill="none" version="1.1"><g id="shape-093c1a60-08da-11ed-bb45-377194cd868a"><defs><clipPath id="frame-clip-093c1a60-08da-11ed-bb45-377194cd868a-387d4560-08da-11ed-a0d4-551c77b11947" class="frame-clip"><rect rx="0" ry="0" x="0" y="0" width="121" height="102" transform=""/></clipPath></defs><g clip-path="url(#frame-clip-093c1a60-08da-11ed-bb45-377194cd868a-387d4560-08da-11ed-a0d4-551c77b11947)"><clipPath id="frame-clip-093c1a60-08da-11ed-bb45-377194cd868a-387d4560-08da-11ed-a0d4-551c77b11947" class="frame-clip"><rect rx="0" ry="0" x="0" y="0" width="121" height="102" transform=""/></clipPath><g id="fills-093c1a60-08da-11ed-bb45-377194cd868a"><rect rx="0" ry="0" x="0" y="0" transform="" width="121" height="102" class="frame-background"/></g><g class="frame-children"><g id="shape-ff2bcf24-08d9-11ed-bb45-377194cd868a" height="56.438202mm" width="58.84742mm" rx="0" ry="0" style="fill: rgb(0, 0, 0);"><g id="shape-ff2bcf25-08d9-11ed-bb45-377194cd868a"><g id="fills-ff2bcf25-08d9-11ed-bb45-377194cd868a"><rect width="97" height="93" x="12" transform="" style="fill: none;" ry="0" fill="none" rx="0" y="5"/></g></g><g id="shape-ff2bcf26-08d9-11ed-bb45-377194cd868a"><g id="fills-ff2bcf26-08d9-11ed-bb45-377194cd868a"><path color="#000" overflow="visible" rx="0" ry="0" d="M104,52.50004383307987C103.99998259036329,77.07662038547642,86.09140608295093,96.99989212240689,63.99999999712418,97C41.90859391417143,96.99989212064065,24.000017408048734,77.07662038227772,24,52.50004383307987C23.999973886026055,27.92343305082977,41.90856313792028,8.000107880980977,63.99999999758802,8C86.09143685966774,8.000107879500774,104.00002611264063,27.92343304814949,104,52.50004383307987ZZ" style="fill: rgb(255, 255, 255);"/></g></g><g id="shape-ff2bcf27-08d9-11ed-bb45-377194cd868a"><g id="fills-ff2bcf27-08d9-11ed-bb45-377194cd868a"><path rx="0" ry="0" d="M43.04478227366417,93.10098959790821C39.909946028328704,91.50070398955404,36.92818818061096,89.48889145415296,34.70528050914618,87.47437580724818C33.659462852448996,86.52649923971694,32.70348607869164,85.75101142836138,32.58093613643541,85.75101142836138C28.796279912581667,82.0299604516058,23.89253773915516,75.79069951835982,21.916910556154107,70.69463675802444C20.503879193480316,66.760563155402,19.54397733260521,62.78646606310576,18.47766199873331,58.78573024293382C17.049366408373317,58.032216112183505,14.567402987087917,59.324216213476575,13.325767095255287,58.19693151957654C11.636671271911837,56.56080788452073,11.165224696895166,54.778585432584805,14.309655599636244,53.63089660669448C15.127382082664553,53.33255157419262,16.321916929075087,53.0817289858569,16.964322854144484,53.0737068484932C18.37866257918722,53.05626741944161,18.52607140652799,52.84215482925947,18.77466025737158,50.45844646933165C21.979275829264225,38.53323408807728,28.97072822896007,24.351577580398953,37.474211410879434,17.72908519374232C50.814274164422386,4.9809061555406515,72.7310883927621,2.0901027973613964,85.17928412881156,7.795717201625848C91.4350007541816,10.421484836791024,97.30518660034977,15.641411141966273,100.82380914172609,21.884334355313058C109.92477780724585,36.06058463998488,111.02816340834579,49.05043056627119,106.10959312802515,65.34561507929448C105.18240032646645,68.92335754781834,103.47237070515985,72.17315155302549,101.61362389413625,75.3489587804811C94.45906231861954,87.56776394982035,83.92194788850611,96.22635327683201,68.06982937909925,97.75304449458827C59.28897337413764,98.77037358831831,49.87617834309094,96.53228446097091,43.04478227366417,93.10098959790821ZZM84.54560061955817,83.91490114065618C85.72138227196047,83.3861376518089,94.11103792744143,74.62544046769926,93.36396301254717,73.615305138454C93.2531883316442,73.615305138454,92.85370168713598,74.4829167337748,92.26406637777472,74.35831201320025C87.37209946569965,73.96405012091464,82.07933754674559,69.3170962572326,72.50125273592857,69.46232310266032C69.43096236765086,69.59259563767637,68.43704308507768,69.92817385120361,65.00128349398256,71.99409221523774C61.31955177679265,74.20807133192056,60.350491379304,74.99785947509827,56.4267126231407,78.98372818200369C54.056832245125406,83.22974957178803,48.62276718990324,82.36048123070714,48.80986300922086,78.97936832474079C48.88574802684161,76.29831769948078,52.75501168414121,72.27425664295242,55.16370681255103,69.98755510712408C65.02483401669451,60.26232670073841,80.34532128193496,63.77872597757323,86.83872373837039,67.42221509362253C91.9186587113436,70.27234098353756,93.71547637004915,73.03322059528136,94.1446192283438,72.48274501726519C99.71824293666941,63.715551645833784,101.94202284971652,48.7742772072379,100.8957690722309,38.94044475643295C100.13342992965227,32.33338626448767,97.42424757627668,27.877612141784084,93.82014535987946,22.49562994214648C83.0684595006187,7.063304780027465,56.838846770588134,11.671368716924007,45.67807960941718,20.349577401619626C36.11351454312171,27.78710150500592,28.518034847957097,40.47132143716135,26.74302322879521,51.81915792108748C27.77881010729834,52.581391766363595,29.95592509571179,52.06993691085063,31.50153717883768,52.05315146038811C35.55309932675118,52.55523262278621,34.71836413287383,56.708040264288684,31.195816504381582,57.17707370863354C28.03088792446397,57.58846983996227,26.335686410047856,57.35033443626162,26.37755400597962,58.480409438810966C26.58558362326039,59.974881311394256,27.471344949679406,64.36477799085469,27.692022069899394,64.96635109599265C30.954641706985058,74.39074935123563,34.608461693555,79.60923690351456,41.33213592761058,85.13038574698476C42.63352036780452,86.19798399495585,45.80193791404781,88.22618959366582,46.16827937844391,88.22618959366582C60.07006571072634,93.7383135326013,72.61638862473956,93.14432657910129,84.54560061955817,83.91490114065618ZZM49.61886707643134,43.56420417947629C46.214072061493425,43.1229430258968,45.84773059709187,39.667320159306655,45.874333965342885,37.94918760913606C45.925796218674805,35.538666127040415,46.28472362962748,34.850331862371604,47.75445069512534,34.34528599703481C51.70090773241827,33.185345972235154,53.263528526389564,35.60354080311299,53.00403665577505,38.16914240804999C52.550907153980006,40.66864857688233,52.21378578257463,43.90043637159306,49.61886707643134,43.56420417947629ZZM74.67008142931627,37.02524665797864C73.33467956743334,33.03715442386829,78.4477597205132,32.47141934543197,79.98464938782126,33.901016541943136C81.54596181941452,35.558416280441634,82.0069414954487,38.02470033693044,80.96897401299066,39.73123566678214C79.08013486739219,44.29155916664968,74.96707968795636,41.01931189653851,74.67008142931627,37.02524665797864ZZ" style="fill: rgb(3, 3, 3);"/></g></g></g></g></g></g></svg>