<svg xmlns:xlink="http://www.w3.org/1999/xlink" width="121" xmlns="http://www.w3.org/2000/svg" height="102" id="screenshot-093c1a60-08da-11ed-bb45-377194cd868a" viewBox="0 0 121 102" style="-webkit-print-color-adjust: exact;" fill="none" version="1.1"><g id="shape-093c1a60-08da-11ed-bb45-377194cd868a"><defs><clipPath id="frame-clip-093c1a60-08da-11ed-bb45-377194cd868a-2a61d220-08da-11ed-97e0-4b4481487404" class="frame-clip"><rect rx="0" ry="0" x="0" y="0" width="121" height="102" transform=""/></clipPath></defs><g clip-path="url(#frame-clip-093c1a60-08da-11ed-bb45-377194cd868a-2a61d220-08da-11ed-97e0-4b4481487404)"><clipPath id="frame-clip-093c1a60-08da-11ed-bb45-377194cd868a-2a61d220-08da-11ed-97e0-4b4481487404" class="frame-clip"><rect rx="0" ry="0" x="0" y="0" width="121" height="102" transform=""/></clipPath><g id="fills-093c1a60-08da-11ed-bb45-377194cd868a"><rect rx="0" ry="0" x="0" y="0" transform="" width="121" height="102" class="frame-background"/></g><g class="frame-children"><g id="shape-ff2bcf30-08d9-11ed-bb45-377194cd868a" width="73.376518mm" height="61.309685mm" rx="0" ry="0" style="fill: rgb(0, 0, 0);"><g id="shape-ff2bcf31-08d9-11ed-bb45-377194cd868a"><g id="fills-ff2bcf31-08d9-11ed-bb45-377194cd868a"><rect width="121" height="101" x="0" transform="" style="fill: none;" ry="0" fill="none" rx="0" y="1"/></g></g><g id="shape-ff2bcf32-08d9-11ed-bb45-377194cd868a"><g id="fills-ff2bcf32-08d9-11ed-bb45-377194cd868a"><path color="#000" overflow="visible" rx="0" ry="0" d="M15.367762269705054,48.10405983653709C23.972669241496988,23.513830464619787,41.81647850835725,6.785219754717673,66.38020246627093,9.238341192504322C90.94305495294793,11.691505864718692,105.11012708045018,36.03071614837745,96.43768108796576,59.45590739227191C87.76523509548133,82.8810554017391,80.33202119879206,101.11141396397579,51.29677833544156,98.80252257759003C22.262842678941524,96.49367442563107,6.762855297909482,72.69424597402667,15.367762269705054,48.10405983653709ZZ" style="fill: rgb(255, 255, 255);"/></g></g><g id="shape-ff2bcf33-08d9-11ed-bb45-377194cd868a"><g id="fills-ff2bcf33-08d9-11ed-bb45-377194cd868a"><path rx="0" ry="0" d="M43.405610995198,1.0004798101099368C36.32480821030367,1.037092704078077,30.569065383375346,3.1589406698508355,28.178983575768143,6.8532688447639885C25.00704222101922,11.757217297530133,24.421083866216577,18.386330444638133,24.337313200454446,21.661440983620196C20.100349996058867,27.25493227278048,16.789227170591403,33.87850989901517,13.847218841148788,41.22702282581304C13.381680818381938,42.319307495854446,13.313617152445659,42.37052196063087,12.154353303816606,42.49827480851127C8.389909011002601,42.87477740148097,6.204018201198778,41.60683801395089,3.2353952331541223,42.98574933962573C-0.4544408104629838,44.69979940544272,-1.0683227205208823,48.81382467085223,7.509880714918836,48.82188822488024C9.235905474113679,48.724079493852514,12.053130416012209,48.91298459201471,12.139518915084409,49.05289815110655C12.219799136440997,49.18134838744345,12.139518915084409,50.002348947894006,11.965869305842716,50.87765863439745C11.28741417425772,54.59595953750386,11.003379260646398,58.19003812179153,11.07929642650015,61.63191167544028C6.4361327542555955,67.65019970818548,-2.452283927845201,80.05743773832046,0.6385045944407466,88.34293564324571C4.097098696100147,97.61406137114136,15.47769268470438,93.12000298370185,15.47769268470438,93.12000298370185C11.232439674848138,98.50022416549882,34.20698106643431,103.4801007864694,36.75020612239314,99.10485995731096C42.003324954734126,101.09921659587371,47.84763780849062,102.11840623831495,54.08288043581888,101.98904067962849C61.60435182707806,101.83286925214452,69.05732324685232,100.2725933409929,75.97014839466465,96.69939282362293C80.09759890579153,105.19711475322629,96.25050300969451,93.35397681086715,104.23925764592786,96.48838922874393C121.64174084749175,103.31630167274216,125.5985958882302,69.6940709271621,115.61374335682376,59.93847815587014C119.32234053912362,57.36066889986205,119.42356342692437,36.22705269993821,108.80345001345995,30.96346973749587C108.91383531782958,12.888555721136981,94.51618844502991,13.213190047651551,88.37082476118303,7.227984379814188C82.31184957640289,1.3267268474310185,73.43608575527469,1.4932719282060134,62.23481334807002,5.337974489058524C55.81414086163022,2.3252563568471487,49.170952544247484,0.9707100403720688,43.405610995198,1.0004798101099368ZZM58.46426077754586,12.97886752625709C65.28589806522905,12.928481210272821,72.0259462148988,14.588134976480433,77.91694376259875,17.19484226665554C93.51050415030295,24.095239523354394,99.01929803544954,51.240954433470506,89.72686241325209,69.45852797596854C84.40611622052711,80.46100772075852,74.61192921484144,94.62849780195529,53.15180439028336,95.2827789345165C35.53945821875823,95.81976804604483,11.350242173579318,76.29319637063873,20.861266876756417,48.2600546495878L21.728206006315304,48.342041380008595C27.515362832911705,48.79691300078093,28.104375326571244,42.56688039792243,22.719055912315525,41.93718220845358C23.63311604136652,35.861490388380844,29.465212339699065,27.7074502075111,33.38498140861884,23.27759514485024C40.79039552334871,15.93570740838959,49.69451920528081,13.0437246527149,58.46426077754586,12.97886752625709ZZM37.569151641357166,27.12399759006712C35.98318096398543,27.12399759006712,34.21876131630779,27.694461347507968,32.32694044778327,29.132955799438605C29.891046557338996,30.868842841300193,27.715190775204974,35.479103580309584,28.98789406706055,36.62953301291327C29.742702670047947,37.34439976763588,30.42246671828252,39.30920457035381,33.045971995603395,37.13657800759029C35.90028290932423,33.61498423600369,38.420383771081106,32.42140389265114,41.93395237214827,35.61326368463506C44.695330203538106,37.823723571165374,46.04133282793737,35.53127695421381,45.13381728215063,32.80453167595806C44.07490371021595,30.33076406030841,41.3239972120482,27.125000085972715,37.569151641357166,27.12399759006712ZZM68.85051441574797,28.164196059760798C67.34569657083193,28.133685314786817,65.81644561507346,28.453002054321587,64.4045608524957,29.109331765474053C61.34954938537703,30.668474420383063,57.978652699443046,33.885614543915835,60.0074735109356,37.60984324890296C61.64885499326738,40.080298269384,63.663277721583654,38.62227694067087,64.89147784725174,36.88089796471468C68.05600200763365,32.86816837261631,71.95831885452026,33.06256540487402,73.54821628184982,38.70448160498472C74.2781554684334,42.275328436313885,78.14469526014909,38.98688034310089,77.53168596119212,35.499022738098574C76.38245714022923,30.610852699162024,72.69698415212406,28.24300095534818,68.85051441574797,28.164196059760798ZZM77.45925923974755,49.19621147892303C75.76464848021169,49.22977329839341,71.39941144386648,49.90349413418062,68.19911022831548,50.05465308213388C53.25782663915015,51.14641471083269,40.282535862150326,51.08308312162353,24.079456619898338,50.08821490160426C21.88222186576968,49.792914477042814,21.890075365683515,51.84811825843781,22.34688727743378,54.782641709961354C23.966017176671812,70.12170081135082,36.544269902387896,86.8493475032501,53.46463547025451,83.09408501194685C66.55729244043505,80.02884481160254,73.59053792028135,66.32367969030702,77.20009374253823,55.378908840295026C78.95316944589104,54.22621289520703,81.03478322903902,49.0545980354691,77.45925923974755,49.19621147892303ZZM67.92249250907116,55.78491968233084C69.06910349672762,55.63620159397624,69.96789293149777,55.62295121330226,70.09791198565472,55.75222959843177C69.61535804640334,64.43859510552647,61.93201729577595,73.02357776575263,54.98995967605515,75.69361664513735C47.48463159017592,78.58045616094569,34.78901267128276,76.28800954399412,28.631432432004658,56.430483459186235C28.569040738237163,55.83190622959046,28.65324770955158,55.67294524828003,29.07908192718969,55.612621146789934C41.46623282162727,56.3107505785556,55.971210859937855,57.391877033292076,67.92249250907116,55.78491968233084ZZ" style="fill: rgb(3, 3, 3);"/></g></g></g></g></g></g></svg>