<svg xmlns:xlink="http://www.w3.org/1999/xlink" width="121" xmlns="http://www.w3.org/2000/svg" height="102" id="screenshot-093c1a60-08da-11ed-bb45-377194cd868a" viewBox="0 0 121 102" style="-webkit-print-color-adjust: exact;" fill="none" version="1.1"><g id="shape-093c1a60-08da-11ed-bb45-377194cd868a"><defs><clipPath id="frame-clip-093c1a60-08da-11ed-bb45-377194cd868a-31b60aa0-08da-11ed-8c4a-8d0aaa68ec3e" class="frame-clip"><rect rx="0" ry="0" x="0" y="0" width="121" height="102" transform=""/></clipPath></defs><g clip-path="url(#frame-clip-093c1a60-08da-11ed-bb45-377194cd868a-31b60aa0-08da-11ed-8c4a-8d0aaa68ec3e)"><clipPath id="frame-clip-093c1a60-08da-11ed-bb45-377194cd868a-31b60aa0-08da-11ed-8c4a-8d0aaa68ec3e" class="frame-clip"><rect rx="0" ry="0" x="0" y="0" width="121" height="102" transform=""/></clipPath><g id="fills-093c1a60-08da-11ed-bb45-377194cd868a"><rect rx="0" ry="0" x="0" y="0" transform="" width="121" height="102" class="frame-background"/></g><g class="frame-children"><g id="shape-ff2bcf2c-08d9-11ed-bb45-377194cd868a" width="58.838219mm" height="62.328171mm" rx="0" ry="0" style="fill: rgb(0, 0, 0);"><g id="shape-ff2bcf2d-08d9-11ed-bb45-377194cd868a"><g id="fills-ff2bcf2d-08d9-11ed-bb45-377194cd868a"><rect width="97" height="101.99999999999977" x="12" transform="matrix(-1,0,0,1,121,0)" style="fill: none;" ry="0" fill="none" rx="0" y="0"/></g></g><g id="shape-ff2bcf2e-08d9-11ed-bb45-377194cd868a"><g id="fills-ff2bcf2e-08d9-11ed-bb45-377194cd868a"><path rx="0" ry="0" d="M106.13374603815646,43.66487762873476C96.33080155756215,16.491671342777863,89.6449167812334,3.975311184365637,71.8913871616187,5.065436708897323C54.137857542003985,6.155562233429464,34.63510212494293,10.75826981839964,24.741966348896312,40.798176866544964C14.848830572851512,70.8380839146912,49.43982127306481,104.87538566443618,69.45217773169679,101.80664616280683C89.46453419032514,98.73830832865224,111.6904196176165,90.17837278948718,106.13374603815646,43.66487762873476ZZ" style="fill: rgb(255, 255, 255);"/></g></g><g id="shape-ff2bcf2f-08d9-11ed-bb45-377194cd868a"><g id="fills-ff2bcf2f-08d9-11ed-bb45-377194cd868a"><path rx="0" ry="0" d="M76.47215376295753,100.86822334393219C84.12189282621694,99.15053248034337,91.60569516723626,95.26272858274297,97.2545246202153,90.0714231325037C106.52531621296657,81.5510710954959,109.66330961958192,72.0697202052902,108.8864641764776,54.92467228563055C108.33184395206081,42.68458162911884,107.00326693153693,37.024127132437116,102.46319648623466,27.55870660034543C95.84506548362879,13.759432143474442,90.22295601542646,7.542211630726342,79.17335967078179,1.8029018613829066C63.71881736838259,-4.359358915874054,42.85560451515812,6.454566430526029,33.59749087313867,16.457238289996894C28.234075792015574,22.340717800266248,21.57951574110666,34.60350921709005,20.019766720219195,41.47825526097222C19.108799791998536,45.493103764529224,18.732352919480036,46.025177725519825,16.473832164740088,46.483175521283556C12.879191811192868,47.21318418183455,12,47.92766074322526,12,50.11808498383198C12,52.40568440893185,13.323923089237724,53.64586278806837,16.186451908119125,54.03894437451845C18.09364097121579,54.30099876548593,18.331753748412666,54.79483986700416,18.86511032128874,59.59545328450895C20.059926937572527,70.34924152903022,24.06836597417714,77.5577285753925,34.62761449020036,87.9423307706329C48.032581504350674,99.55715487119005,60.15635333283353,104.39799244293044,76.47215376295753,100.86822334393219ZZM41.677036538263565,85.31501645876415C31.213514574290457,76.25422702275546,26.692140094306524,68.64310017507569,25.67790403575964,58.38315303207219L25.17507885688974,53.29698794538308L28.42584985688518,52.533923791746474C32.64949309515396,51.542258999181286,32.88323278175085,49.05393706185123,28.921132457469866,47.26177177408226C26.488410240457597,46.16098402843954,26.220207390320866,45.722899180317654,26.63139826706538,43.52172194798459C27.536587901278835,38.675707009856524,34.61722338501022,25.923853598947517,39.185578498876566,20.912561195391845C47.06905724872922,12.264368034522704,61.04894525650707,6.534616480047134,74.26326156851792,6.534616480047134C81.94417394734228,6.534616480047134,84.46403701558665,7.701515211861079,89.81465378568464,13.735536606304777C94.09775500808246,18.56562118631973,101.19596309441113,32.80337875026453,102.79956338159718,39.78127386293272C104.68657203578005,47.992178693586084,105.31360903574205,60.21594073303095,104.18795946712271,66.84894359254167C102.24157306900815,78.31880143426542,96.69228157731777,86.12268561511974,86.93844401364186,91.10649815092938C69.61522794150551,98.50296342302909,55.717225052218055,97.29783183174277,41.677036538263565,85.31501645876415ZZM39.0499725701593,74.68986585600942C40.171449648667476,71.74036005129392,40.42962247448668,71.68858638742495,43.208581130786115,73.85869942143745C44.37952628920539,74.77310197715224,46.10448987058044,75.52143054953376,47.04189594288982,75.52143054953376C49.33090797154,75.52143054953376,51.353121353460665,72.46399656859967,51.353121353460665,69.00392278634627L51.353121353460665,66.18106332863317L54.22780656181203,68.35754850589092C57.8594376450219,71.10712831628234,60.14078673509903,71.11589001324455,61.94193838116007,68.38940922211805L63.359020336220055,66.24239520737046L65.7715220242153,68.80519156888022C68.44857563349615,71.64836223318798,72.143315629688,72.22105860736883,74.25932979898971,70.12103914905629C75.97141482914776,68.42087167939235,77.0948577924155,68.55548320545131,77.72815352754878,70.53642323686563C78.53488844310596,73.05979196204407,80.65924759262998,72.60697153266892,80.65555654368472,69.91274971672146C80.6491373281242,67.15042561984046,77.78363962205185,62.22475889114321,76.17875549174823,62.22475889114321C75.54329327136475,62.22475889114321,74.00408574026551,63.02087853786634,72.75831660047334,63.993426900695795L70.49321614978544,65.76209491024792L67.79104735962392,63.16226046612428C64.51905282818188,60.014421702895106,61.31590438362946,59.76630637527796,59.1544742642418,62.49398194326295C57.64242803898378,64.40204058630752,57.59368212082154,64.40721795269474,55.116506836053304,62.9137468795534C53.737418613090995,62.08258044498143,51.761343343008775,61.40076111772305,50.72516159126644,61.39837156400654C48.19029360664899,61.394388974477806,45.492056586021135,64.22162928067246,45.492056586021135,66.88518515725036C45.492056586021135,68.63513499601913,45.21017278271938,68.93024488007177,44.02675027406076,68.42047342043952C40.58055428035004,66.93656056216605,36.851270880426455,66.9759881984969,35.721569181985615,68.51047994378087C33.62489289956284,71.35643842075842,34.72526680691044,77.18575471344275,37.35919131164337,77.18575471344275C37.76761390167849,77.18575471344275,38.52849154607247,76.06346098434688,39.0499725701593,74.68986585600942ZZM35.025766335333174,42.670244306816585C37.982818103339014,41.31417257240446,43.130427181340565,41.12539782875956,47.01080286751858,42.230566422884294C55.37411798051107,44.611358442947676,52.829260091679316,37.165110801742685,44.032768288650914,33.516660534797666C40.3487804785218,31.98893919171269,37.42988292300106,31.960264547107727,36.8553631303439,33.44616870014488C36.24533705162139,35.024468930240346,37.86867642665311,36.43669517700255,40.426332626511794,36.554181568089916C41.6006478730942,36.61033608043999,40.70155649366461,36.961202217890786,38.42843202352378,37.33914996413296C34.026093872087586,38.07035340154198,30.001927757359226,40.464686226002414,30.001927757359226,42.352831921405595C30.001927757359226,43.92197219558693,32.01776204381895,44.049016801541256,35.025766335333174,42.670244306816585ZZM88.44748123160753,41.74628353623393C90.34315582679483,39.86490824302882,86.42534808987875,36.739371981159366,80.35056356437235,35.28771809806585C77.38416381370189,34.57841890306099,77.98841259842447,33.86195104690705,82.11472448076347,33.19606207776178C86.84075157683219,32.43379444203083,86.31943103313279,30.290763016811525,81.33037657947352,29.971359336635487C75.40744662206635,29.592615072488115,67.26190339695677,34.56487809866485,67.26190339695677,38.55981365457956C67.26190339695677,41.321739492508186,68.43040122943785,41.73035317811991,73.13163410541165,40.61044900274101C77.00639297797352,39.687284750063554,82.16820457040194,40.15723031441121,86.56544746948566,41.832307470046544C87.27918399961163,42.10431833483426,88.12611925261263,42.065687216408605,88.44748123160753,41.74628353623393ZZ" style="fill: rgb(3, 3, 3);"/></g></g></g></g></g></g></svg>