<svg xmlns:xlink="http://www.w3.org/1999/xlink" width="121" xmlns="http://www.w3.org/2000/svg" height="102" id="screenshot-093c1a60-08da-11ed-bb45-377194cd868a" viewBox="0 0 121 102" style="-webkit-print-color-adjust: exact;" fill="none" version="1.1"><g id="shape-093c1a60-08da-11ed-bb45-377194cd868a"><defs><clipPath id="frame-clip-093c1a60-08da-11ed-bb45-377194cd868a-3d2cc3b0-08da-11ed-8caf-35fcd5867cd0" class="frame-clip"><rect rx="0" ry="0" x="0" y="0" width="121" height="102" transform=""/></clipPath></defs><g clip-path="url(#frame-clip-093c1a60-08da-11ed-bb45-377194cd868a-3d2cc3b0-08da-11ed-8caf-35fcd5867cd0)"><clipPath id="frame-clip-093c1a60-08da-11ed-bb45-377194cd868a-3d2cc3b0-08da-11ed-8caf-35fcd5867cd0" class="frame-clip"><rect rx="0" ry="0" x="0" y="0" width="121" height="102" transform=""/></clipPath><g id="fills-093c1a60-08da-11ed-bb45-377194cd868a"><rect rx="0" ry="0" x="0" y="0" transform="" width="121" height="102" class="frame-background"/></g><g class="frame-children"><g id="shape-ff2bcf20-08d9-11ed-bb45-377194cd868a" height="58.154022mm" width="57.35601mm" rx="0" ry="0" style="fill: rgb(0, 0, 0);"><g id="shape-ff2bcf21-08d9-11ed-bb45-377194cd868a"><g id="fills-ff2bcf21-08d9-11ed-bb45-377194cd868a"><rect width="94" height="96" x="14" transform="" style="fill: none;" ry="0" fill="none" rx="0" y="3"/></g></g><g id="shape-ff2bcf22-08d9-11ed-bb45-377194cd868a"><g id="fills-ff2bcf22-08d9-11ed-bb45-377194cd868a"><path color="#000" overflow="visible" rx="0" ry="0" d="M104,50.5000653827592C103.99998141947071,62.03699589413554,99.83835138530594,73.10139478798101,92.43062248468777,81.25921666127033C85.0228935840696,89.41703853456056,74.9758694892189,94.00003589384778,64.49978439853294,94C42.684633340857545,93.9998124843105,25.00003869070497,74.52429577671228,25,50.5000653827592C24.999973113208398,26.475783919483547,42.68458697164715,7.000187514842764,64.49978440132145,7C74.97589006317139,6.999964106296829,85.02293215281861,11.582979416091803,92.43066446663943,19.74082957180417C99.83839678046752,27.898679727515628,104.00001291187255,38.96311221558426,104,50.5000653827592ZZ" style="fill: rgb(255, 255, 255);"/></g></g><g id="shape-ff2bcf23-08d9-11ed-bb45-377194cd868a"><g id="fills-ff2bcf23-08d9-11ed-bb45-377194cd868a"><path rx="0" ry="0" d="M52.18755161682748,98.01850046849813C36.418450511526316,94.80622328864183,25.304716217711757,81.61197799788397,22.466659606199755,69.04598434494483C21.85134985345394,66.49030525124908,21.15191741428316,63.8895076966337,21.10985607107432,61.24704217327053C21.10985607107432,60.06173259685602,20.751684220631432,59.49454156732918,19.87793569929454,59.29816925339446C15.156224707276124,58.96465079494101,12.35849495059847,56.300565099113555,15.049553671915419,53.86386246964321C17.568898043635272,51.78478806670773,18.24187953501132,53.33301080070214,20.282938735985226,53.13336270306081C21.576433445250586,52.77359429783883,21.387807833942134,49.50239668837821,21.47193052036164,48.08996610830354C22.32790053581448,39.14480537911413,25.82072651071212,30.00833888145644,31.85978142721251,22.372006612980385C47.161004292052894,3.0226947687760912,64.93907656330157,1.4330224516133967,77.10217632692002,3.8858419369207695C93.20560006742744,7.133191840996005,105.03741255049863,25.384854080775767,106.95532307650683,40.986276270527924C110.33627455090573,62.144606908892,105.78974688525341,79.49215284563661,89.21844490428157,90.8632716337379C78.44250222243681,98.25758900196706,64.50155186948541,100.52683356835314,52.18755161682748,98.01850046849813ZZM100.39939062281519,49.826830306685224C97.15242837575533,10.32301898318292,67.11369136952817,-2.991032637006356,41.80056795416567,21.944713386285002C34.57555660794969,29.06251093255696,31.52806052457163,38.316687258073216,29.7120511908779,46.72536197034606C28.95538063517961,50.237700937731006,29.235500508524638,53.18162591633882,30.346873937902274,53.3842003807581C30.61788774724846,53.4335991990547,31.061049528299918,53.67552674506942,31.332496959745185,53.92182200269326C34.58466267194308,55.48991782450821,33.76164793571115,58.19763695930851,31.21108277316125,58.73870907341461C30.435766467368012,58.88961350950103,29.695139929179277,59.03457785779938,28.92242535596415,59.185831710814455C28.909416693115418,62.54372839570988,29.928862238361035,65.65917340919805,30.338635118101593,68.93155030079242C36.27535522019207,86.83838170905256,52.38745140260653,91.4827441712232,59.4828097424288,91.74528731603232C86.63188910784993,92.74977363183916,101.34381954564014,73.37971515749314,100.39939062281519,49.826830306685224ZZM49.37551233101658,77.93231199876254C47.26290548437464,76.16011301346543,48.8599356601062,74.55842948937834,50.87237580281544,74.51405353943164C60.97446974908598,74.29147495584402,66.40211751169772,72.2246301454129,67.82483160526135,74.96266119877828C69.75141457316568,78.66853346755306,67.04171010176287,79.21139634341853,63.89578180283024,79.53783910906532C58.747386669374464,80.07192288459737,53.49405498893975,81.38813277792906,49.37551233101658,77.93231199876254ZZM70.17419611574951,40.719496445458844C69.355951222562,37.07800424579909,70.46212118680705,33.12627349056174,74.48656785012281,34.68607066031973C77.4256584097584,35.82508249367993,77.00808033231442,37.418423688593975,77.02325710563855,40.56771846705078C77.02325710563855,41.84173626624079,76.3533109689215,42.63403915208892,75.70721404743381,43.097759093602235C74.17956340688761,44.01921521172517,70.63166742593239,42.75808216178075,70.17419611574951,40.719496445458844ZZM43.52551664791099,36.78047573100321C43.57191421207426,34.15172482209118,44.65423496109179,33.34854633433679,46.68705534226319,33.33068239385648C48.59585980427619,33.4193469395168,50.613503412123464,35.07383609695489,50.45696583584322,37.596407936655396C50.39365700997769,39.4764457215756,50.08621894465614,40.637645529908696,48.748928403798345,41.11608465954396C45.155935724962546,42.11624694085822,43.55847192713372,40.206989165274535,43.52551664791099,36.78047573100321ZZ" style="fill: rgb(3, 3, 3);"/></g></g></g></g></g></g></svg>