<svg xmlns:xlink="http://www.w3.org/1999/xlink" width="121" xmlns="http://www.w3.org/2000/svg" height="102" id="screenshot-093c1a60-08da-11ed-bb45-377194cd868a" viewBox="0 0 121 102" style="-webkit-print-color-adjust: exact;" fill="none" version="1.1"><g id="shape-093c1a60-08da-11ed-bb45-377194cd868a"><defs><clipPath id="frame-clip-093c1a60-08da-11ed-bb45-377194cd868a-352bf780-08da-11ed-bff5-7f91100b4d3d" class="frame-clip"><rect rx="0" ry="0" x="0" y="0" width="121" height="102" transform=""/></clipPath></defs><g clip-path="url(#frame-clip-093c1a60-08da-11ed-bb45-377194cd868a-352bf780-08da-11ed-bff5-7f91100b4d3d)"><clipPath id="frame-clip-093c1a60-08da-11ed-bb45-377194cd868a-352bf780-08da-11ed-bff5-7f91100b4d3d" class="frame-clip"><rect rx="0" ry="0" x="0" y="0" width="121" height="102" transform=""/></clipPath><g id="fills-093c1a60-08da-11ed-bb45-377194cd868a"><rect rx="0" ry="0" x="0" y="0" transform="" width="121" height="102" class="frame-background"/></g><g class="frame-children"><g id="shape-ff2bcf28-08d9-11ed-bb45-377194cd868a" height="57.315968mm" width="61.130043mm" rx="0" ry="0" style="fill: rgb(0, 0, 0);"><g id="shape-ff2bcf29-08d9-11ed-bb45-377194cd868a"><g id="fills-ff2bcf29-08d9-11ed-bb45-377194cd868a"><rect width="101" height="94" x="10" transform="matrix(-1,0,0,1,121,0)" style="fill: none;" ry="0" fill="none" rx="0" y="4"/></g></g><g id="shape-ff2bcf2a-08d9-11ed-bb45-377194cd868a"><g id="fills-ff2bcf2a-08d9-11ed-bb45-377194cd868a"><path color="#000" overflow="visible" rx="0" ry="0" d="M107.00000000000182,54.89488612972673C96.68930437252129,2.66216472767519,74.1589009504587,9.668368237247705,58.8837145971429,8.170504023403282C43.60896953189331,6.672596379356946,17.584888503033653,14.495157383425067,19.060114502717624,53.63858069570779C20.848655028212306,101.10965825358471,103.45380911353095,112.97413780530314,107.00000000000182,54.89488612972673ZZ" style="fill: rgb(255, 255, 255);"/></g></g><g id="shape-ff2bcf2b-08d9-11ed-bb45-377194cd868a"><g id="fills-ff2bcf2b-08d9-11ed-bb45-377194cd868a"><path rx="0" ry="0" d="M95.14197428380612,86.81295795060032C106.14719207047165,77.85014953547397,109.294225351352,71.60418916674507,110.66993221827033,58.712406508098866C112.07449089745933,47.714706634030335,108.78319855522204,38.66190216632185,104.82831453075232,30.118872831562385C101.320633596486,21.470573282933856,93.45851475266682,15.615232232114977,86.67659027432092,11.178218555791773C70.18777956150552,1.4447158832335845,37.37321459007035,0.011027562443814531,26.362751019358257,17.00092844386154C24.11886689228777,20.46456147817662,22.26841656891338,20.708340563714955,18.26326044731104,29.511247602869844C18.26326044731104,30.478032584322136,17.988293933394743,30.56707400182404,16.68078225911995,30.024884668643608C14.826834746376335,29.687421167712273,12.041760564896322,29.639385666165253,11.058176055661534,30.550064140390532C8.158131773767309,33.396829342734236,12.030831848125672,35.02022968950678,13.032776601530713,35.552742494371614C13.807841194809953,35.963148793948676,15.556435877895638,36.861590582143435,15.630751151926233,36.98196138728508C15.705940723299136,37.10237558493009,15.591407771556987,37.96445445506106,15.377204922879173,38.8978272086988C14.817654624292118,42.00312494782338,14.679515644327694,52.857369204804854,16.32057175440241,60.400244722800835C20.2111949242626,78.28607062720084,31.892681704612187,95.57624763391641,52.65593212022941,97.25076434999664C68.67437086329483,99.52192799134491,82.52586364535091,96.7934941464714,95.14197428380612,86.81295795060032ZZM31.106688394565936,77.84025604464068C24.900488715627944,70.40126218039723,19.812515336523575,56.68805942754534,21.883288589968288,44.045827057423594C22.372020803890337,42.89089218011941,21.833453641500455,41.16343660957864,22.562180475675632,40.122927764414726C22.872993180591948,39.701109236376396,22.984903240310814,39.713172352392576,24.914040324423695,40.37538535068461C27.898891448447102,41.343211752225216,30.651616628292686,40.88168908334137,32.046995185395645,37.80064775376013C32.55714768418511,36.62783516494983,32.45704063858102,36.26724345956973,31.4043866393622,35.49398904442205C30.808115852427363,35.055334224964554,27.356389948021388,33.734379628673196,25.739814163511255,33.32579581424943C24.150778745255593,32.92432837042543,24.09613516141144,32.6692672339359,25.099828509501094,30.346509905741186C26.344390775188003,27.466766400620145,27.936923382805617,24.239752688740737,28.570788955425087,23.312888810651202C41.02078309898752,7.660214714396716,69.8690981805139,8.61016340443075,84.18921433763717,18.392656213616647C96.85253703253511,27.64727921582835,103.83467560209101,38.73731833767579,103.22397890902539,59.99986209156805C102.41044523272103,88.31676855729802,54.029453243794705,105.31656292954858,31.106688394565936,77.84025604464068ZZM81.21398048436822,76.1829227600083C88.42780784943534,74.48406284937755,91.24741677590828,71.96330552700101,93.97609877886134,66.41201574929846C94.31576329605014,65.7567889440952,94.78220092776246,63.445400451858404,94.91596842101899,61.75140050163691C94.6305103390041,57.79083651545534,90.3420818787381,59.98732165801175,89.35631162615027,62.14037090440797C86.86631279743779,65.66080472600834,86.2578018477252,70.95746729225812,81.834731596864,71.5678696411851C79.11610401333746,71.9302404392156,75.24690112833923,72.64391694684309,74.94351995082434,72.83883607326516C71.80785253538488,76.81879650858127,78.5727282155658,76.62565647480915,81.21398048436822,76.1829227600083ZZM81.51998455390822,56.185834590231934C82.75624099484776,53.47302204667449,84.81346263949308,51.36262763137165,87.11111605306905,49.375120786421576C93.47294065880305,45.959783608675934,99.47280616513854,37.0182809128446,90.60349678386046,33.816304675574884C87.28466407536689,32.3137524514832,86.26173618576286,34.273227739071444,84.101347454809,34.2934920382786C83.87840163271903,34.28481353754751,82.97044384352739,33.46256898577212,82.08259489319062,32.46627710183384C79.39850205465518,29.45496752562758,76.73976383902664,28.766762417645623,73.2207170393176,30.288363950842268C70.50952098319613,31.667377717025374,67.98236451746743,33.65926720484413,68.56071220889498,39.42769307084018C69.83762347621814,44.95641874664125,72.07145318386029,49.31649751398345,75.34219953856882,53.71441454451224C76.324035453119,55.14897071537507,80.00439011234266,57.73130200043943,81.51998455390822,56.185834590231934ZZM79.70188323217008,51.245815011529885C78.17361147915472,48.72917997700097,75.09827058027986,42.62984287812469,74.43205600602596,41.65008353807934C72.39363175421931,38.651835105473765,72.61089464358884,34.93257683212232,75.17346015165276,34.53254134091867C76.21212539340559,33.980718871927365,79.9799097867799,35.902572858844906,79.9799097867799,37.63345643717412C80.03673911397891,39.905270966077296,81.52829037865376,39.716990892713966,82.67667993676878,39.61809937688258C85.15837294073572,39.57948004862874,86.35310025795297,37.22639136037833,88.01207946352952,38.49180355199087C90.20132000675585,40.40020586277569,85.96666083299169,44.50708937128502,84.83881726240179,45.51774417393381C81.7302530645502,48.262536992685455,82.06904328439668,49.27063163761886,79.70188323217008,51.245815011529885ZZM48.56902919718959,43.367992757815045C50.71674061669182,38.72790216438261,55.23248638575387,33.36706208522628,55.263086792709146,28.626821593355544C55.263086792709146,26.219665845550026,53.99273275544874,24.134265512352613,52.159331230233875,23.532411486646197C50.718052062702554,23.233306958946287,48.75350593625444,23.202541673854284,47.80139613131723,24.091176756222467C46.939776101226016,24.910774365274847,46.225038024515015,24.796869043177594,44.88911168663799,23.626746789594108C41.93180092887269,21.333496363884933,39.75130335906579,20.90885732310926,37.400754956328456,22.50544110262308C31.6723587745455,27.213354179270027,32.42993742098952,30.727235732817462,35.79554503725922,35.98493183078426C38.06390948988883,39.29378380455864,46.06154442164734,48.89337721083484,48.56902919718959,43.367992757815045ZZM38.874820274171725,28.478679585874488C40.83586921124879,24.02096768530737,42.003930459552066,32.03161439271298,43.87929825715764,32.43125935138369C45.91772250896429,32.83602462548561,47.65975996198722,32.26962227526565,48.180404028871635,31.03276235105841C48.853175833191926,28.747582931029683,50.31062950154228,27.619421228481315,49.911512765127554,29.564186457329924C49.29775603136659,31.433578907327956,46.547653743547926,38.10938541727228,45.80318955722032,38.25323156689137C42.58883538104237,36.37472669112503,38.9758016171163,32.48628104601903,38.874820274171725,28.478679585874488ZZ" style="fill: rgb(3, 3, 3);"/></g></g></g></g></g></g></svg>