<svg xmlns:xlink="http://www.w3.org/1999/xlink" width="24" xmlns="http://www.w3.org/2000/svg" height="24.000000000000114" id="screenshot-2328a020-0834-11ed-aa61-eff26ac8cbba" viewBox="0 0 24 24" style="-webkit-print-color-adjust: exact;" fill="none" version="1.1"><g id="shape-2328a020-0834-11ed-aa61-eff26ac8cbba" rx="0" ry="0"><g id="shape-0b9020f0-0834-11ed-aa61-eff26ac8cbba"><g id="fills-0b9020f0-0834-11ed-aa61-eff26ac8cbba"><rect rx="0" ry="0" x="0" y="5.684341886080802e-14" transform="" width="24" height="24" style="opacity: 0; fill: rgb(177, 178, 181); fill-opacity: 1;"/></g></g><g id="shape-12cb7a40-0834-11ed-aa61-eff26ac8cbba" rx="0" ry="0"><g id="shape-12cb7a43-0834-11ed-aa61-eff26ac8cbba" rx="0" ry="0" style="fill: rgb(0, 0, 0);"><g id="shape-12cb7a4d-0834-11ed-aa61-eff26ac8cbba"><g id="fills-12cb7a4d-0834-11ed-aa61-eff26ac8cbba"><rect rx="0" ry="0" x="8.5" y="1" transform="" width="7" height="2" style="fill: rgb(255, 255, 255); fill-opacity: 1;"/></g></g><g id="shape-12cb7a4e-0834-11ed-aa61-eff26ac8cbba"><g id="fills-12cb7a4e-0834-11ed-aa61-eff26ac8cbba"><path rx="0" ry="0" d="M4.5,3L19.5,3L18.862261106240453,23L5.1513270072046,23L4.5,3Z" style="fill: rgb(255, 255, 255); fill-opacity: 1;"/></g></g><g id="shape-12cb7a4f-0834-11ed-aa61-eff26ac8cbba"><g id="fills-12cb7a4f-0834-11ed-aa61-eff26ac8cbba"><path rx="0" ry="0" d="M20.902515747660573,2.41448692152926L15.907547187581258,2.41448692152926L15.907547187581258,1.810865191146945C15.907547187581258,0.81075196207712,15.105038719233221,0,14.115094355016936,0L9.884905670165153,0C8.894961305948755,0,8.092452837600717,0.81075196207712,8.092452837600717,1.810865191146945L8.092452837600717,2.41448692152926L3.097484277521403,2.41448692152926C2.767502822782717,2.41448692152926,2.5,2.684737575554891,2.5,3.0181086519114615C2.5,3.3514797282682594,2.767502822782717,3.6217303822937765,3.097484277521403,3.6217303822937765L3.9578616371522912,3.6217303822937765L4.459748430270338,21.066398390341874C4.500668701816494,22.702099666258164,5.827590777160481,24.00511662672716,7.44716981787758,24.000000000000114L16.55283020730451,24.000000000000114C18.172409248021495,24.00511662672716,19.499331323365595,22.702099666258164,19.540251594911638,21.066398390341874L20.042138388029684,3.6217303822937765L20.902515747660573,3.6217303822937765C21.232497192565233,3.621730368243334,21.5,3.351479718333053,21.5,3.0181086519114615C21.5,2.6847375854900974,21.232497192565233,2.41448693557993,20.902515747660573,2.41448692152926ZZM9.287421392643637,1.810865191146945C9.287421392643637,1.477494114790261,9.55492421542624,1.2072434607645164,9.884905670165153,1.2072434607645164L14.115094355016936,1.2072434607645164C14.445075809755735,1.2072434607645164,14.712578632538452,1.477494114790261,14.712578632538452,1.810865191146945L14.712578632538452,2.41448692152926L9.287421392643637,2.41448692152926ZM18.345283039868832,21.030181086519065C18.319374452023112,22.01138654209592,17.524404493871884,22.793105596805844,16.55283020730451,22.79275653923537L7.44716981787758,22.79275653923537C6.475595531310091,22.793105596805844,5.6806255731588635,22.01138654209592,5.654716985313257,21.030181086519065L5.1408805066447485,3.6217303822937765L18.859119518537227,3.6217303822937765Z" style="fill: rgb(243, 114, 44); fill-opacity: 1;"/></g></g><g id="shape-12cb7a50-0834-11ed-aa61-eff26ac8cbba"><g id="fills-12cb7a50-0834-11ed-aa61-eff26ac8cbba"><path rx="0" ry="0" d="M7.5,7.5909090909088945L7.5,7.5909090909088945ZC7.5,7.264559011463575,7.8581722001353,6.999999999999886,8.299999999999955,6.999999999999886C8.741827799864609,6.999999999999886,9.100000000000023,7.264559011463575,9.100000000000023,7.5909090909088945L9.5,19.409090909090764C9.5,19.73544098853631,9.1418277998647,19.999999999999886,8.699999999999932,19.999999999999886C8.258172200135277,19.999999999999886,7.899999999999977,19.73544098853631,7.899999999999977,19.409090909090764Z" style="fill: rgb(243, 114, 44); fill-opacity: 1;"/></g></g><g id="shape-12cb7a51-0834-11ed-aa61-eff26ac8cbba"><g id="fills-12cb7a51-0834-11ed-aa61-eff26ac8cbba"><path rx="0" ry="0" d="M16.5,7.5909090909088945C16.5,7.264559011463575,16.141827799864586,6.999999999999886,15.700000000000045,6.999999999999886C15.258172200135277,6.999999999999886,14.899999999999977,7.264559011463575,14.899999999999977,7.5909090909088945L14.899999999999977,7.5909090909088945L14.5,19.409090909090764C14.5,19.735440988536425,14.8581722001353,19.999999999999886,15.299999999999955,19.999999999999886C15.741827799864723,19.999999999999886,16.09999999999991,19.735440988536425,16.09999999999991,19.409090909090764Z" style="fill: rgb(243, 114, 44); fill-opacity: 1;"/></g></g></g></g></g></svg>