<svg xmlns:xlink="http://www.w3.org/1999/xlink" width="24" xmlns="http://www.w3.org/2000/svg" height="24.000000000000114" id="screenshot-2328a020-0834-11ed-aa61-eff26ac8cbba" viewBox="0 0 24 24" style="-webkit-print-color-adjust: exact;" fill="none" version="1.1"><g id="shape-2328a020-0834-11ed-aa61-eff26ac8cbba" rx="0" ry="0"><g id="shape-0b9020f0-0834-11ed-aa61-eff26ac8cbba"><g id="fills-0b9020f0-0834-11ed-aa61-eff26ac8cbba"><rect rx="0" ry="0" x="0" y="5.684341886080802e-14" transform="" width="24" height="24" style="opacity: 0; fill: rgb(177, 178, 181); fill-opacity: 1;"/></g></g><g id="shape-12cb7a40-0834-11ed-aa61-eff26ac8cbba" rx="0" ry="0"><g id="shape-12cb7a41-0834-11ed-aa61-eff26ac8cbba" rx="0" ry="0" style="fill: rgb(0, 0, 0);"><g id="shape-12cb7a44-0834-11ed-aa61-eff26ac8cbba"><g id="fills-12cb7a44-0834-11ed-aa61-eff26ac8cbba"><rect rx="4" ry="4" x="4.5" y="4.500000000000114" transform="" width="16" height="16" style="fill: rgb(255, 255, 255); fill-opacity: 1;"/></g></g><g id="shape-12cb7a45-0834-11ed-aa61-eff26ac8cbba"><g id="fills-12cb7a45-0834-11ed-aa61-eff26ac8cbba"><path rx="0" ry="0" d="M11.625117869089877,11.655831702551836C11.450276214516634,11.856833962497149,11.45974198569263,12.158474751351378,11.64684292658967,12.348132769239783C11.83394386748671,12.537790787128301,12.135604198635065,12.551528208545506,12.339188845140143,12.379661766153163L19.479898605642575,5.2433090264205475L19.479898605642575,8.893043713312295C19.484272239701454,9.1727345361694,19.71008771784409,9.398412229307269,19.989949302821287,9.402783194721906C20.27164252451371,9.402783194721906,20.5,9.174565055281391,20.5,8.893043713312295L20.5,4.009739481409497C20.5,3.7282181394404006,20.27164252451371,3.5000000000001137,19.989949302821287,3.5000000000001137L15.103663623848888,3.5000000000001137C14.821970402156467,3.5000000000001137,14.593612926670176,3.7282181394404006,14.593612926670176,4.009739481409497C14.593612926670176,4.291260823378593,14.821970402156467,4.519478962818994,15.103663623848888,4.519478962818994L18.75562661564868,4.519478962818994Z" style="fill: rgb(243, 114, 44); fill-opacity: 1;"/></g></g><g id="shape-12cb7a46-0834-11ed-aa61-eff26ac8cbba"><g id="fills-12cb7a46-0834-11ed-aa61-eff26ac8cbba"><path rx="0" ry="0" d="M17.595563522294356,20.500000000000227L6.404436477705531,20.500000000000227C4.801013267064832,20.498425184773055,3.501574815227059,19.198986732935396,3.5,17.59556352229447L3.5,6.404436477705872C3.5015748152268316,4.8010132670652865,4.801013267064491,3.5015748152274,6.404436477705417,3.5000000000001137L12.144745686757801,3.5000000000001137C12.407708961100298,3.5000000000001137,12.620882814250422,3.7131738531503515,12.620882814250422,3.976137127492848C12.620882814250422,4.239100401835458,12.407708961100298,4.452274254985696,12.144745686757801,4.452274254985696L6.404436477705531,4.452274254985696C5.326939438539853,4.453847628694348,4.453847628694007,5.326939438539966,4.452274254985468,6.404436477705872L4.452274254985468,17.59556352229447C4.453847628693893,18.67306056145992,5.326939438539739,19.546152371305993,6.404436477705417,19.547725745014873L17.595563522294356,19.547725745014873C18.673060561460147,19.54615237130622,19.546152371305993,18.67306056146026,19.54772574501453,17.59556352229447L19.54772574501453,11.856206587497468C19.54772574501453,11.593243313154858,19.76089959816477,11.380069460004847,20.023862872507266,11.380069460004847C20.286826146849762,11.380069460004847,20.5,11.593243313154858,20.5,11.856206587497468L20.5,17.59556352229447C20.498425184772714,19.19898673293585,19.198986732934827,20.498425184773282,17.595563522294356,20.500000000000227ZZ" style="fill: rgb(243, 114, 44); fill-opacity: 1;"/></g></g></g></g></g></svg>