<svg xmlns:xlink="http://www.w3.org/1999/xlink" width="24" xmlns="http://www.w3.org/2000/svg" height="24.000000000000114" id="screenshot-2328a020-0834-11ed-aa61-eff26ac8cbba" viewBox="0 0 24 24" style="-webkit-print-color-adjust: exact;" fill="none" version="1.1"><g id="shape-2328a020-0834-11ed-aa61-eff26ac8cbba" rx="0" ry="0"><g id="shape-0b9020f0-0834-11ed-aa61-eff26ac8cbba"><g id="fills-0b9020f0-0834-11ed-aa61-eff26ac8cbba"><rect rx="0" ry="0" x="0" y="5.684341886080802e-14" transform="" width="24" height="24" style="opacity: 0; fill: rgb(177, 178, 181); fill-opacity: 1;"/></g></g><g id="shape-12cb7a40-0834-11ed-aa61-eff26ac8cbba" rx="0" ry="0"><g id="shape-12cb7a42-0834-11ed-aa61-eff26ac8cbba" rx="0" ry="0"><g id="shape-12cb7a47-0834-11ed-aa61-eff26ac8cbba" rx="0" ry="0" style="fill: rgb(0, 0, 0);"><g id="shape-12cb7a49-0834-11ed-aa61-eff26ac8cbba"><g id="fills-12cb7a49-0834-11ed-aa61-eff26ac8cbba"><path rx="0" ry="0" d="M6.920562076323449,4.171096329176578L10.101151922769077,1.0000000000000568L17.5,1.0000000000000568L17.5,17.999999999999943L4.5,17.999999999999943L4.5,6.5611794735859235L6.920562076323449,4.171096329176578Z" style="fill: rgb(255, 255, 255); fill-opacity: 1;"/></g></g><g id="shape-12cb7a4a-0834-11ed-aa61-eff26ac8cbba"><g id="fills-12cb7a4a-0834-11ed-aa61-eff26ac8cbba"><path rx="0" ry="0" d="M6.1099925428784445,19.000000000000057L14.890007457121442,19.000000000000057C16.32980036265269,18.995911441988653,17.495985417625207,17.80823740666841,17.499999999999886,16.341913822047957L17.499999999999886,2.658086177951702C17.49598541762498,1.1917625933314753,16.329800362652577,0.00408855801123309,14.890007457121328,5.684341886080802e-14L10.494780014914113,5.684341886080802e-14C9.80454736512479,0.0008619105064440191,9.143177681258635,0.282148317447934,8.657345264727724,0.7814773363178915L4.2621178225205085,5.247062115276947C3.7734186625225448,5.746850156522271,3.4993360130749807,6.42365232365961,3.5,7.128987129266932L3.5,16.341913822047957C3.5,17.046882107855538,3.774980567694911,17.72297672804035,4.264449116962737,18.22146458345611C4.7539176662305636,18.719952438871985,5.4177794821488305,19.000000000000057,6.1099925428784445,19.000000000000057ZL6.1099925428784445,19.000000000000057ZM10.682699478001382,4.646334639059717L10.682699478001382,1.063234471180806L14.890007457121442,1.063234471180806C15.754882904283704,1.063234471180806,16.45600298284853,1.7772739020605854,16.45600298284853,2.658086177951702L16.45600298284853,16.341913822047957C16.45600298284853,17.2227260979393,15.754882904283704,17.936765528819194,14.890007457121442,17.936765528819194L6.1099925428784445,17.936765528819194C5.245117095716182,17.936765528819194,4.543997017151355,17.2227260979393,4.543997017151355,16.341913822047957L4.543997017151355,7.304420817011703L8.072706935123051,7.304420817011703C9.512499840654186,7.300332259000413,10.678684895626702,6.112658223680171,10.682699478001382,4.646334639059717ZL10.682699478001382,4.646334639059717ZM9.638702460850027,1.3184107442640993L9.638702460850027,4.646334639059717C9.638702460850027,5.5271469149511745,8.9375823822852,6.24118634583084,8.072706935123051,6.24118634583084L4.804996271439222,6.24118634583084L9.638702460850027,1.3184107442640993Z" style="fill: rgb(243, 114, 44); fill-opacity: 1;"/></g></g></g><g id="shape-12cb7a48-0834-11ed-aa61-eff26ac8cbba" rx="0" ry="0" style="fill: rgb(0, 0, 0);"><g id="shape-12cb7a4b-0834-11ed-aa61-eff26ac8cbba"><g id="fills-12cb7a4b-0834-11ed-aa61-eff26ac8cbba"><path rx="0" ry="0" d="M9.920562076323563,9.171096329176578L13.101151922769077,6.000000000000057L20.5,6.000000000000057L20.5,22.999999999999943L7.5,22.999999999999943L7.5,11.561179473585923L9.920562076323563,9.171096329176578Z" style="fill: rgb(255, 255, 255); fill-opacity: 1;"/></g></g><g id="shape-12cb7a4c-0834-11ed-aa61-eff26ac8cbba"><g id="fills-12cb7a4c-0834-11ed-aa61-eff26ac8cbba"><path rx="0" ry="0" d="M9.109992542878445,24.000000000000057L17.890007457121555,24.000000000000057C19.329800362652804,23.995911441988767,20.495985417625207,22.808237406668525,20.5,21.34191382204807L20.5,7.658086177951702C20.495985417625093,6.191762593331475,19.329800362652577,5.004088558011233,17.890007457121328,5.000000000000057L13.494780014914113,5.000000000000057C12.80454736512479,5.000861910506558,12.143177681258635,5.282148317448048,11.657345264727724,5.7814773363178915L7.262117822520395,10.24706211527706C6.773418662522545,10.746850156522271,6.499336013074981,11.42365232365961,6.5,12.128987129267045L6.5,21.34191382204807C6.5,22.046882107855538,6.774980567694911,22.72297672804035,7.264449116962737,23.221464583456225C7.7539176662305636,23.719952438871985,8.41777948214883,24.000000000000057,9.109992542878445,24.000000000000057ZL9.109992542878445,24.000000000000057ZM13.682699478001382,9.646334639059717L13.682699478001382,6.063234471180806L17.890007457121555,6.063234471180806C18.754882904283818,6.063234471180806,19.45600298284853,6.777273902060585,19.45600298284853,7.658086177951702L19.45600298284853,21.34191382204807C19.45600298284853,22.222726097939415,18.754882904283818,22.936765528819194,17.890007457121555,22.936765528819194L9.109992542878445,22.936765528819194C8.245117095716068,22.936765528819194,7.543997017151241,22.222726097939415,7.543997017151241,21.34191382204807L7.543997017151241,12.304420817011817L11.072706935123051,12.304420817011817C12.512499840654186,12.300332259000413,13.678684895626702,11.112658223680171,13.682699478001382,9.646334639059717ZL13.682699478001382,9.646334639059717ZM12.638702460850027,6.318410744264099L12.638702460850027,9.646334639059717C12.638702460850027,10.527146914951174,11.937582382285314,11.24118634583084,11.072706935123051,11.24118634583084L7.804996271439109,11.24118634583084L12.638702460850027,6.318410744264099Z" style="fill: rgb(243, 114, 44); fill-opacity: 1;"/></g></g></g></g></g></g></svg>