<svg width="298.70905" height="183.0468" style="-webkit-print-color-adjust:exact" fill="none" xmlns="http://www.w3.org/2000/svg">
    <g fill="#000">
        <path color="#000" overflow="visible" d="m 277.54505,165.0103 -262.080347,0.99887 c -2.550644,8.65606 25.604894,13.28045 31.647174,13.96025 L 296.65314,175.52165 294.21568,36.147393 c 0,0 -3.57881,-29.0704108 -16.41417,-29.2413584 6.26873,3.5261474 0.89215,56.7931694 -0.25646,158.1042654 z" fill="#fff" transform="translate(-1.2909979,-0.09292914)"/>
        <path d="M 12.369464,168.82926 C 5.3099713,164.74836 2.5800658,164.58547 2.5723457,151.2412 2.545199,104.31772 2.9240828,81.325978 2.8560374,51.32175 2.2363482,33.942663 2.4617289,16.097405 1.778209,13.310256 -0.63671734,6.7683069 6.3890869,4.3205648 12.658675,3.8260945 27.791859,2.6328344 9.2869754,4.3441699 125.21585,3.0883553 c 32.90026,-0.3560469 76.52585,-1.248491 96.94634,-1.9832164 47.51483,-1.70902439 56.1093,-1.60530322 60.67741,3.0819588 6.25507,9.5992533 9.59913,9.6791683 13.10006,28.1616713 1.52829,8.066233 2.27039,16.484347 2.50192,39.3982 0.0404,3.994158 0.0652,8.428764 0.076,13.378729 0.0159,7.304611 10e-4,15.731502 -0.0393,25.521392 -0.0469,11.30778 -0.12833,24.43398 -0.23713,39.74958 -0.0798,10.82117 1.75534,23.01595 1.75889,24.26178 0,3.21773 -1.13642,4.42629 -11.31829,5.66813 -51.04768,2.9116 -108.1105,2.47037 -150.05788,2.65072 -42.543128,0.18235 -78.555011,0.38075 -85.955063,-0.43324 -13.928061,-1.53205 -28.0991,-6.93663 -40.299343,-13.7148 z m 153.646106,6.60068 c 46.26393,-0.27153 97.6882,0.7019 110.80806,-0.4468 10.77763,-0.94369 0.82359,-4.27522 -4.70219,-4.41631 -13.58529,-0.34607 -49.53595,0.347 -110.23092,0.10003 -60.69497,-0.24821 -123.034567,-1.7402 -127.289057,-2.09425 -9.57903,-0.79794 -9.190727,-0.10648 -0.711002,3.9265 5.178261,2.46239 22.85147,3.22964 32.98104,3.82061 34.772629,-0.3647 70.569219,-0.71276 99.144069,-0.88978 z M 293.06183,142.5455 c 0.86421,-13.29068 0.43434,-44.603086 -0.31082,-68.331164 -0.63711,-20.289226 -1.66726,-36.992879 -2.92913,-41.806214 -4.63482,-17.679238 -10.42799,-26.2034136 -9.084,-11.475045 2.05233,22.499509 1.24509,57.310637 2.01017,96.550353 0.461,23.60958 1.35487,31.6818 1.80016,40.88289 0.18162,3.75274 6.77464,12.71066 8.76394,9.28431 0.60508,-7.83358 -0.74183,-17.54635 -0.25032,-25.10513 z m -16.03603,16.98268 c -0.23056,-7.07306 -0.64748,-19.68463 -0.77972,-43.8645 -0.0965,-17.644781 0.53387,-36.382146 -0.39444,-54.19383 C 274.65864,38.579332 274.19371,13.773081 273.8796,9.3504059 273.5688,4.9744663 252.74805,5.9759334 238.75762,6.5329633 218.39209,7.3442193 165.05091,9.00031 80.096744,9.794925 19.977137,10.35728 21.298399,9.2018697 16.601426,9.9012167 7.5308927,11.251757 7.9511033,13.621951 8.6841926,23.321709 9.9040537,71.67951 9.4633774,99.804187 9.8048879,152.04774 c 0.044097,6.74581 7.2082061,10.48999 13.1164501,10.64805 46.49529,1.09716 94.960162,-0.34588 133.720882,-0.38701 75.96379,-0.0805 111.55762,1.48813 113.75871,1.53049 4.45406,0.0857 6.77672,0.34707 6.62487,-4.31109 z" fill="#030303" transform="translate(-1.2909979,-0.09292914)"/>
    </g>
</svg>
