<svg width="175" xmlns="http://www.w3.org/2000/svg" height="96" style="-webkit-print-color-adjust:exact" fill="none"><g style="fill:#000"><path color="#000" overflow="visible" d="m4 93 45.074-66 10.95 6.885 2.161 8.409 5.732-3.2L84 51.045l-10.076 4.868-.314 9.423Z" style="fill:#fff"/><path d="M3.896 96c-.62-.43-1.098-.5-1.603-.231-.523.278-.972.18-1.642-.36-.922-.74-.922-.74.375-2.882 2.014-3.467 4.54-6.836 6.44-9.796 1.418-2.216 3.73-5.797 5.14-7.958 5.187-7.285 9.183-15.483 14.112-21.639 1.221-1.519 3.549-4.568 5.173-6.774a926.572 926.572 0 0 1 5.809-7.791c1.57-2.079 3.703-5.049 4.737-6.6 2.177-3.263 6.037-7.453 6.868-7.453.314 0 .973.28 1.466.623 4.221 1.694 8.234 4.238 11.437 7.17 1.78 1.66 2.073 2.14 1.967 3.223-.093.955-.346 1.303-1.014 1.398-.49.069-.825.34-.744.604.08.263.26.994.4 1.624.254 1.146.254 1.146 1.33.077.592-.588 1.554-1.349 2.138-1.691.584-.343 1.416-1.148 1.848-1.789.9-1.602 1.46-.936 2.391.023 1.128 1.17 1.136 1.21.44 2.267-.585.885-.613 1.137-.16 1.422.302.19.67.349.816.352.338.008 4.548 3.377 6.426 5.142.781.734 2.36 1.876 3.507 2.536 2.392 1.377 3.07 2.805 1.927 4.059-2.327 1.217-4.012 2.107-6.096 3.82-1.46.958-1.9 1.263-1.743 5.399.05 1.298-.267 3.45-.58 3.945-.18.286-1.044.804-1.917 1.151-1.417 1.287-3.076 1.368-4.656 2.11-.878.418-3.149 1.272-5.045 1.898-3.221 1.173-6.142 2.73-8.898 3.955-1.436.634-3.434 1.671-4.44 2.306-1.007.634-1.973 1.152-2.146 1.152-.327 0-4.404 1.764-5.798 2.509-3.414 1.823-4.444 2.326-4.767 2.326-3.02 1.218-6.132 2.478-8.838 3.827-1.101.554-2.243 1.007-2.538 1.007-.295 0-1.244.359-2.11.797-6.58 1.77-16.025 7.963-20.012 8.242Zm17.009-12.548c2.822-1.773 6.174-3.215 8.73-4.75 9.752-5.323 19.377-11.838 28.248-16.491a63.412 63.412 0 0 0 1.909-.994c.334-.188 1.43-.76 2.434-1.27 6.636-4.113 11.176-5.554 14.837-8.89.28-.45-3.83-4.145-7.34-6.599a22.951 22.951 0 0 1-2.174-1.774c-.624-.59-1.083-.787-1.178-.503a.724.724 0 0 1-.64.464c-.265 0-2.044 1.496-3.953 3.324-1.909 1.828-5.357 4.865-7.662 6.748-2.305 1.884-5.12 4.292-6.255 5.351a210.386 210.386 0 0 1-4.24 3.827c-4.478 4.802-10.526 9.093-14.66 13.015-5.22 3.98-5.171 4.775-10.344 9.557a93.329 93.329 0 0 0 2.288-1.015Zm-.535-9.356c2.16-2.326 5.966-6.32 8.459-8.876 2.493-2.556 5.1-5.358 5.792-6.227C36.367 56.8 41.38 51.45 47.393 45.36c6.667-6.754 9.23-9.835 9.074-10.905-.144-.986-4.585-4.264-5.804-4.285-7.082 8.333-14.853 18.372-20.89 26.762 0 .316-1.54 2.522-2.68 3.843-.99 1.147-3.811 5.142-3.811 5.398 0 .093-2.1 3.292-4.665 7.108-4.602 6.844-5.835 9.171-3.413 6.441.682-.768 3.007-3.3 5.166-5.626Zm10.534-5.618c.957-.894 2.234-2.012 2.84-2.483 1.039-.81 10.098-8.855 12.91-11.465 1.49-1.382 2.544-2.29 6.241-5.366 1.45-1.207 3.122-2.669 3.715-3.249a30.253 30.253 0 0 1 2.36-2.027c1.361-1.034 1.35-.887.375-4.575-.4-1.52-.4-1.52-2.608.806-6.722 8.342-15.36 16.176-22.07 23.283-1.883 1.99-4.439 4.693-5.68 6.009-2.42 2.563-1.176 1.958 1.917-.933Zm24.977.51c3.938-1.866 10.94-3.634 13.647-6.155.111-.135.567-.445 1.014-.689.696-.38 1.462-2.98.878-2.98-.103 0-1.347.7-2.765 1.555a90.14 90.14 0 0 1-5.083 2.81c-2.42 1.698-5.289 2.807-7.473 4.09-1.874 1.104-4 2.316-4.725 2.692-.725.377-1.318.823-1.318.992 0 .36 1.939-.41 5.825-2.315Zm30.844-14.083c-.234-.925-.109-1.248.681-1.76 3.368-2.005 8.949-6.093 12.209-6.66.966-.15 2.088-.366 2.492-.48.65-.183.702-.028.454 1.34-.379 2.086-.776 2.492-3.724 3.806-2.003 1.574-3.821 2.096-5.795 3.07-1.443.716-3.39 1.417-4.327 1.559-1.616.244-1.719.198-1.99-.875Zm48.52-.747c-2.299-.4-2.709-.608-3.2-1.623-.39-.808-.438-1.36-.158-1.8 3.196-1.697 7.718.582 11.667-1.822 1.677-.206 3.455.777 3.455 1.912 0 1.58-1.165 2.809-2.426 2.558-.608-.12-1.27-.072-1.47.107-.428.384-3.934 1.267-4.7 1.184-.293-.032-1.718-.264-3.168-.516Zm-10.547-2.543c-.335-.127-1.174-.657-1.864-1.176-.69-.52-1.392-.945-1.56-.945-.811 0-4.67-2.677-5.24-3.637-.6-1.007-.595-1.132.053-1.663 1.31-1.072 2.825-.888 4.865.59 1.056.767 2.86 1.723 4.01 2.125 2.514.88 3.616 2.338 2.994 3.962-.4 1.043-1.699 1.34-3.258.744Zm28.903-3.631c-.993-.49-1.318-.915-1.318-1.722 0-.863.375-1.275 1.927-2.117 1.06-.576 2.983-2.05 4.275-3.276 1.84-1.748 2.66-2.25 3.796-2.326 1.523-.102 2.577.76 2.577 2.105 0 .956-1.688 3.316-2.747 3.84a9.03 9.03 0 0 0-1.61 1.068c-.564.493-4.414 2.642-5.378 3.002-.112.042-.797-.217-1.522-.574Zm-47.082-2.131c-1.395-1.292-1.165-2.085.996-3.425.701-.434 2.948-2.32 4.993-4.19 3.69-3.374 4.651-3.854 6.409-3.203 1.447.537 1.15 2.018-.811 4.036-3.7 3.808-8.716 7.597-10.065 7.601-.349 0-1.033-.368-1.522-.82Zm-1.293-5.927c-1.069-.17-4-2.251-4.633-3.29-.205-.336-.799-1.033-1.318-1.55-1.73-1.717-.972-4.124 1.299-4.124.37 0 1.706 1.052 2.967 2.338 1.262 1.285 2.795 2.65 3.409 3.03 1.354.842 1.405 1.535.203 2.799-.62.652-1.238.907-1.927.797Zm62.909-5.575c-1.424-1.19-1.58-2.16-.5-3.13.41-.37 1.545-1.841 2.52-3.27 1.191-1.744 2.007-2.562 2.48-2.49 1.053.159 2.365 1.488 2.365 2.394 0 1.251-.899 3.913-1.321 3.913-.21 0-1.158.816-2.106 1.813-.949.997-1.83 1.813-1.957 1.813-.128 0-.795-.47-1.481-1.043Zm-47.036-4.225c-.823-.328-.925-.57-.703-1.673.143-.709.688-1.749 1.21-2.31.872-.937 1.98-3.048 3.894-7.424 1.107-2.533 2.214-3.619 3.17-3.11.432.228 1.011.96 1.288 1.624.435 1.043.374 1.579-.451 3.943-.526 1.505-1.047 2.826-1.158 2.937-.112.111-.533.847-.936 1.636-.973 1.907-2.457 3.585-3.768 4.26-1.223.63-1.252.631-2.546.117Zm-24.987-4.79c-1.032-1.07-1.147-1.46-1.103-3.727.07-3.582.775-6.179 2.235-8.236 1.307-1.84 2.45-2.415 3.896-1.96.593.188.84.606.84 1.423 0 .637-.18 1.268-.4 1.404-.873.536-2.113 5.792-1.915 8.12.17 2.002.077 2.402-.755 3.228-1.214 1.205-1.409 1.188-2.798-.252Zm30.687-12.704c-.406-.513-.966-1.945-1.245-3.183-.33-1.46-.818-2.466-1.392-2.865-.486-.339-.84-.702-.788-.807.053-.105-.205-.818-.573-1.584-.773-1.61-.382-2.422 1.324-2.746.814-.155 1.393.181 2.814 1.633 3.824 3.907 4.574 8.622 1.593 10.017-.864.405-1.093.343-1.733-.465Zm-20.725-5.408c-.314-.198-.77-.284-1.014-.191-.389.148-.523-1.174-.301-2.947.098-.784 3.995-2.429 8.06-3.402 3.72-.89 3.77-.892 4.36-.117.328.431.602 1.196.61 1.699.014 1.016-.394 1.231-4.45 2.349-1.45.4-2.932 1.052-3.293 1.45-.36.399-1.045.725-1.521.725s-.865.181-.865.403c0 .496-.82.513-1.586.03Z" style="fill:#030303"/></g></svg>