<svg xmlns:xlink="http://www.w3.org/1999/xlink" width="25" xmlns="http://www.w3.org/2000/svg" height="44" id="screenshot-b7e8200a-0812-11ed-b316-7bbb2f17bb8d" viewBox="6540 1330 25 44" style="-webkit-print-color-adjust: exact;" fill="none" version="1.1"><g id="shape-b7e8200a-0812-11ed-b316-7bbb2f17bb8d"><g id="fills-b7e8200a-0812-11ed-b316-7bbb2f17bb8d"><path rx="0" ry="0" d="M6551.105386162204,1373.7278836822795C6551.054974077504,1373.6787584435817,6550.518692745491,1373.5906599760744,6549.913655489191,1373.5321034827289C6548.968258926736,1373.4405975361828,6548.091683749142,1373.2364649671683,6546.438710396266,1372.7228976383067C6542.92108232776,1371.6300079255398,6545.2929495637845,1369.0362810337253,6549.859107486078,1368.982557046932C6549.929937320533,1368.9812084404525,6549.949710878675,1368.7109761725164,6549.903027071513,1368.3808927490145C6549.856343264348,1368.0507958394478,6549.778582047198,1367.365228738626,6549.730206679157,1366.8574109687224C6549.634431900801,1365.8518719960928,6549.457404178494,1365.1393387594849,6548.812598132579,1363.1641172636157C6548.580512112187,1362.4531633950407,6548.330906460411,1361.5833526738754,6548.257931304247,1361.2312060483666C6548.184956148085,1360.8790609213097,6548.05982378769,1360.463565754098,6547.979877079842,1360.3078796251868C6547.899915494586,1360.1521949947269,6547.645923984004,1359.5262228142399,6547.415459600687,1358.916831001194C6546.804468407162,1357.301317317829,6545.841772398906,1355.7572123475602,6544.635302532613,1354.4576681716621C6543.531399277321,1353.2685898509615,6541.754819390643,1350.7668259334446,6541.754819390643,1350.401398531015C6541.754819390643,1350.285806472743,6541.544775435013,1349.7128540067765,6541.288047374671,1349.128170162889C6540.781150404021,1347.9737570225216,6539.867930245409,1344.03828655961,6540.016040310527,1343.6466407487649C6540.066299753059,1343.5137505647142,6540.1420117565285,1343.0310708195907,6540.18428188414,1342.5740250867416C6540.286230636534,1341.4717865341677,6540.4499892018885,1340.7586314401278,6540.7631506788,1340.0531484185053C6540.905210549883,1339.73310611947,6541.021446222467,1339.3752264179714,6541.021446222467,1339.257863189856C6541.021446222467,1338.8926710443345,6542.475624425154,1336.1794741013932,6542.858309797964,1335.8306525400828C6543.05810932172,1335.6485412164288,6543.221579265431,1335.4150884440955,6543.221579265431,1335.3118661041449C6543.221579265431,1335.2086437641942,6543.358633782586,1334.971671128949,6543.526146512161,1334.7852382707538C6543.6936729289455,1334.5987919264937,6543.922184206616,1334.2614949567774,6544.033964691686,1334.0356723002155C6544.14574532553,1333.8098511421053,6544.400589460159,1333.540360607733,6544.60027918867,1333.4367906270008C6544.799968619636,1333.3332221447204,6545.4171333408785,1332.9034901884388,6545.971745866683,1332.4818453756802C6547.949183506891,1330.9784728164511,6549.383588448984,1330.3610058474956,6551.472078474091,1330.1140909855922C6552.743618982833,1329.9637513321468,6552.754771085145,1329.963695889436,6553.305519205167,1330.103841576347C6553.557627236358,1330.1679798020666,6553.97015236788,1330.261673488013,6554.222245521669,1330.3120454384784C6557.4817167039155,1330.963251544651,6560.676322403122,1333.2883195427557,6562.912922939672,1336.6371686638042C6563.275863170178,1337.1805941401246,6563.572813185873,1337.6893948943068,6563.572813185873,1337.767841834775C6563.572813185873,1337.8462872767918,6563.732334666463,1338.2742046081323,6563.9273090016595,1338.71877123569C6566.175156855913,1343.8440677466724,6564.880434375684,1349.2002561761285,6560.1351032606,1354.406893137704C6559.209370163495,1355.4467526467886,6558.610205018701,1356.4548539717296,6557.936414813599,1357.4945606387464C6556.032075812009,1360.4171122546818,6554.721058110779,1363.063593635076,6554.205676556423,1365.0256032828C6553.994380220893,1365.8299721253152,6553.736992198892,1366.778935557673,6553.633696892628,1367.1344192349927C6553.133441195292,1368.8559124093335,6553.250392471024,1369.0613756034081,6554.803011780481,1369.188489256371C6556.4337925092605,1369.322001297854,6557.645934981065,1369.9339180019203,6558.280982937454,1370.217565907425C6559.73059407455,1370.7646026522082,6558.890520608574,1371.5933662874884,6558.095437901143,1372.0466958602601C6557.4424522583095,1372.8658289468242,6552.08984930079,1374.68703958272,6551.105386162204,1373.7278836822795ZZM6554.545238433706,1370.7008090703666C6554.369943929007,1370.6545923263102,6554.039924418885,1370.6529155589203,6553.811850834449,1370.697077925773C6553.583795102899,1370.7412597724974,6553.727216256484,1370.7790702028312,6554.130567980474,1370.7811200846804C6554.533936069607,1370.7832029324654,6554.720534426149,1370.7470348051334,6554.545238433706,1370.7008090703666ZZM6552.205451195945,1364.169615778051C6552.366377103506,1363.5771579670345,6552.9255145918505,1361.5786160682285,6553.205495440125,1361.2251403161117C6553.326158628248,1361.0727912390114,6553.66201008088,1360.44954923742,6553.951807040556,1359.8401574243742C6554.241606975711,1359.2307641128766,6554.8335387265015,1358.218687395724,6555.267200186408,1357.5910968874614C6555.700872060501,1356.9635048807472,6556.055684765002,1356.3701779677772,6556.055684765002,1356.2725928029113C6556.055684765002,1356.0141263772841,6557.559765054966,1353.9965661302124,6559.178045788601,1352.0842496343594C6561.5554416168625,1349.2749075385825,6562.8272975265745,1345.9662663704983,6562.585350762566,1343.2203552312646C6562.351765099815,1340.5691792018697,6562.211011464833,1340.006709903605,6561.314499077649,1338.14207863442C6560.5810028733395,1336.6165200001494,6558.0325749167305,1333.9986785260276,6556.5283294875735,1333.2255404126772C6555.960061736168,1332.9334592213197,6555.295595200385,1332.5881979811154,6555.051738177655,1332.458273232868C6554.807879667189,1332.3283469861692,6554.294588388144,1332.1894195404443,6553.911105437686,1332.1495457421968C6553.527609097566,1332.109671943949,6552.837330265202,1331.9743587635899,6552.377145368788,1331.848852949241C6550.31897549378,1331.2875179788707,6544.138306028252,1335.6495391852236,6544.138306028252,1337.663441711832C6544.138306028252,1337.761250145993,6543.980776632107,1338.012831186316,6543.788251117668,1338.2225050295099C6542.76186181706,1339.3403529528598,6542.020829314795,1343.5594833088899,6542.478690955744,1345.6786190975552C6543.006475058253,1348.1213425218457,6544.341460853013,1351.1508551145832,6545.389260821345,1352.2836321116627C6546.921790130264,1353.9404461192403,6548.470465439822,1355.954516472433,6548.9987724830935,1356.9778540536904C6549.878879556483,1358.6826290030388,6551.464049138956,1364.1085793472346,6551.479421960888,1365.4689786413003C6551.486711889029,1366.1187447354428,6551.486711889029,1366.1187447354428,6551.762565745328,1365.6065484898354C6551.832514837442,1365.0362318003108,6552.057318368397,1364.7137320405795,6552.205451195945,1364.169615778051ZZM6551.875363249763,1348.6197275386498C6548.227557595493,1347.4430174378194,6548.424357388205,1339.6397450897887,6552.10238946493,1339.61826328702C6552.2094948744525,1339.61826328702,6552.528198630813,1339.495719911571,6552.81061342244,1339.347361211199C6554.09329115609,1338.673497017717,6555.757072943237,1338.665339446967,6556.565347445121,1339.3289257606225C6559.92390511594,1342.086345008482,6555.960638979459,1349.9375393385405,6551.875363249763,1348.6197275386498ZZM6554.156063388338,1346.1779885970896C6556.883787871424,1343.310671407205,6556.233758368835,1338.9393867727886,6553.420984228205,1341.23477493918C6551.121529633683,1343.1112754438375,6550.674186912718,1344.93855331044,6552.137632548136,1346.4770615638183C6552.828860558895,1347.203747676204,6553.237892475874,1347.1431413010093,6554.156063388338,1346.1779885970896ZZ" style="fill: rgb(3, 3, 3);"/></g></g></svg>