<svg width="17" height="17" viewBox="0 0 17 17" fill="none" xmlns="http://www.w3.org/2000/svg">
<path d="M0.832031 8.43751C0.832031 7.20357 1.66836 6.58661 3.34103 6.58661H7.24848V0.663726C7.33075 0.279836 7.75577 0.0878906 8.52355 0.0878906C9.75748 0.0878906 10.3744 0.924223 10.3744 2.59689V6.58661L16.2562 6.54547C16.6401 6.62774 16.832 7.05276 16.832 7.82054C16.832 9.05447 15.9957 9.67144 14.323 9.67144L10.3744 9.71257L10.4156 15.5121C10.3333 15.8959 9.9083 16.0879 9.14052 16.0879C7.90658 16.0879 7.28962 15.2516 7.28962 13.5789L7.24848 9.71257H1.40787C1.02398 9.63031 0.832031 9.20529 0.832031 8.43751Z" fill="black"/>
</svg>
