<svg xmlns:xlink="http://www.w3.org/1999/xlink" width="167" xmlns="http://www.w3.org/2000/svg" height="193.00000000000023" id="screenshot-b4b192f4-0847-11ed-bd60-d1923bf7f7a7" viewBox="0 -0 167 193" style="-webkit-print-color-adjust: exact;" fill="none" version="1.1"><g id="shape-b4b192f4-0847-11ed-bd60-d1923bf7f7a7" height="172.81779mm" width="149.89651mm" rx="0" ry="0" style="fill: rgb(0, 0, 0);"><g id="shape-b4b192f5-0847-11ed-bd60-d1923bf7f7a7"><g id="fills-b4b192f5-0847-11ed-bd60-d1923bf7f7a7"><rect width="167" height="193" x="0" transform="" style="fill: none;" ry="0" fill="none" rx="0" y="0"/></g></g><g id="shape-b4b192f6-0847-11ed-bd60-d1923bf7f7a7"><g id="fills-b4b192f6-0847-11ed-bd60-d1923bf7f7a7"><path rx="0" ry="0" d="M114.00886941256431,4.001878921424122C105.9232792902767,4.1859183625488185,100.2519802528277,17.68393192060239,100.2519802528277,17.68393192060239C100.2519802528277,17.68393192060239,92.66797538901301,15.03396510440598,89.75947365631691,14.7770697339472C86.85108366014356,14.520062621265197,78.50101318436646,16.92900146265515,78.50101318436646,16.92900146265515C78.50101318436646,16.92900146265515,72.20242529838288,6.265888099705535,68.47299532019497,5.446817605810793C64.74378881505618,4.627858854138822,62.65621532785008,7.325539599515878,60.889660875527625,10.682052491141349C59.12310642320699,14.038118413875509,64.79731061029088,29.230479297840247,64.79731061029088,29.230479297840247C64.79731061029088,29.230479297840247,46.41229460582508,48.79654252853675,44.62808578263321,56.424513632935486C42.84376522291495,64.05281996400322,47.05489135821699,62.44652550974138,47.05489135821699,62.44652550974138C47.05489135821699,62.44652550974138,47.12640273389479,66.67004630888846,46.91198034338231,70.31530110450126C46.698004898969884,73.96077938455983,51.551504313611076,71.08621070032382,51.551504313611076,71.08621070032382C51.551504313611076,71.08621070032382,51.39160934705433,72.80469434638235,51.48111030317705,76.46604002209347C51.57049952277703,80.12749744002735,58.189994707117876,79.72589589090626,58.189994707117876,79.72589589090626L61.75874756307712,83.35573025975805C61.75874756307712,83.35573025975805,57.56941005005501,89.54166797756557,54.23552736858983,94.61968155526847L51.865930893551194,94.0176144582556L19.957778538599086,102.12428924558048L34.825328751850975,155.32297369516846C30.785494708605256,154.08811038984322,26.229773131750335,152.45455083319257,23.996383480074655,150.8160746187341C19.476082381486776,147.50034763846884,5.203529161188271,135.96452751462994,3.50066452782994,134.43209466970848C3.50066452782994,134.43209466970848,2.531461914330066,135.3994470933983,3.2900411791506485,139.17510506314147C4.048508707446672,142.95031606399266,18.35156599893162,162.59448710849983,23.24327930495383,165.5898491356961C25.359569078957065,166.8859471791734,31.919732168791597,168.95127868512986,39.19634985370976,170.96342089298332L40.90491304981697,177.07627919701076L49.128050833762245,173.57517186894552C55.29825345309655,175.1212372650616,60.76418075851507,176.35520663260354,63.14986729308475,176.7493214527899C69.55851565569901,177.80819075703948,94.62492887908047,180.97418315861205,114.91873993155423,177.19852518886887C124.27008140336147,175.45869877823543,129.87143337647467,172.32354723018466,133.20006444128558,169.44763763927403L151.81536942274397,173.68434402072376L161,100.80159655305147L129.9125524174906,96.40029387726236L126.2139617200628,82.48224130330823C126.2139617200628,82.48224130330823,126.17820603222572,78.9489522150468,132.44092649384402,73.02326213438482C138.703982165036,67.09768379594607,136.68780831698314,53.28679201375826,131.8879424340994,49.46453753706396C127.0881882877402,45.642618287037976,119.09433385206648,28.025898134922272,119.09433385206648,28.025898134922272C119.09433385206648,28.025898134922272,119.68363228227099,21.827110061480653,120.66479070389141,17.61956840020889C121.64639607161371,13.412138481160355,125.30420293759744,6.71576228912204,116.11510289936086,4.258662549659903C115.39719572945796,4.066689410708705,114.694484726886,3.9863467524398857,114.00886941256431,4.001878921424122ZZM85.0143586704362,102.44130193196202L99.62402098514576,102.99788994425239L93.56510794421229,104.61446468302165Z" style="fill: rgb(255, 255, 255);"/></g></g><g id="shape-b4b192f7-0847-11ed-bd60-d1923bf7f7a7"><g id="fills-b4b192f7-0847-11ed-bd60-d1923bf7f7a7"><path rx="0" ry="0" d="M100.23464130017419,10.845770641122499C99.6223308396311,12.387824797060148,99.01882178490632,15.642689250624016,98.91632440068133,15.787424345213594C96.45516166708148,11.526673319913925,84.45193810294586,9.66354401201238,80.23339087068962,15.683563513448007C78.31535286328108,10.22562096499837,75.82310668381251,5.370852988986826,73.29130988325778,3.82354995230412C69.77654088594682,1.6754175877720172,67.97470371739291,1.6548687780464206,63.4591368912852,3.7105314988127702C56.954563760213205,6.672128700529811,56.25156539667114,15.59801792513349,60.29620130634612,23.611271969962445L62.64294576429529,28.260775205344544C57.59027036280895,33.04284059912038,53.41183080264091,40.30863169017675,49.358282076947944,43.59242082699552C43.49532028908288,48.34176447484924,41.697605297938935,51.32100685013529,41.54096255639524,56.8323316325459C41.500854884307046,58.25142796507066,42.58376203068292,61.66018513494919,43.33243857632624,62.805557920529736C44.08100371176806,63.95070734948308,45.85677089346427,65.46863898965557,46.01096261060229,67.04989223371126C46.31644937967212,70.18492585664626,47.91674549598429,71.4034479377176,48.77683224187058,69.15648026553754C49.07329478472093,68.38143276827441,50.05236762447021,65.24237872604522,51.434076927901515,62.906738472766165C55.93181812196963,55.30446062245119,50.34236837570643,58.03633553283271,49.022825964010735,59.12776769288325C47.745730838608324,60.18402118410995,47.586971303260725,60.059499864304826,47.586971303260725,58.00339043028316C47.586971303260725,54.55911955663919,49.76125277123083,50.98150477640547,53.11859915559762,48.90149618324676C57.32466844542614,46.29581776737632,60.93714418835225,41.90954031744809,62.71001470484225,37.25590498445831C63.5452569760746,35.063436329376145,64.75873687713647,33.269547575984916,65.4063643711579,33.269547575984916C67.21689153533043,33.269547575984916,66.86583799436085,27.5628974228664,64.68030409616586,21.452865200566976C63.084910028664126,16.9939968467163,62.94397612535431,15.7589463752131,63.809187740454036,13.85449609123225C65.45460498786451,10.234108516841616,67.41542451216628,10.064022445035562,70.11701045789414,13.307719067226571C71.72744490242712,15.241317391090206,72.79063244335885,17.90339335539238,73.43603173337578,21.62049434947039C74.38602651085966,27.087371163017906,73.86206433910957,36.40178924107636,72.55923345745214,37.20877673606515C72.17988172562036,37.444082943087324,72.08250921060608,36.31590861782047,72.34387754037925,34.701710271215234C72.86728266112823,31.46873476714245,70.48845206550868,22.016282293317317,69.15141825237515,22.016282293317317C68.66533554870875,22.016282293317317,68.31227662413403,25.570444627668167,68.31227662413403,30.46161973395465L68.31227662413403,38.90639878302386L70.9268512034705,40.06673646264403C74.534202077185,41.66731005497445,75.6614504832587,40.98071178218311,77.35945334518328,36.14693932915202C78.16628601535376,33.85060984230449,79.37508668800729,30.691900416859653,80.04577609347689,29.12851570299972C80.71624267854895,27.56501931082653,81.52753175672842,24.318754087420302,81.52753175672842,22.980512854033577C82.46738820599057,17.12086341110944,95.42639987802431,17.493868978956698,99.00645525267828,21.9279447471597C99.00645525267828,24.261909825733028,100.83525368969094,26.343146880343284,102.42652557978363,26.343146880343284C103.38030830407479,26.343146880343284,103.44592891201864,25.82015733716139,102.74426747088,23.80246524306176C101.68932428476546,20.769952312127998,103.82762025805641,15.288222282854804,107.5997468179321,11.35468871677449C110.47000780683084,8.361374873958766,111.43080937373907,8.915187631729168,109.11269733725203,12.227119703607059C106.65164601385368,15.742306306467071,105.32151963313481,20.46384205420304,105.32185386373567,25.67832587872863C105.3222995045362,31.08478472454999,106.3613110320166,34.17503534368052,109.00908585102661,36.64781656621608C112.19073834960636,39.619353137855114,114.52533909572958,39.020310663025384,116.2779329557743,34.78312376192207L117.79968488091254,31.104105072824723L118.40932149665059,33.70129593685215C119.71070404570492,39.24400232541984,123.78374955644176,44.116192118372965,127.85490109377497,48.43133048245727C133.8025346338236,54.807045413112064,134.50051953835646,61.6864295386747,130.8214204956821,70.68066589127875C129.3261841982021,74.3357854212386,118.75680991121226,83.88305278341727,112.56875315903562,87.93496536204748C107.09193912521914,91.52140272906581,105.95198995631836,93.01241989563005,108.68309960511033,92.98840905817906C110.54710366539985,92.9772412268062,118.54490771034762,89.29799918108142,121.88431705247422,86.91444893121366L124.3533899102913,85.15183010566557L125.38683092775864,87.08833206568579C125.87792709043606,88.00777962259735,126.5225465090507,91.22869386878779,126.95336975339615,94.65610131705944C126.29460123935132,94.67396984725565,125.73253677911816,94.75326145000167,125.2809912375269,94.91329647357202C123.89794501169308,95.4046810539694,102.95104480253303,99.97143065887985,97.40147990795685,102.23660189619773C92.930811392549,104.0614255424914,90.77847773402573,103.74303067005667,70.05350664375328,98.1936235826654C64.4134766665793,96.68551963410073,60.291299257534774,95.60134656444234,56.89885866009172,94.91206801212115C58.18531224231356,92.24351470562237,59.704724553248525,90.03462933842297,60.11426844934613,89.01254941119646C60.923106503121744,86.9944106038422,62.36765115949129,86.74659642568258,64.26697225325734,87.76532600349742C69.80138536060076,90.94346745553094,73.60782626215223,92.33866462891797,78.44336318336173,93.13414925759321C81.18305141757264,93.13414925759321,85.07137881630388,93.73576033363861,87.08444972452162,94.47562916207767C95.66715732075318,97.63009481160088,104.80123399799322,93.19490226026028,109.24917483255194,83.71419517306276C111.00433112720293,79.97330669816051,112.30259419065078,78.28830430065318,113.56743419402665,78.10682704084707C114.65691454221633,77.95058907994326,117.47436709619979,77.4918145671545,118.21914428483251,74.56171064990804C118.64551112116897,72.88463741267492,116.35837112035006,70.87710804512426,113.66725773344479,72.58176582584815C112.12088415405196,73.56118463723078,108.99504816579429,73.16483830181505,108.68142845210605,70.36640311645215C108.1007584884319,65.18642789086834,104.36183216822883,68.61193680780639,104.58153308311012,71.90130986031158C104.68068816132836,73.38194094369965,105.20153084747108,74.45516953861261,105.96023431113645,75.54090610466346C107.11734065087512,77.19687214060264,107.16769806138473,77.93182712323733,106.27262851262185,80.09715794808358C104.2217895465219,85.06047724503765,100.26316231143574,88.80985327178246,100.26316231143574,85.78895488547641C100.26316231143574,85.1579724129208,99.28219549828464,83.71743384416072,98.08297610285354,82.58825441407043C94.21748779517202,78.94809977814975,87.28454244416025,80.41164407953761,85.2337034780603,85.30058561954979L84.1614917109082,87.85656718581185C82.56999700041706,85.81419418437895,81.24733510311489,83.71140321521966,79.97269100211815,81.18512808040828C76.71249431236538,74.72286245661508,75.52007093914926,73.43253121981752,76.69678547413059,71.63238848085712C79.05834748871257,67.27872109853706,75.04836015131332,66.94893503810249,73.41430674432831,69.22918284777325C72.65838853567038,70.59791226080756,70.07734842660739,72.37147556110062,66.98471267802142,70.9539427249681C63.91658717349037,69.54768939852192,63.47161483371383,70.80485217614319,63.99669110746618,72.59494386686765C64.4411063962416,74.11030690582493,68.87857467197682,77.04800494840447,71.36981815964282,76.0164323645115C73.33286588794999,75.18353550073789,73.31749128031515,75.67201644497845,74.11451985286567,79.10344431254384C75.46536853082944,84.88603571899671,78.36069681478148,88.75624768119405,77.33171220532313,88.34080435413102C73.63590163261506,87.45039315878807,68.2962335552993,85.32370303049174,63.48520687814471,81.64390259319816C61.06660284103691,79.79372796968846,58.63808329610856,78.27970507049622,58.088496778302215,78.27970507049622C56.71558888069012,78.27970507049622,56.83457497455129,80.12853955424089,58.34741408367154,82.29342366583228C59.49571901759009,83.93665837400636,59.436448791060684,84.17207625934248,57.67939852300515,84.9744849434685C55.950869266212976,85.76393894320245,53.52636048849308,89.8131712423035,51.6635819404064,94.12004541117199C45.81365514597201,93.65311838148091,41.45762772661419,95.01135003302443,31.660214717117924,98.2043447007834C25.056486507828595,100.35683251955106,20.573117229592754,101.7887718581544,20.381603095371247,101.8309862607432C18.36708385455131,102.27535427106159,18.61018091148435,103.72583220974343,19.617774762495173,107.67086864213798C20.301053520594905,110.34601096914639,21.31867428962869,114.07092944518536,22.44725961810309,118.1354616732674C18.34903540211144,118.10195817914905,17.573731818611122,121.60284995785264,19.23106995744638,122.67283988166764C19.83725285697801,123.40511458477317,19.90354192612176,124.37325388646968,18.761587373617658,124.31506948501806C15.840077692606428,124.1658672578792,16.275691575561723,127.20686774065621,17.847021039809988,128.10922851556757C18.339231304489658,128.39188632760965,18.459888551355107,129.09311445949925,17.490396988827342,129.34740597985524C16.439575980120935,129.62280470150517,15.727999031159925,130.52505379810304,15.727999031159925,131.5830941423494C15.727999031159925,132.92736600467742,17.24395762588756,134.09663794939547,21.98869523389658,136.4107242881255C24.476373595154655,137.6241091667655,26.617677643853312,138.47375777759794,28.370717144698574,138.9620153652113C29.82317192528535,143.98184388891104,31.285876444295354,149.00960157288523,32.66468908252136,153.70433452532643C28.74739503172532,152.19321526229123,24.210103216571042,149.38919616124213,18.5638342681832,143.7706601976538C8.661250029656003,133.9171708992369,4.621070527991833,130.35295751665058,2.3897470374959084,130.51656624626003L2.389078576294196,130.51656624626003C1.5160682471778273,130.5802228850839,0.9195780350692075,131.21567249018904,0.3577363952372252,132.26790556212154C-0.38938040760149306,133.66768154637157,-0.035430201425697305,135.57202015203848,2.0790239890138764,141.5386574195129C3.5425083794252714,145.6684097828113,6.7707303417082585,150.31478602540892,8.027214580064538,152.4764314659019C17.210200335211994,165.10155315438737,24.398275044783077,168.56235241846275,37.876681070356426,172.77050295799677C39.09751404463532,176.5810787006642,40.064108941955055,181.58817589659884,43.38324162763729,180.0475735587395C45.99001749295712,178.83742735119745,49.8372345277985,176.4978783569377,50.82544300396694,176.11392831434523C52.609677360882415,176.7011328879198,54.912971840734826,177.46155052608515,57.16813711408304,178.037140555032C66.82985249968078,180.50344443537165,67.83477250588567,180.0778383817592,60.326504880812536,181.91617510401375C46.89288575573755,185.20521312157734,43.78554386072028,187.3951131754436,47.19469598819887,191.17151535411062C52.192891801765654,196.67513433287422,66.256758429623,188.09265592298038,72.61248753316795,187.1219480200682C82.68697771067309,185.58357924848337,85.42677735508369,183.9199074088972,91.61071192985219,184.076927117997C95.64777194590897,184.17967116662567,101.0137328304827,183.8630631472106,103.53483425181457,183.37212528006808C107.1776135692071,182.66252127464873,108.5066258479228,182.72997497614006,110.01099778182379,183.7011295923071C111.89717247196222,184.91898160349592,132.86780305377397,188.77791405600738,143.57209509325912,189.8773870546463C148.1627523943307,190.34878121688644,149.29490284921485,190.21454388378697,149.70210713110828,189.15058458891326C151.10052796457694,185.49747526860074,145.40022506907007,183.01989187857475,130.3079308827564,180.72054707725647C127.13151466358613,180.2365332655654,123.642481422532,179.51040086971443,122.55422658654334,179.1066837655926C120.7439222427729,178.4354971000953,120.99481801372167,178.16758082546494,125.49712702600118,175.95780203175605C129.2580011556529,174.1119828624819,131.77353206697262,172.3000022222668,133.0625480837989,170.87476358248705C133.90291522424377,171.11866901966619,134.77748529616292,171.37005690386445,135.68948919536433,171.62568856398502C150.09616500937227,175.66431142328224,151.44601099553438,175.86309882171577,153.14991859807196,174.22053418342398C153.8087985223192,173.58497290000537,154.32161967404318,169.07953468933079,155.05358468965096,161.11385560614917C155.70901089768813,153.98498212772142,156.83091161414904,145.04301122594165,157.54649933031942,141.24181646162742C157.62448647049132,140.83184537193688,157.7047018146659,140.35341547593157,157.7870339526471,139.85488348345598C160.08876868969764,139.6546442669444,162.51550567142203,139.12473066831103,164.2685451722682,138.4757679872455C165.79542196661896,137.20643227342862,165.74272494190336,136.02945452506287,164.0772538584497,134.18497549555377C162.83246769111793,132.80630671259814,162.86477664918857,132.63432210945894,164.46507276549892,132.12506899886534C166.37820872409793,131.5166455456822,167.62110091802424,128.77360280392804,166.67712229135395,127.24260480104931C166.3241747769789,126.6696950516316,164.8809670430128,126.46856240860984,163.14798137821072,126.75055015076964C161.41766955821276,127.03197950136087,160.42210800882913,126.89383342728092,160.71823632107953,126.41316996500154C160.99431079728492,125.965339926958,161.71234953786097,125.59858834467923,162.31418743958056,125.59858834467923C164.08694654586998,125.59858834467923,167.43382037141328,121.4956387766756,166.86774514397166,120.01645951136584C166.54944620187234,119.1850144656712,165.7334778952836,118.75829162892114,164.59987910779546,118.70926484919505C163.38584215573246,118.65677604174357,161.80526564486354,119.0427362939829,160.08275253888405,119.82359106355989C160.63512431169602,114.70872429487895,161.42023199281903,109.16635294125194,161.66043238454586,106.25087888310372C162.1952013457194,99.75980025436888,162.0200645109344,100.71342137528109,160.00498821911333,99.6913414480548C156.96081590763424,98.14738876078354,147.12117843224587,97.95686555756583,136.3196252879461,95.95436171413326C134.82227219666038,95.67706446114971,133.4566059620638,95.42422475887247,132.2033526195155,95.2117009278511C131.7328673438824,91.42379588287031,130.81451306326744,87.4632361648678,129.7277065598828,85.61663524739765C127.00394998430693,81.17306682252729,127.51108921582,82.64543371069976,131.21057632513657,78.79811580281626C142.91165542621002,66.62942338253174,141.05110508212783,51.73522171574837,134.53305131682646,45.48704341936923C131.6451875162902,42.45832755110223,127.94124399896373,40.0259738781358,126.27443599310573,36.851182775513735C124.60740516684928,33.67627999457841,122.56403068416512,30.461843090584125,121.73257635974187,29.70767943798819C120.30206938860283,28.410312467425456,118.84638371220899,28.631212171976586,121.5690261857817,23.209006683919824C125.40833309640584,15.565631214153655,125.6616798917621,8.836677777180967,121.87818949146094,3.9030649116784843C115.67486954185006,-5.27164359590779,103.36571356784225,3.670662340813351,100.23464130017419,10.845770641122499ZZM118.61465049570052,9.27032466938067C120.07768924531047,9.314995994871424,120.36546179254219,11.202917888420643,119.40566291743744,14.800523086811154C118.81429757453952,17.016444187775505,117.37788586278657,20.423079469693675,116.21364927023205,22.369967512890526C113.86144571247223,26.302831009088777,113.32489418809473,25.99013173065373,115.4282073585091,21.9128681748075C118.28119976637026,16.382558079063074,115.4282073585091,17.057430128913893,111.25288728394844,22.89909936332765L109.72121985098784,25.043993056761792L110.2796077746143,22.014160405357416C111.08376659997793,17.65624924711574,114.63686070617405,10.98704370798714,116.76223309623674,9.846696446523765C117.5083472072738,9.446441370127332,118.12700804923043,9.25569481028242,118.61465049570052,9.27032466938067ZZM89.0029333727307,66.16137956970215C86.96813747546548,66.16137956970215,85.79498806689207,69.9578838448399,87.27685514034238,71.74752882230973C88.6377307363291,73.39121024373844,90.65782048716028,72.51598729906254,91.28494850433799,70.01037265229138C91.91954100492876,67.47572164395115,91.14033806441967,66.16137956970215,89.0029333727307,66.16137956970215ZZM53.021338050783925,66.76042204453188C52.70270487808466,66.78610805668927,51.31943583185057,67.42490801120539,50.957129860655186,67.99826447387818C49.91243641296387,69.65289037005255,49.220467659244605,76.10990711310023,51.084137488934175,77.49605834307613C54.10045725035161,79.73945230921731,54.84077803097716,75.20207410081684,54.852476102001674,73.12396403899083C54.87364404004802,69.3353889241273,53.97734897908231,66.68492750445284,53.021338050783925,66.76042204453188ZZM98.74553256370746,66.54264933276477C96.63141260386874,66.66203345013878,95.77333124158395,69.89746587711352,96.45471602627913,71.67884665936754C97.14467939639326,73.48189303448453,100.07621599542563,73.56062624566152,100.60274060178108,71.71793406917163C101.16814736802189,69.73888267162124,102.60077113296575,66.3252116559388,98.74553256370746,66.54264933276477ZZM49.539435062544726,96.87637787225913C49.659201027807285,96.86521004088627,49.73607406597512,96.87604283731775,49.76370379563741,96.89759675186701C49.967250231483376,97.06098212484903,50.263824184534315,99.65828466719017,50.42280654028309,102.66913200526096L50.71225024051819,108.1432679092004L45.52911349454553,109.39797376391971C42.678460700890355,110.08781070780901,39.93955233808083,110.65011101742311,39.44255143479131,110.6615022054234C38.303939188292134,110.67267003679626,34.53983416283336,101.5636283776812,35.39914103732008,100.8764717133206C36.25443714459652,100.19177197186241,47.74249994280217,96.98191387873112,49.539435062544726,96.87637787225913ZZM54.40973196623054,97.18717861936034C54.54554100032874,97.17266043857603,54.698284384863655,97.18717861936034,54.86395135262774,97.23966742681205C55.83121471114919,97.53673174132496,58.05462807742788,103.91512695150959,58.05462807742788,106.39349208973158L58.05462807742788,106.39416215961387C58.05462807742788,107.48347243170338,56.37667905154649,107.45175579060538,55.89081916828036,106.35172440039764C55.194171186150925,104.77572003708701,53.778147541044746,99.28673091742166,53.756533962197864,98.08038177254639C53.74539294217266,97.55705719442312,54.001970633335986,97.2311798749688,54.40973196623054,97.18717861936034ZZM128.99763551768228,98.38235993286321C129.06782394383663,98.38235993286321,129.1400177535943,98.38235993286321,129.21310284495485,98.40581237874608C130.1069468815158,98.6167727133759,134.84210321230603,105.51436040407566,134.90582984684443,106.69904395608773C134.93145419290158,107.22728238001491,133.74215030529103,107.23186119087768,129.5348555032606,106.721379618833C127.43577592045403,106.46719977679095,127.1585873422473,106.13763707298381,127.1710652846732,103.88821247790133C127.18554861070606,100.6428406810046,127.93946143576068,98.42021888121644,128.99763551768228,98.38235993286321ZZM133.92675700709697,98.95404122083005C134.2077335321137,98.93170555808456,134.5958866697656,99.0670596743214,135.04531541755023,99.42711055777613C135.5673836158967,99.84311227640796,135.83699630048795,100.55640166618014,135.6473761396719,101.01149079461652C135.4091811315502,101.58317208258336,134.94047841912106,101.49081411713132,134.13097190414464,100.7100710258685C133.21083506032573,99.82044157872178,133.30865321613965,99.00351471381146,133.92675700709697,98.95404122083005ZZM124.11809156737581,99.09319239973343C124.18159538151576,99.09319239973343,124.2272735636152,99.10994414679226,124.25167239746952,99.1311630264006C124.4498711437036,99.28996958851985,124.3541697816936,101.17409441940231,124.03921314560284,103.3182063646409C123.60872413185916,106.24786356863251,123.12041322418736,107.21477440887747,122.0737143928909,107.22616559687776C121.30776926621002,107.22616559687776,119.80607117711497,107.42361285554671,118.73709030576902,107.65255339868645C116.58609356965007,108.11389651269133,116.48014246921775,107.79192793421726,117.36418240815692,103.50984635099599C117.82140986996092,101.29604713799222,118.42547597568591,100.66953179798611,120.90323882912253,99.8414371017027C122.34121028367736,99.36122035267817,123.6743447398012,99.05667359114568,124.11809156737581,99.09319239973343ZZM58.36713368911296,99.13451337581205C58.56934320255823,98.97313821247735,70.39575877890638,102.34738678341478,70.82201420503952,102.68856403184964C70.96896425916293,102.80593793957655,70.63551352983086,104.34419503284744,70.08057932241354,106.10748392827759C69.52564511499622,107.87077282370774,68.82777162066486,109.41394376278299,68.52997215541109,109.53600815968616C67.77973586696498,109.84569212365045,62.4180085700018,108.86437478093421,61.69484496021414,108.28588111583008C61.09122449529059,107.80298408727572,58.03546552298667,99.39986104922718,58.36713368911296,99.13451337581205ZZM139.99627330621388,99.70429613244573C140.42709655055933,99.70429613244573,140.97100114815294,99.76906955440722,141.6821324563116,99.8617625548004C143.31440330009355,100.07361631593972,144.8057402405666,100.37123902202165,144.9964745033849,100.52356824194453C145.1870973560035,100.67589746186763,144.56943920584763,102.24497776972748,143.624123656773,104.00927176998107C142.11874903107127,106.8189864650301,141.5805263536904,107.21656126189714,139.28358225525062,107.21656126189714C136.30514196191507,107.21656126189714,136.08020476762158,106.51142438902684,137.6881881877489,102.217281547923C138.42616935417027,100.24682938052979,138.703357932377,99.69904725170068,139.99627330621388,99.70429613244573ZZM146.8612584350758,100.47588160198325C147.03918052486733,100.45689628864989,147.25932708055007,100.49375013217968,147.52983104674422,100.57750886747453C148.28140425759193,100.80823626363372,149.35060794933815,100.99607918732204,149.90554215675547,101.00747037532233C150.4604763641728,101.01863820669519,151.4392149733212,101.2844325933645,152.0803806757267,101.60919312968144C153.0094303355654,102.08025225698043,152.76644468883296,102.78069864067402,150.88584050870668,105.05413407320748L150.88584050870668,105.05413407320748C149.58791167585878,106.62332605938082,148.44707122535692,107.90796170217891,148.35259537554884,107.90796170217891C147.46510172040144,107.90796170217891,147.28294604300117,106.76884290216685,147.94650519565766,105.37252894564244C149.25290120372392,102.624237323143,148.9162195785848,101.03125785614611,147.45975403078955,103.07028050816734L146.2246605508799,104.79805569983228L146.19457979681374,102.47805041047468C146.17675416477414,101.10027505402854,146.32838344730771,100.53339593355213,146.8612584350758,100.47588160198325ZZM115.11926687323194,101.62136606587774C115.23201399587924,101.63253389725082,115.33997047991579,101.67497165646637,115.43990542953543,101.75538004234977C115.72322156875816,101.9816403059599,115.20015067860913,104.15847399712015,114.27767422058514,106.59183277491024C113.35497494216088,109.02530323101428,111.23539588250969,115.37075333864937,109.56758518485185,120.69133156121507C107.89977448719219,126.0129148886042,105.99354596100966,131.59225176407426,105.33165796135654,133.09130976922756C104.6699927821046,134.59025609606692,103.611818700183,135.95440669823802,102.98090273619891,136.1228175953379C102.15568738298953,136.3426005167521,102.02355488549892,136.06251130592523,102.50941476876505,135.12519521881723C102.88119060698045,134.40855547963315,103.50063132033938,132.5586042127511,103.88599920298475,131.01487488210773C104.2715899060313,129.47114555146368,105.72660712122251,125.11736649083014,107.1190118038785,121.34007088565318C108.51130507633206,117.56199353228044,110.30033007185921,112.10561448022327,111.09468479960196,109.21325783301586C112.35818788057259,104.61121788096762,114.02377037422775,101.52420593293505,115.11926687323194,101.62136606587774ZZM32.887620893208805,101.68613948783923C33.893877821817114,101.68613948783923,35.40014372912265,105.57946886097784,35.78216930576036,109.1675814027019C36.01379111206825,111.34229320590089,35.795538529790065,111.53706018504045,31.708232513422445,112.79489303254377C26.044360753395267,114.53841486644455,25.35606853628451,114.48190563969888,24.76425755258606,112.22499859759682C24.49029987018548,111.17957790280161,23.899714398688957,109.02083609846522,23.452068214106475,107.42696320495816C23.004310619325224,105.83320198976526,22.82349186432839,104.64449801845831,22.76990355801172,104.46447257673094C22.419407068041437,103.2937488139346,31.3960611323364,101.68613948783923,32.887620893208805,101.68613948783923ZZM157.09239135412372,102.37809831968957C159.29296562935178,102.37809831968957,159.47434143534974,102.99445093314694,158.56657112375797,107.38854586503635C158.27189114411158,108.81423121807097,157.59585404902828,109.97010176514186,157.06420457346212,109.95871057714135C156.2206065372102,109.94084204694514,153.30377608461094,108.84002890854163,152.2910573643885,108.15767441167145C152.09809489756663,108.0277925328071,152.6428907767604,106.6738046571852,153.50219765124712,105.14928399650262C154.68180885143465,103.05654407557881,155.56072392116403,102.37809831968912,157.09239135412372,102.37809831968957ZZM110.32082954870293,103.03755876224545C110.59489864130592,103.03834051044146,110.74686215443762,103.07999652146145,110.74686215443762,103.16788735436444C110.74686215443762,103.51822222452506,110.20485153024856,104.84272702532303,109.54229506939464,106.11150434757178C108.59742516112237,107.92102806488492,107.4707338060507,108.65486626438269,104.31782513913276,109.51389585356833C99.89472877922708,110.71957492856131,99.09614046387469,110.30424327981177,99.66477812592257,107.09304504691545C99.89227775482141,105.80818604749015,101.02676782391063,105.19306189548365,105.34825808119331,104.00960680492244C107.57523657387901,103.40252349150433,109.49828804029858,103.03521351765744,110.32082954870293,103.03755876224545ZZM74.25055170736232,103.96415373123523C74.53331079558302,103.97532156260809,74.86587024331129,104.03562785202007,75.27151478240285,104.11759973429571C76.49000814247574,104.36217524135714,77.61513975474554,104.66448843661533,77.77189390648891,104.79068493112618C77.92909369903282,104.91598799912754,77.09006348099138,107.16418413275915,75.90766702579822,109.7869493306298C71.68076402852421,119.16089194990468,71.94903979071205,121.02279279635536,81.05147597108407,145.47520630006238C84.22198744964044,153.99246457473987,88.26662335931542,167.48007788013592,88.28021540374539,169.58264549266778C88.28021540374539,170.24802488585124,87.73241144914209,170.7920099520136,87.05381191945344,170.7920099520136C85.03661883382847,170.7920099520136,83.2078203968158,168.84646204858154,82.64920965279089,166.10531783816032C80.72214741916287,156.64783984021824,75.64017113501177,139.3528894632525,72.24917887017182,130.7103281205741C68.77953100395825,121.86775091801087,68.70756001460086,119.7951130935578,71.50707552634412,109.4171824338805C72.73670990644132,104.85925541575443,73.02526232507444,103.92216268527386,74.25055170736232,103.96415373123523ZZM79.31492517987499,105.32216202615132C79.97391651432008,105.36013265281849,82.54559816656183,105.77713947627376,85.53384255751916,106.33854635937769C91.23102596741865,107.40775453499646,91.74340147834391,107.64964976252872,91.74340147834391,109.26496489227088L91.74340147834391,109.26552328383968C91.74340147834391,111.00279113217175,91.65093101214006,111.02680196962274,84.78238075687023,111.07247839993693L77.82191708639857,111.11826650856506L78.40225281947278,108.30341461108446C78.72166586357343,106.75477143463695,79.05912736011305,105.41708859281903,79.15371462012081,105.33031454305296C79.1648556401451,105.3191467116801,79.2205607402675,105.31691314540558,79.31492517987499,105.32216202615132ZZM96.3934404161464,106.52437907341891C97.41362361978463,106.52437907341891,97.78996727620961,107.17646874726893,97.78996727620961,108.94355470536607C97.78996727620961,110.27386677847812,97.40114567735691,111.36206026743025,96.92609258351331,111.36206026743025C96.45070525907067,111.36206026743025,96.06288635202145,110.97364309228897,96.05040840959191,110.49834018906836C96.03926738956761,110.02303728584752,95.80441468745357,108.93462044026751,95.51786765242468,108.07927623543515C95.13506220438467,106.93669540769793,95.36679542089314,106.52437907341891,96.3934404161464,106.52437907341891ZZM144.91759608161192,107.05942987448338C145.02789217985446,107.04826204311053,144.97775758974421,107.33706216240785,144.79036563293266,107.90595149253136C144.47786002124667,108.855998907404,143.71904514738253,110.56624060381387,143.103949431832,111.70658786527724C142.25533793657087,113.27980027074454,141.97625538495868,113.44664767145241,141.95118808990264,112.3978766272453C141.9322483558608,111.63801738064899,142.69095181952616,109.92710561435683,143.6376042910033,108.59668186293129C144.36589277000076,107.57326179593997,144.775213845699,107.07137945405248,144.91759608161192,107.05942987448338ZZM128.06379521923373,107.99964959774798C128.47567872953732,107.97843071814032,129.0562372830109,108.03762022441515,129.85928200637318,108.16605028520053C131.34393433483,108.4033667018698,134.3236001403675,108.59779864606776,136.48128148850265,108.59779864606776C138.63907424683748,108.59779864606776,140.24293548955575,108.71081709955911,140.0450709739216,108.84784639050167C139.84709504808689,108.98521071638538,136.8667607813477,109.29768663819254,133.42240303059134,109.54282053682255C127.97845500584663,109.93101435533663,127.1593672136496,109.84223009592347,127.1593672136496,108.86202953634506C127.1593672136496,108.3029678978296,127.37739697552752,108.03683847621915,128.06379521923373,107.99964959774798ZZM56.71402913788643,108.35478663539902C57.167468652882235,108.30453139422207,58.055073718228414,108.5704374592051,59.565907443744436,109.17595727623097C61.34746795585306,109.88991673588521,63.874585527997624,110.6794824139331,65.18098153606297,110.9307586198181C66.48760036453041,111.18225818233032,67.55613559507492,111.69262807606151,67.55613559507492,112.06518693065368C67.55613559507492,112.43785746355957,67.45809461885983,112.69549933332723,67.34011121680123,112.63619814873823C67.22134794333942,112.57700864246317,64.69489883239748,111.88873519496565,61.72548276528141,111.10709867719265C58.75606669816625,110.32568551604709,56.3268786920371,109.27892468148707,56.3268786920371,108.78195618540371C56.3268786920371,108.5287814481851,56.44218824928976,108.38505145841918,56.71402913788643,108.35478663539902ZZM147.52804848353935,108.7677730395601C147.757664906243,108.75660520818724,147.91920969659805,109.04227833470054,148.1911619953953,109.60949249011833C148.52483554512582,110.30524838463543,149.30247874283305,110.65089276561912,150.0302101708303,110.42764781647952C151.99793712754763,109.82346813921822,152.46140356056367,111.20604566315455,150.56330797899864,112.01850539551583C146.43121506213356,113.78849498976956,143.9752886079441,112.38447522959791,146.45639376738836,109.66968710121682C147.00063259558192,109.07388329748505,147.2984320608357,108.775702199835,147.52804848353935,108.7677730395601ZZM117.92446430518794,109.33755579619378C119.74925197499033,109.38446068795884,119.75482248500157,109.4067963507041,118.08923999134822,109.97992945674969C115.71152349773183,110.79719135660139,114.86681135947765,110.79719135660139,115.49817296426409,109.97992945674969C115.79173884190823,109.59988815513816,116.88355880430208,109.31242817560565,117.92446430518794,109.33755579619378ZZM107.53145236518321,110.01533148220119C107.94433856728938,110.01533148220119,108.06120786734573,110.23410929879174,107.72330073000558,110.67132989703146C107.42984626256111,111.0518179118983,106.53243709959224,111.36284201562694,105.7290581456291,111.35145082762665C104.47012288286714,111.34028299625379,104.44772943261887,111.24870677899798,105.564282459467,110.67132989703146C106.41010869972342,110.23410929879128,107.11867757327855,110.01533148220119,107.53145236518321,110.01533148220119ZZM50.71225024051819,110.02649931357405C51.18730333435997,110.04101749435836,49.82665055877624,110.61392724377606,47.68868881608432,111.29885034186168C42.96679029912411,112.81030463983825,38.37279069204487,113.74482876910292,39.29704971327192,113.00596504548753C40.04271818350844,112.40915613693232,49.33989939390722,109.98428491098525,50.71225024051819,110.02649931357405ZZM129.26713679207387,110.6694313656983C131.07877805824864,110.6694313656983,131.41189455697895,111.03339099013328,131.642290851084,113.26081495741187C131.79113487861196,114.69878492495627,132.29526603471732,115.69830583280987,132.77444130596814,115.50644248982758C133.24994004061227,115.3167010348061,133.510862729584,114.15055608287184,133.35477703904144,112.91505889811401C133.08249050964423,110.75732219860129,133.19234096708624,110.6694313656983,136.1616456240008,110.6694313656983C139.52623367138312,110.6694313656983,139.96396434814233,111.42906725566672,138.2908059608717,114.36676529824672C137.6956526711656,115.41218599304193,136.33667104858523,116.21504139042327,134.72768493665535,116.4727949385042C133.2970665553148,116.70162380333022,131.00914668309633,116.8885733005086,129.64325762809858,116.8885733005086C127.27556805250333,116.8885733005086,127.1593672136496,116.74383820591856,127.1593672136496,113.77922568973077C127.1593672136496,110.94315491264251,127.34542224805682,110.6694313656983,129.26713679207387,110.6694313656983ZZM122.92288293915317,110.83583205315085C123.18124319352137,110.824664221778,123.35192362029557,110.84811666766086,123.41019115502331,110.89502155942591C123.64303847353312,111.08185937829057,123.56360300075903,112.67495052360141,123.2336059876352,114.4355591395024C122.70184510186846,117.2715182382774,122.24795994607302,117.79406106820443,119.25258530230076,119.01660356856996C115.8156920349602,120.41917151066309,111.58667224388046,121.82006427805027,111.6413746522012,121.53729478769424C111.65808618223673,121.4513024861244,112.37757325541679,119.36168955798507,113.24022243590844,116.89304043305697C114.8004108801315,112.42780641532363,114.82948894239598,112.39910508869639,118.89718676352095,111.48032760166689C120.58393719522246,111.09861112534895,122.14791358625371,110.85526407973907,122.92288293915317,110.83583205315085ZZM57.324334214825285,111.4268336893922C58.24926169725586,111.39221341213715,59.98280441305906,111.93128463249582,62.92492498111369,113.02718392509541L67.36306171805154,114.68058135981869L66.91519271306788,117.86073302149907C66.63989810826479,119.81521519002968,67.03584995993333,122.66245379849033,67.94217193892109,125.24668997812569C68.75334960690179,127.55932449877741,69.28945549047785,129.52944163122925,69.13437249173876,129.6230280581326C68.97895526239608,129.7179546248003,67.88000504718548,129.56495533499447,66.69226090237862,129.2845310892269C65.50451675757358,129.00433020008677,63.336919901617875,128.74233287608422,61.874883843809585,128.70581406749534L59.21685928637817,128.63769029612195L58.12704470758581,121.90002595067858C57.5275464200713,118.19386943134577,56.82867023393737,114.30657068714822,56.5739865161795,113.26114999235301C56.28331730374157,112.06775553187003,56.39940673239653,111.46123061002072,57.324334214825285,111.4268336893922ZZM153.84990888620996,111.51059242468705C154.01746982737677,111.52287703919706,154.21410883080898,111.56308123213876,154.4401601271038,111.63209843002164C155.19162192775366,111.86271414786688,156.16378733508554,112.05212056794767,156.59995826904378,112.05212056794767C157.03635202340047,112.05212056794767,157.3931988947843,112.9850812008201,157.3931988947843,114.12554014059674C157.3931988947843,116.61697164152497,156.6102080074652,116.71882226364346,154.58555043842352,114.49184500962019C152.93578819320282,112.67640234167993,152.67720511843618,111.4234833399803,153.84990888620996,111.51059242468705ZZM50.69999511849073,112.35119509210767C52.269876250135894,112.35119509210767,52.67095297101514,114.31505823899079,53.40637170282935,122.68423106966702C53.93891245999748,128.74601826043659,53.87106364805004,129.13879088981298,52.23299947385385,129.4814199563266C50.71035626711455,129.80037322033013,50.433279099106585,129.42781436573796,49.9967739345484,126.4795068833539C49.72281625214691,124.6279921200794,48.85548784324419,121.06266195435614,48.06948888052011,118.55548381119229C46.6008796208971,113.87057855035869,46.80253208334034,113.21558524035186,49.95142998304891,112.45673109857944C50.22783868985516,112.39084089348057,50.47561497519837,112.35063670053933,50.69999511849073,112.35119509210767ZZM84.40046659043219,112.74352100822921C88.43875211869272,112.74352100822921,91.74340147834391,113.02081826121275,91.74340147834391,113.36043201325538C91.74340147834391,113.69971073035708,88.43875211869272,114.01442021843854,84.40046659043219,114.06009664875273C79.95274857627373,114.11035188992969,77.0580887535234,113.86689316600587,77.0580887535234,113.44296228709914C77.0580887535234,113.02573210701644,80.02070879842358,112.74352100822921,84.40046659043219,112.74352100822921ZZM106.89708268499089,112.95872511878065C106.95613009112094,112.95872511878065,106.99623776320914,112.96989295015351,107.01294929324467,112.98217756466329C107.14563884173549,113.0882719627034,106.27719633083143,116.09476384653908,105.08343603521098,119.66322100504703C103.88967573959235,123.2323482334375,102.78036437575793,126.2591655703709,102.61770548340155,126.38904744923502C101.99013182542512,126.89126482606412,101.2993885839096,124.33673507788012,100.7487993743016,119.4750430464178L100.17492543284243,114.409091379149L103.47333582127885,113.59908856968946C105.06081976456153,113.20955461141057,106.47851456267199,112.94789232234962,106.89708268499089,112.95872511878065ZZM37.12388234730315,113.2342355187443C38.568427003672696,113.28337397678388,37.058150329159616,114.30299698110844,32.83748630309856,115.44334424257136C26.45301336789089,117.1684391547069,26.412794285602104,117.17078439929537,25.780541399215508,115.85264526237961C25.427148244040836,115.11568007009714,25.860756743391903,114.81627051099622,27.2788971823029,114.81627051099622C28.376176244510134,114.81627051099622,31.085338083855277,114.37971998263902,33.29950440351331,113.84712610447627C35.200051009482195,113.38946837482467,36.467342037263734,113.21156482105766,37.12388234730315,113.2342355187443ZZM44.45211108878175,114.12554014059674C45.21504814005584,114.12554014059674,47.69815868310434,123.22095704543722,47.91652267558311,126.81454182453353L48.1206261624302,130.17393717974528L40.77824832552142,132.4716068063576C37.91177528343178,133.3684953438967,35.260880978815294,134.14086256163023,33.749601612498736,134.53318847775176C33.42172139318063,133.7078857393119,32.83035605028272,132.98119495189235,31.921248816288426,132.54062400424073C31.64807100528924,132.40817352416116,31.437505726827112,132.32676003345432,31.194520080093753,132.22144738360976C31.024730934921536,131.80053181917378,30.844580641125503,131.33349311116922,30.659639708720533,130.84579391512466C34.32124734995341,129.71661448503437,35.74462406827661,126.49022800147145,31.838916678307214,125.2596446625173C28.75742194974646,124.28871340297769,30.223580184963794,124.30702864642876,30.95086597215868,123.00619964814064C32.10819513229853,120.93624210321673,29.965219930596504,120.09787300207063,27.001708604095256,119.15899341857084C26.978312462043505,118.99516133233419,26.957144523997158,118.83937008468524,26.957144523997158,118.73372239989999C26.957144523997158,118.3903115851906,43.147052003119825,114.12554014059674,44.45211108878175,114.12554014059674ZZM147.03193886185,114.12554014059674C149.04044195185634,114.12554014059674,150.75248249901415,114.60073136550363,151.67206229183103,115.41319109786491C153.06535825608717,116.64477954164272,152.98625701391393,116.72083247329056,149.8624264092614,117.13393055576557C148.0656026997176,117.3711352941209,145.53469718076576,117.56199353227998,144.23843950092123,117.57338472028027C142.03708535429178,117.58455255165313,141.94662027169215,117.46617353910256,142.86553160330914,115.85264526237961C143.65598697404312,114.46470717938473,144.47552040704068,114.12554014059674,147.03193886185,114.12554014059674ZZM96.88308824621981,115.22210950307908C97.30666982754883,115.4017999098653,98.02660254152943,118.27807487989526,98.54142907685764,121.92035140377698C99.090124313062,125.80374140699405,99.76515871634365,129.94723020288075,100.04078755174851,131.1302385801871C100.45189119065071,132.89497929369554,100.22751104735835,133.34426114981807,98.78385767258987,133.64601595350746C97.81715136506955,133.85027558931324,96.80933469365755,133.84245810735297,96.54417841707618,133.63038098958555C95.754391507543,132.9983934122065,95.99804561547717,115.6211361180242,96.88308824621981,115.22210950307908ZC96.82816301749972,115.2107183150788,96.85490146555821,115.2107183150788,96.88308824621981,115.22210950307908ZZM91.65215652434199,115.5070008813957L91.91352485411517,125.18359173086947L91.91352485411517,125.18359173086947C92.13690230560587,133.45247743581876,91.98594148427583,134.84465929473527,90.87952678564761,134.75554000038142C90.16683573468254,134.69858406038088,87.18003967633013,134.18140178951285,84.2421526958833,133.60659350876153L78.90003359416187,132.5618428838486L77.05218401290767,127.083016490732C75.8238865552139,123.43884143551736,75.39005523546075,120.7270686216068,75.75815453706855,118.98388182264739C76.2587205667678,116.6132862571717,76.61389628514644,116.32359271136465,79.49195598806182,115.94299301818387C81.24143036249916,115.71148387382846,84.69347541707339,115.52609787304209,87.16265968509106,115.51470668504226ZM132.12659099154644,117.59102989384905C135.65216677828175,117.60219772522214,136.71691406201717,117.79618295616501,135.79744567939997,118.27182089432654C134.08651923424713,119.15631313904169,127.15936721364778,119.15631313904169,127.15936721364778,118.27182089432654C127.15936721364778,117.88976938306791,129.38233493912594,117.57963870584877,132.12659099154644,117.59102989384905ZZM156.53099535509227,118.6169068837421L156.53099535509227,121.45777982832101C156.5301040734903,121.60731709040078,156.51985433506707,121.75450910789255,156.51985433506707,121.90326462177677C152.289720441986,124.93689433584746,151.18141176995414,128.01687055011507,154.15940642248825,128.79772531969206C155.6996524408678,129.20133074549994,155.78287586045008,129.421560380169,154.7073217872894,130.2495433981387C154.53909238492088,130.37886688543426,154.37219990495578,130.53800848249466,154.2124376778038,130.71133322539868L150.4151324126724,130.71133322539868C147.65706149542075,130.71133322539868,145.23923732971707,130.47814890633754,145.042264095684,130.19292249307955C144.84540227185244,129.90803111476293,145.07680125776096,127.28917465787254,145.55541947801066,124.37425899129312L146.42687006432243,119.07467629170833L151.47898841480674,118.8458474268823ZM142.98095257076238,118.96255126472602C144.54793703719952,118.96255126472602,144.63160609758324,119.29747452759239,144.10017944241918,123.44576549096905C143.7845543451249,125.91151097973989,143.3006998454639,128.3992570963153,143.02495959985936,128.97473544694867C142.49130474068807,130.08682809503898,140.50385817852657,130.38858289872837,139.79083289696246,129.46556163577725C139.55520032344612,129.16079151761733,139.79083289696246,126.67293372272866,140.32515621733546,123.93770846293523C141.1412359341266,119.71917184022436,141.54476367941152,118.96255126472602,142.98095257076238,118.96255126472602ZZM127.15936721364778,120.34468207540704L131.9865483698395,120.34468207540704L136.8131724750292,120.34468207540704L136.21645944252032,123.28171004810451C135.88813358239895,124.89736021278804,135.36818217785913,126.43606401931424,135.06069002518416,126.70185840598333C134.75342069291037,126.96720607939801,132.84997742173437,127.3960508041082,130.83077895250426,127.65402770881724L127.15936721364778,128.123523339724L127.15936721364778,124.23376767262425ZM122.37028834594093,121.72681288608828C123.39359103518655,121.72681288608828,122.80534517789602,127.99766188015383,121.76076314040347,128.22492724858762C121.16672395270052,128.35469744913803,118.34882575791744,129.03950886891016,115.49817296426227,129.74743769962333C112.64752017060891,130.45547820865022,109.87563438852703,131.13303053802974,109.338637223349,131.25341976022742C108.66973038108154,131.40262198736627,108.77646135291616,130.28204178743295,109.67643295048947,127.69590707646444L110.98984780117098,123.91939321948348L116.44493684593908,122.82338224856994C119.44499071812243,122.22054271107345,122.1115938609737,121.7268128860876,122.37028834594093,121.72681288608828ZZM131.14261610298672,129.3539950003642C134.47088442508993,129.33054255448133,134.66830329992263,129.43775373565904,134.28159849487565,131.0564192148131L134.28159849487565,131.0564192148131C133.77022567575295,133.19438885279646,133.41571841857512,133.196622419071,130.18281722788197,131.07652131128407L127.59130455999639,129.3765540197369ZM121.26231390450994,130.01122187664555C121.74739391637468,130.0223897080184,121.97667610847748,130.12893081931315,121.97667610847748,130.3415663286487C121.97667610847748,130.78827958355555,118.6726952100289,131.94627201858725,114.63440968176837,132.9146346769112C110.59623556370752,133.8835557268037,107.2919204346581,134.39928617959345,107.2919204346581,134.06078921068774C107.2919204346581,133.3352152064058,109.25975880157603,132.6559877023201,116.57796062503257,130.85707342481123C118.93406353980208,130.27746297656995,120.4536986711355,129.99983068864503,121.26231390450994,130.01122187664555ZZM60.86171948278752,130.03020718997868C63.211026375342044,130.05365963586155,69.64630236185985,131.9250531389789,69.95947643474756,132.6765365120457C70.14218916314894,133.115655641619,69.97061745477185,133.41741044530818,69.57154611749684,133.34660639440563C69.17570567602888,133.27736583989508,66.81146981664097,133.10437613193267,64.31710684336849,132.96500159640163C60.50732363580937,132.75203105212472,59.781820411817534,132.49606435706346,59.781820411817534,131.36520975226745C59.781820411817534,130.62511756720096,60.267680295084574,130.01881600197908,60.86171948278752,130.03020718997868ZZM54.1465810732534,130.77945699677093C55.97292848586039,130.73590245441733,52.49938126263987,132.15957759780508,43.09691741300958,134.77832237638154C38.09638198523771,136.1711743051801,35.446601782624384,136.91606865773747,33.96328637656916,137.25177366879984C34.06801196479955,136.74598258593142,34.09463900265837,136.2061296173772,34.03013249671676,135.67018538980278C35.53495007141737,135.08889976685532,37.81930481722975,134.38085925782843,40.560998435044894,133.6751639933898C48.09834412238342,131.7362051104676,52.72532114873502,130.81363056077134,54.1465810732534,130.77945699677093ZZM140.56647071106454,131.4017285608561L142.74320320344032,131.4017285608561L140.98069383557413,134.16599018221837C138.84351196428452,137.51779141209659,137.07688041900838,137.85863362559053,137.84884169650286,134.77061657273453C138.14597270055492,133.58258267131055,138.38906975748705,132.33882129133667,138.38906975748705,132.00646662968575C138.38906975748705,131.67377693309413,139.36892246863863,131.4017285608561,140.56647071106454,131.4017285608561ZZM144.76284731347187,131.4017285608561C146.3751757314094,131.4017285608561,149.618883711526,132.91184271906786,149.618883711526,133.66287937887978C149.618883711526,134.1649850773947,148.12632125885284,135.74277629372523,146.30220205025034,137.16734486362225C143.4497666933912,139.39555057909638,142.83656495124524,139.6142167173732,141.91999323383607,138.7310646124231C141.06157764095224,137.90341662939454,141.19348731804166,137.0899517922096,142.59658737991958,134.55239714771255C143.55471510202278,132.81970811024348,144.52944294396002,131.4017285608561,144.76284731347187,131.4017285608561ZZM126.72742986730191,131.44863345262138L129.94038863215064,133.67080853915422C132.88184073900447,135.70569909356755,133.09842216827928,136.09836004463045,132.50137490516863,138.31260597088885C131.93897621433553,140.39976197612646,131.46748824690076,140.76137635597343,129.0664870214332,140.9482141748383C125.6224635012768,141.21680051935073,125.23787549003282,140.5016125982454,126.07768557947566,135.39914212238796ZM152.94013319101396,132.17956801596233C153.0392882692322,132.17956801596233,153.14724475326875,132.19520297988424,153.25564687810675,132.21642185949213C153.2211097160298,132.31246520929676,153.1943712679713,132.40627499282755,153.17543153393035,132.4942775040438C153.11972643380705,132.76487405820353,152.9294378117902,133.12202130550145,152.69113139346882,133.49480351672105C152.32670862846862,133.08181711255975,152.17129139912686,132.5858537212996,152.4981689266442,132.32441478886585C152.61414694509858,132.23172178847267,152.76722456023344,132.18649207141334,152.94013319101396,132.17956801596233ZZM53.55109355294644,133.31567150150363C55.000094617325885,133.1999727684829,55.321958685832215,134.81026237410742,56.006240135733606,141.25086240503765L56.57521202838325,146.60695433136812L51.91926834996684,150.58002202050784C49.35839348714762,152.76433815868768,47.06713130892058,154.60133474117765,46.82782219879482,154.65963082094254C45.57568295824785,154.96786296682808,40.77635435211869,153.35790839614492,40.7888322945455,152.6327811051176C40.84787970067373,148.19032946338484,48.95130061545569,134.87235551653907,52.34942313310967,133.63361966068305C52.82224802294695,133.46141170091664,53.21675154201239,133.34247429679795,53.55109355294644,133.31567150150363ZZM121.38174563917255,133.4791685527996C122.15526665946982,133.4791685527996,121.2366895584546,139.7846378241204,120.36367922933823,140.46978427883346C119.12123267621246,141.44462427935332,115.06935510352196,141.78691831092578,115.05687716109514,140.91761431687723C115.05687716109514,140.43527567989167,114.81132907975643,138.89858208301325,114.52311089172508,137.50383162288085C114.0124065338041,135.0330606099924,114.08549162516374,134.9478500566188,117.33944934370265,134.2254030451213C119.17693777633576,133.81688377350906,120.99615493612691,133.4791685527996,121.38174563917255,133.4791685527996ZZM60.37964754632958,133.54505875789846C60.7185573754723,133.52719022770225,61.25856261605804,133.60871539672257,62.06216439042055,133.76394825280272C71.06310587837015,135.50512484211504,70.90780005922898,135.4299653369767,71.90079917400726,138.50547441869548C72.41852237454441,140.10984507369267,73.00487425842948,141.88832221978987,73.20363005566651,142.45832833305053C73.46923197304932,143.21986275435256,71.98825618120009,143.87921151859496,67.626101200829,144.94171899539015L61.687269066598674,146.3887349063466L61.11283807413838,141.14108262264472C60.79676733604538,138.25486828269277,60.324833727809164,135.3067841569366,60.06435667963797,134.58969770449767C59.80766757827587,133.88333237017628,59.81490924129139,133.5754352592321,60.37964754632958,133.54505875789846ZZM79.95575665167962,134.48952225708467C80.61107144951802,134.45936911237845,82.73722371098302,134.89558460579497,85.08775611574129,135.55660854474309C87.77419027423457,136.31188898047662,90.56523861075766,136.92980509032623,91.28962773274725,136.92980509032623C92.01423967513801,136.92980509032623,92.60660770983668,137.39650876338987,92.60660770983668,137.96629152002333C92.60660770983668,138.53652098991188,92.5085667336225,138.96704088932802,92.39069474176358,138.92482648673922C92.27193146830268,138.88127194438562,89.68097585141732,138.26972149841845,86.63245854212983,137.56514301711695C81.28198367538971,136.32919911910403,78.85970310167522,135.25842744709257,79.76858751526925,134.5314016247321C79.7986682693354,134.50794917884946,79.86217208347443,134.49343099806492,79.95575665167962,134.48952225708467ZZM98.29365279151534,135.5471158880764C99.04600587376626,135.5471158880764,99.50746692317807,135.91688278482525,99.31940650516663,136.36828652890836C98.78552882559416,137.6502418921766,96.92609258351513,137.86254236657123,96.92609258351513,136.64201007585257C96.92609258351513,136.0401756431795,97.54152252966469,135.5471158880764,98.29365279151534,135.5471158880764ZZM111.23528447231092,135.5471158880764C113.19354156200734,135.5471158880764,112.94052899725284,141.49867658319772,110.96288653271222,141.9538773899476C110.13154361848865,142.14484730641993,108.83350337544107,142.50646168626713,108.07814221778335,142.75673278732847C105.98195930018483,143.45237700353164,104.44940058562133,141.48985399641333,105.13579882932754,138.98982326532814C105.70276533837023,136.92477956620837,108.1429829543249,135.5471158880764,111.23528447231092,135.5471158880764ZZM45.89921817975846,135.69810496823493C46.45872020538536,135.66906860666631,45.912587403787256,137.03221410401352,44.388050223642495,139.44993791788215C42.96701311952347,141.70126104429778,40.95260528890503,145.7870121519877,39.91158837782132,148.5293848238598C38.8704600565361,151.27186917404538,37.715470510602245,153.51570985344142,37.34514300498813,153.51570985344142C36.460991655849284,153.51570985344142,32.73064392106426,140.56973636961948,33.282904283676544,139.4181095984702C33.51742275519064,138.9299636891708,36.153610913374905,137.98114473574924,39.14174389413165,137.310404783507C42.1297654646869,136.6391064396962,45.11344203743283,135.92514698004152,45.7726561922791,135.7228975538826C45.819448476382604,135.7083793730983,45.8617843524753,135.70056189113734,45.89921817975846,135.69810496823493ZZM150.1466338300852,136.35823548067333C149.88025204129917,136.87206740212946,150.05861977189124,137.31219163652668,150.6274802543394,137.99867823100408C151.07690900212492,138.54132315740208,151.92217819138023,139.10585703329002,152.7482848261925,139.4598772878037C152.18967408216668,139.85365502200398,151.5387042821385,140.19550234032113,150.94589060663748,140.37597449530335C149.83312552659663,140.71447146420883,148.66788624223955,141.32121974268557,148.3559376815556,141.72504852512134C148.04432335147158,142.1282072376746,147.25208541753273,142.45832833305053,146.59532228709213,142.45832833305053C143.97261476313815,142.45832833305053,144.3901801936545,140.78795579464077,147.66920520724852,138.16452052688805C148.74932709861878,137.30046541358456,149.51972863330957,136.72398195812752,150.1466338300852,136.35823548067333ZZM103.0055243904535,136.84839159961984C103.1124781826893,136.84839159961984,103.21653530971707,136.8952964913849,103.31680448993757,136.9758165555818C103.52179925838573,137.14020703338724,102.55509295086449,139.89374753663174,101.16825877822339,143.09411297309703C98.42723362160814,149.4210244806536,97.78996727620961,150.37375217505564,97.78996727620961,148.1429778583656C97.78996727620961,147.3416859573765,98.15205042700472,146.5070022405837,98.59490597297554,146.28844778062034C99.03776151894817,146.06922325077494,99.87668032678812,144.10748199185218,100.45913285366623,141.92852641273157C101.34562381701198,138.6129089565011,102.25495387140654,136.8146647488743,103.0055243904535,136.84839159961984ZZM137.79413928818212,138.3119359010077C138.24679893177563,138.3119359010077,138.32768273715283,139.71740747925764,137.9842050897987,141.5947199330028C137.39373102850368,144.81887285029188,136.5460108148436,146.28197043842442,135.6726662551282,145.58353426437793C134.96565712437587,145.01743689209775,136.92190883046896,138.3119359010077,137.79413928818212,138.3119359010077ZZM81.91122848637133,138.44293456300898C83.25739793592402,138.31953002634123,90.41037843241975,140.29344422146005,91.95285265480379,141.27029443162678C92.91554819511475,141.87972298963336,93.39851141317558,143.87988158847747,93.70065587623685,148.50515062978138L94.11788707615233,154.8978406641229L90.93077547776011,154.8978406641229L87.7435524691673,154.8978406641229L84.52992524311594,146.85934732039163C82.76251382643841,142.43844959320813,81.4994563862665,138.6748904206197,81.72294524795689,138.49598176202926C81.75748241003384,138.46806218359757,81.82098622417288,138.45131043653873,81.91122848637133,138.44293456300898ZZM140.60880658715905,140.0999057037718L142.52249959675646,142.2494898863822C143.57488034826656,143.43216322874787,144.43518991455312,144.81820278040914,144.4227119721254,145.3292427440224C144.39708762607006,147.19471729651264,143.23117988051126,147.83240046789183,141.19671821384873,147.09655205874697C139.2064863966816,146.3766736484647,138.89977411540804,145.00068514503891,140.01677278305942,141.79708103747566ZM6.561167755047791,140.1557448606352C7.188630002823629,140.19483227043952,9.621271725161932,142.54588413101305,14.311306924852033,147.23793680392532C21.62516375049927,154.55465320604094,28.381301113722657,157.77690759199686,34.27924570446339,159.18483609314853C35.65170796127495,163.83266415382445,35.922323337667876,165.06023217830807,36.84635953849556,168.13574126002686C26.078897915471316,165.78234415486486,14.933087252416954,156.22547245770602,9.639988638802606,146.95181696415784C7.111088503454994,142.39199141469817,5.933594097070454,140.1172158423999,6.561167755047791,140.1557448606352ZZM152.46240625236533,141.84231075453545C153.10613438937798,141.80210656159375,153.16328782210348,142.42482483893377,152.78304480866973,144.26539512746263C152.47833791100038,145.7417824349293,152.23245559906172,147.65002978157645,152.2198662464334,148.5049272731544C152.2198662464334,149.36015979967328,151.89365718011686,150.05993611348458,151.5067295546687,150.05993611348458C150.23498211887818,150.05993611348458,150.85119193643004,142.2444643622655,152.15045769168137,141.89814991139906C152.26688135093627,141.8668799835557,152.37038142696292,141.84789467022188,152.46240625236533,141.84231075453545ZZM127.32581405281508,142.61255608430815C127.54830022270198,142.61255608430815,127.79808189165124,142.62819104823006,128.0802839288699,142.64717636156342C130.8781282876098,142.82843026474166,130.95165901976907,142.9637843809785,130.19585222131172,146.54329769254514C129.74597783272475,148.6730031353129,129.19226913750936,149.29348784637773,127.51008652401924,149.5505713245766C124.76716739400126,149.9700350709336,124.46435446973646,149.47798042065415,125.11900080637315,145.65556677673158C125.56196776254365,143.07010213564604,125.7687450941985,142.5934590926604,127.32581405281508,142.61255608430815ZZM119.39452189741223,142.8226229924278C120.29906131319785,142.80587124536896,120.26719799592684,143.49146441333664,120.07590668210742,146.13008793175663C119.87793075627269,148.86274459033416,119.4667157071708,149.75471928206935,118.32520679546724,149.92837905991428C117.17712468194804,150.10270890764173,116.70418838191017,149.5102554533214,116.27381077836617,147.35709756467145C115.54084307095764,143.69002845514274,115.59108907126756,143.57466475706337,118.1487330382788,143.02721766317495C118.68706712586027,142.91207732172302,119.09282307515059,142.82820690811423,119.39452189741223,142.8226229924278ZZM103.8724071585566,143.1493937383923C104.59245128273506,143.1493937383923,109.47489189824773,152.03385030860272,108.93733768206857,152.3651998654302C108.7449322662469,152.4841372695489,106.57198772067932,153.2575095921061,104.10837396267289,154.08471086187933C98.90819145606292,155.82990787048584,98.41965772799267,155.88999080327085,98.83388085250044,154.724739277847C101.09127432985315,148.37549210754491,103.36638202904578,143.1493937383923,103.8724071585566,143.1493937383923ZZM148.89326907733448,143.1493937383923C149.4868626242369,143.1493937383923,149.63503819056223,143.94688857671463,149.2946800288155,145.30847057767005C148.9977718451628,146.49639280078054,148.7550090188306,148.05117828448283,148.7550090188306,148.76402096100037C148.7550090188306,149.61545642485248,148.13868779107906,150.05993611348458,146.9584081296889,150.05993611348458C145.38407059003475,150.05993611348458,145.23656348491113,149.7827505388152,145.76498206467113,147.8143085810691C146.5488642335904,144.8922455024108,147.717780054556,143.14939373839275,148.89326907733448,143.1493937383923ZZM111.97504820193262,143.58471580529863C112.42135746411259,143.58471580529863,112.75246857923776,143.64055496216224,112.85062096565434,143.7676448831828C113.06196611551695,144.04136843012702,113.50259345748418,145.87948179575392,113.82980521560239,147.8531726342453C114.36379430537454,151.07341681055345,114.25806602534249,151.43961000126342,112.80171188774693,151.43961000126342C111.6799225814857,151.43961000126342,110.65829104524346,150.42456580780186,109.49227188948589,148.1569376475818C108.56489338265237,146.35333288089646,107.89219859357581,144.7212660040948,107.99703559200498,144.5309661575045C108.25639853817484,144.06258730973468,110.6357861847955,143.58158881251416,111.97504820193262,143.58471580529863ZZM73.29008437105495,146.83444305643093C74.16855379998287,146.82327522505807,74.63135177179811,147.70933096616545,75.33746962094665,150.43093147168452C75.89195818756343,152.56789600484421,76.2143793070718,154.4033290909415,76.05417143912018,154.51065195043316C75.89362934056771,154.61786313161065,74.15618726775574,154.90163772679034,72.19269389864894,155.14174610130226L68.62244262161403,155.57885502122826L67.6572960568974,152.5132853094317C66.33719659420058,148.3187595241718,66.37284785827796,148.19747687546464,69.06786060219201,147.68330991906714C70.37436802045795,147.43393224451552,72.0927589490293,147.0757798923944,72.88644521556944,146.8881603253335C73.03083283508658,146.85354004807823,73.16463648557874,146.8356715178818,73.29008437105495,146.83444305643093ZZM135.82507540906136,147.23324631474907C138.0414699327248,147.34626476824042,142.7084432209649,149.32207749469217,142.7084432209649,150.47761300682214C142.7084432209649,151.58211152957892,140.90404361780566,151.613493135736,136.87734475036996,150.5803570554508C134.05989219638832,149.85723997407058,133.51765875179808,149.06108527551328,134.7694637617451,147.4851925905166C134.93245688470233,147.27992784988714,135.31370258993957,147.20722526765098,135.82507540906136,147.23324631474907ZZM63.227292264577045,148.815281307001C63.29302428272058,148.81617473351048,63.363212708874926,148.82644913837385,63.436743441036015,148.84655123484413C64.71239023383532,149.1868350567695,66.20796076191618,153.80216472815073,65.51231547158932,155.25208427526445C64.69935524040557,156.94669100775286,63.48776931274824,156.4193460103354,62.91300408968709,154.12011288733083C62.101603601306124,150.87429437717924,62.23674417420261,148.80322004911795,63.227292264577045,148.815281307001ZZM56.4775052827672,149.4653607712039C56.88392969325923,149.50221461473348,56.29145024835816,150.4537138476851,54.509666915849266,152.3055636459003C52.139414905648664,154.76918724671077,51.193765125974096,156.97148359340008,54.913974532536486,154.08828456791935C57.750478230760564,151.99777821326984,57.35274381588715,151.1828615580066,58.33293075763868,154.73892242369106C58.665935846169305,155.94694674327252,58.19790159494187,156.54208047712154,56.29334422176362,157.3303060154044C53.187116428748595,158.61494165820204,53.537835739118236,158.66352172467327,51.13193246483934,156.61478305935793L49.09112041676235,154.87639842788872L52.45236615813701,152.12274624633028C54.66597542679301,150.30920210972295,56.07096946207548,149.42917699755685,56.4775052827672,149.4653607712039ZZM146.59532228709213,151.46272741220537C148.02059297881897,151.46272741220537,149.77006735325813,151.7645938942087,150.4827584042223,152.13335568613388C151.47698303120342,152.6474109642179,151.17528420894087,152.80297885523896,149.1869463651783,152.80297885523896C147.76167567345146,152.80297885523896,146.01197847861295,152.50167076480443,145.29939883784937,152.13335568613388C144.30528562106792,151.61907705142244,144.60720726373074,151.46272741220537,146.59532228709213,151.46272741220537ZZM134.79230285279573,152.16931610315396C135.72124110243385,152.16931610315396,136.92179742026747,152.49083796837294,138.00771264205014,153.14806484465453L138.00771264205014,153.14806484465453C139.57926492669958,154.09900568603734,139.481112540283,154.16400246462626,136.44540740402226,154.18455127435186C134.1297463919418,154.20018623827377,133.20637865231583,153.91116276234902,133.20637865231583,153.17040050740002C133.20637865231583,152.5088181768831,133.8634760133591,152.17523505378176,134.79230285279573,152.16931610315396ZZM126.35309159447934,153.51548649681513C127.7908402286339,153.51548649681513,128.08507456747975,153.88503003693654,127.86492801179702,155.41546964824693C127.66383260035582,156.8140171710461,127.04628586040053,157.37821601199312,125.52754201066818,157.54975390187678C123.73862842534345,157.75233836297707,123.53541622009652,157.56650564893584,124.00400752232599,156.16762309119576C124.30136134677832,155.27877539224528,124.54390135271024,154.31867692913715,124.55649070533764,154.0333388375659C124.56763172536193,153.7484474592493,125.37134490992594,153.51548649681558,126.35309159447934,153.51548649681513ZZM118.19630519378188,154.28763035792122C118.86788588085619,154.27646252654836,119.38505203039131,154.44699531160904,119.38505203039131,154.84981898922138C119.38505203039131,155.25599301624516,119.02865079980984,155.58834767789608,118.59236845565192,155.58834767789608C118.15597470129433,155.58834767789608,117.13088944884475,155.7936124185253,116.3143640912549,156.04433023284196C115.27290153936883,156.36417692335522,114.95036900966261,156.2099491720985,115.2322368162786,155.52647789209186C115.52869935913077,154.8064878034961,117.07685550172664,154.30203686039272,118.19630519378188,154.28763035792122ZZM133.5895183309567,155.48158320997322C134.08785615664965,155.51396992095397,134.92577227268885,156.17934931413743,135.18424393725581,156.9704784885771C135.5257162010048,158.0147824002354,135.2109823853134,158.35260929925812,133.89667625303082,158.35260929925812C132.66470225872763,158.35260929925812,132.31108628315178,158.033879391882,132.6820822499667,157.26006035606997C132.97052325839832,156.65844928002434,133.20637865231583,156.0366244291945,133.20637865231583,155.87737115382015C133.20637865231583,155.58276376220897,133.36290998365985,155.46684167256103,133.5895183309567,155.48158320997322ZZM105.1323451131193,155.50838600526754L102.97254697118024,156.56017236394518C100.57154574571177,157.72955598697695,97.79765458002657,158.05990043898078,99.12867224234742,157.01850016347976C99.5799949635375,156.66492662222095,101.11533893310661,156.1810244888436,102.54060962483345,155.94259128903695ZM112.5310965113531,155.58767760801334C114.12894160325959,155.58767760801334,113.29369933202543,156.76454367806514,111.13824618789658,157.5502006151321C108.42473935074304,158.53911208318164,107.2919204346581,158.56669662667196,107.2919204346581,157.64401039866243C107.2919204346581,156.9704784885771,110.81448814598662,155.58767760801334,112.5310965113531,155.58767760801334ZZM142.0175885692488,155.58767760801334C146.39912892446227,155.58767760801334,147.13009124826658,155.75910381958374,146.6876813430954,156.6813433343384C146.39924033466195,157.28250769712918,146.16327353054567,157.90433254795926,146.16327353054567,158.06291575345085C146.16327353054567,158.22205735051125,144.26528935918031,158.35193922937538,141.94517193909087,158.35193922937538C138.4533534430302,158.35193922937538,137.64908320746508,158.11417609945147,137.27507916524428,156.96980841869436C136.86029898973356,155.70091941813212,137.24834071718578,155.58767760801334,142.0175885692488,155.58767760801334ZZM149.618883711526,155.58767760801334C150.0938253951681,155.58767760801334,150.4827584042223,156.0542696027635,150.4827584042223,156.62416403771067C150.4827584042223,157.19428182928505,150.0938253951681,157.66109718066264,149.618883711526,157.66109718066264C149.14383061768422,157.66109718066264,148.7550090188306,157.19428182928505,148.7550090188306,156.62416403771067C148.7550090188306,156.0542696027635,149.14383061768422,155.58767760801334,149.618883711526,155.58767760801334ZZM39.69556399954672,155.62899858409196C41.55589152322864,155.6714363433082,44.37947163822355,156.10463652225394,46.78136414529399,156.8411550012811C51.13616605244897,158.17626924188312,53.15926387868785,160.41999824296568,54.92868067896961,165.8776057564737C56.64105545672555,171.15853817766651,54.65683979037294,170.3598148778933,51.7392294663714,164.59285843536236C49.06248799529931,159.30276839244425,45.75761581524603,156.96925002712555,40.94302401168352,156.96925002712555C39.483104747680045,156.96925002712555,38.04858700933255,156.65844928002434,37.75479831128905,156.27840797841282C37.384470805676756,155.79897297758453,38.24867972897209,155.59571844660172,39.69556399954672,155.62899858409196ZZM91.31146413199531,156.27907804829488C93.3130597895888,156.27907804829488,94.33435709522928,156.60261012316096,94.33435709522928,157.23694294512848C94.33435709522928,158.15292847431465,89.61435255167271,159.18327259675675,88.71449236429726,158.4639525780433C87.31518024922661,157.34437748293362,88.5813571750059,156.27907804829488,91.31146413199531,156.27907804829488ZZM74.37466267043419,156.96980841869436C76.66224831205363,156.96980841869436,77.9219634462188,157.971451214509,77.9219634462188,159.79069094511624C77.9219634462188,160.1395739971981,77.6302915419783,160.387276497044,77.2740017215965,160.34506209445544C71.94525184390477,159.68560165189956,69.61243366098643,156.96980841869436,74.37466267043419,156.96980841869436ZZM67.84624775650991,157.49302131850368C70.35810213122204,157.49302131850368,70.97085823256657,158.3779602764737,70.99982488462956,161.28885552375937C71.01096590465477,162.2078563674163,70.29860908429146,162.49877837467398,68.0393216335342,162.49877837467398C64.81377351605806,162.49877837467398,64.60733041500498,162.3589571258883,63.794593004222406,159.63311284444808C63.283554415699655,157.9197441552535,63.46281342789371,157.78896884987967,66.64992502628593,157.54551012595584C67.08999531725203,157.51088984870057,67.48728409132309,157.49302131850436,67.84624775650991,157.49302131850368ZZM39.52365806056878,157.65115781074064C39.75717384028212,157.65115781074064,40.03079729208184,157.6623256421135,40.34230021196527,157.6623256421135C43.88347342673478,157.6623256421135,48.1296503886515,161.52382669584017,50.208564725212455,166.63567815005058L52.031569831811794,171.11710552327395L50.13314001964682,172.26326005705073C47.140996271682525,174.0689867116971,43.36942676280705,175.74963365496933,43.36942676280705,175.2774577445332C43.36942676280705,175.041369789315,42.430907235948325,171.83620218535998,41.2837164040302,168.15517328661554C38.22194128091269,158.33194881121858,37.889493243383185,157.66601102646632,39.52365806056878,157.65115781074064ZZM104.39904317511082,157.74720116054527C105.43783188219095,157.70029626878022,105.564282459467,158.2438346216877,105.564282459467,159.59592396597645C105.564282459467,161.15875028826713,105.01425030086102,161.68899892184186,102.6953583929735,162.35962719577037C98.77082267916194,163.4951722897431,98.65384196890591,163.46077536911525,98.65384196890591,161.18398958716966C98.65384196890591,159.55538473809406,99.16510337782711,159.0354105093827,101.3736991874739,158.41916957423882C102.82370294365501,158.0148940785482,103.7757031047422,157.7751207389772,104.39904317511082,157.74720116054527ZZM117.0882193421512,157.75836899191813C118.33077730547848,157.70811375074118,118.52117733769592,158.19938665282461,118.52117733769592,159.29316405746363C118.52117733769592,160.63743591979141,117.66989199762793,161.18599979681676,113.6933277203043,162.40362845137838C107.96717765834,164.15630790700448,108.15579512735349,164.13977951657307,108.15579512735349,162.9014903739719C108.15579512735349,162.3625308319272,107.94823792429816,161.48954145352582,107.69511394934216,160.96141470791213C107.37180154823363,160.2882178327677,108.6180360481676,159.65354997585928,111.8743333809125,158.831932621772C114.51932294491417,158.16498973219632,116.12184726523174,157.79745640172177,117.0882193421512,157.75836899191813ZZM58.41247764061245,159.04423309616732C59.48647197096852,159.04423309616732,61.697073164219546,166.4784350843238,60.929345474335605,167.5096726332754C60.306673865169614,168.34625488140182,58.02822385997024,168.10413629724212,57.67861865160194,167.16402825229147C57.50214489441532,166.68917206232572,56.79613845546646,164.8379923339926,56.11029726276138,163.0513626709935C54.81359394211722,159.67287032413446,55.17478581130854,159.04423309616732,58.41247764061245,159.04423309616732ZZM147.54865937058366,159.81514849582254C149.21747276004498,159.84306807425423,150.4827584042223,160.09456763676667,150.4827584042223,160.42692229841714C150.4827584042223,161.19940119446414,149.5238508107177,161.19940119446414,145.73133618419706,160.42692229841714C143.2992515128608,159.93207569029414,143.36576340240754,159.89410506362697,146.81123525516705,159.8176054187245C147.06357935872074,159.8176054187245,147.3102415420617,159.80643758735164,147.54865937058366,159.81514849582254ZZM91.52448043486402,160.4263639068488C94.05494031301532,160.4263639068488,94.09137144849592,160.4810862805748,94.63572168688916,165.09116707121166C94.93853461115395,167.65675297245434,95.19243845751043,170.45529983613028,95.19243845751043,171.31030900602173C95.20357947753473,172.88486155125406,93.17758498609055,173.47184276820144,92.18302612850857,172.18452684587396C91.89369383847225,171.8097344250075,91.32160246021886,169.8660850529086,90.91183574371917,167.8653680624957C90.50218043741916,165.86420435882746,89.89610894808993,163.37210278801717,89.56544347376439,162.3269054498494C89.01050926634707,160.5728858544585,89.1616929080792,160.42636390684925,91.52448043486402,160.4263639068488ZZM124.39004386617216,160.76608933720536C125.28611610673761,160.72253479485175,126.29604957195443,161.77164087400024,126.29604957195443,163.26422153695694C126.29604957195443,164.8030370217964,125.89786951628048,165.26404510086013,124.56818877636397,165.26404510086013C122.81425799391491,165.26404510086013,122.30555901959815,163.72735150398103,123.34367926547657,161.5630257839589C123.5986972138362,161.0314370106198,123.98261676387847,160.78574472042146,124.39004386617216,160.76608933720536ZZM132.9386599411282,161.38434048199633C133.46952954529388,161.40555936160422,134.62953255023876,161.4988107535662,135.9322520216965,161.6291393456852L139.0899513272252,161.94407219039454L137.79469633918416,164.98618945630892C137.0818938780194,166.65913059593436,136.43816574100674,168.0053009895953,136.3641893680442,167.9733609918694C136.29065863588312,167.9432078471632,135.12541935152694,167.59734010955185,133.77613041636687,167.20356237535157C131.51795706761186,166.54600046412907,131.3700043216868,166.2889169859302,131.91000956227072,163.9757240737099C132.23276491237993,162.5934815847147,132.55930820929643,161.43001691231052,132.63562419646405,161.38780250972172C132.654563930505,161.37663467834886,132.76174054314015,161.37663467834886,132.9386599411282,161.38434048199633ZZM74.98964697578413,161.8845476491781C75.46380878802483,161.8957154805512,76.09305359900463,161.98394134839486,76.90857626479465,162.1275596598473C79.49975470208028,162.5824254316558,80.47793626022576,163.9531650543372,80.50188945327864,167.16402825229216C80.51414457530609,168.8705845643492,80.28085161599483,168.92173323203588,76.93041266404362,167.93974581943712C75.24477633434435,167.44512256794178,74.49186620109322,166.6229468222864,74.0675047483619,164.8133114266593C73.54086873180677,162.56801892918497,73.56716153906382,161.8576331755694,74.98964697578413,161.8845476491781ZZM140.97545755616193,161.94262037231624C141.7503154988617,161.95825533623815,143.45856809921133,162.1048889621611,145.38362494923422,162.32657041490847C148.23739722849587,162.65512801389218,150.0166181263994,163.19553937401565,149.96425533228467,163.7180822039429C149.9163489461789,164.1876895131636,149.8200905331687,165.97186225326027,149.74834236421157,167.6822156279843C149.6012808998894,171.21303719476623,149.0392164396544,171.3753057846111,142.94920066369195,169.64998751584812L139.30352468109413,168.6171864705043L139.8314976200527,165.385104392941C140.12205542229003,163.6074089950398,140.44024295418785,162.07082707647464,140.53817252020235,161.9714333772581C140.5637968662595,161.94686414823832,140.71709730179646,161.93681310000284,140.97545755616193,161.94262037231624ZZM105.23762775235082,163.19017881495665C105.41710958494514,163.19017881495665,105.564282459467,164.67762227548224,105.564282459467,166.4965269711481C105.564282459467,169.4131178124337,105.26859978801804,169.94280805443918,103.05554757036316,170.9878937142928C99.21546078833853,172.80311302560585,98.65384196890591,172.51475961956385,98.65384196890591,168.7279713577202C98.65384196890591,165.4207297750188,98.77984690538324,165.2392525152129,101.78268603257038,164.23537615312398C103.50352798554741,163.66045619405918,105.05814591975832,163.1901788149562,105.23762775235082,163.19017881495665ZZM117.0364135990394,163.2918060804477C117.6798075054503,163.32530957456606,117.65730264500053,163.73941276186406,117.65730264500053,164.57141619912773C117.65730264500053,165.33194551560632,117.47770940220744,165.95410540137755,117.25767425672439,165.95410540137755C117.0378619316416,165.95410540137755,114.90001159915118,166.5715747979723,112.50692049790086,167.32618516382308L108.15579512735349,168.69770653470005L108.15579512735349,167.0600557422124C108.15579512735349,165.70818975455109,108.90168641799028,165.22719125733056,112.42102323351173,164.3059568473991C115.08372701935332,163.60908416974507,116.39290828242702,163.25919601283908,117.0364135990394,163.2918060804477ZZM128.33797572203548,164.12012413335856C128.41596286220556,164.13129196473142,128.50999307121128,164.23559950975186,128.61338173703916,164.44209271183263L128.61226763503691,164.44209271183263C128.86271776518606,164.94129477419096,128.8320799601188,165.53754529117737,128.54542151489022,165.76704422588568C128.25820601865962,165.99676651722143,128.05532804401446,165.58813556729592,128.09175917949506,164.85976960517064C128.1173835255504,164.3565471235181,128.20740296734766,164.10426581280967,128.33797572203548,164.12012413335856ZZM66.2049526865112,164.12012413335856C66.51255624938494,164.13575909728024,66.88722875280837,164.18601433845743,67.34011121680123,164.26530594120322C71.24715552917405,164.95034071760278,71.87539764835128,165.18095643544802,71.87539764835128,165.9269675711423L71.87539764835128,165.9269675711423C71.87539764835128,166.850547225662,69.54904125704797,166.84552170154438,68.83066828587107,165.91579973976945C68.52495869640006,165.51978843929464,67.53017701841782,165.38543942788124,66.6198442722216,165.61672521560922C65.46396344468485,165.91010414576954,64.96506856799078,165.7071846497281,64.96506856799078,164.94017799105336C64.96506856799078,164.31321593779194,65.28214199788636,164.0655134379465,66.2049526865112,164.12012413335856ZZM121.02211351278311,167.81812813578927C122.21654226960345,167.7701064608866,124.48318279357773,168.36479348148146,127.50473883440645,169.2421383141177C126.86903223181162,169.4844802549046,126.18931860012071,169.76479282235823,125.46158717212438,170.0885482538522C111.1916116738139,176.43790710246753,104.92423085906194,178.10046215891657,95.06353685582872,178.10046215891657C84.72790116895067,178.11162999028966,66.17955116085432,174.45226668440773,60.521472731240465,171.2860748119433C60.25286273845086,171.13575580166753,60.02725708295657,171.01681839754815,59.781820411817534,170.88313945601772C65.29083199350498,168.45324270595302,64.86658195097334,168.88063561258514,76.02119401984783,171.8948333000676C82.31531328265828,173.59558233981102,89.91326611892782,175.42587822347718,92.92969729054676,175.9043081194825C98.1167333935282,176.7263721868244,98.58565892635579,176.6887365950986,101.56788716649953,175.2141361406516C105.90363792941207,173.0708059436099,119.67037355321827,167.87296218782967,121.02211351278311,167.81812813578927ZZ" style="fill: rgb(0, 0, 0);"/></g></g></g></svg>