<svg xmlns:xlink="http://www.w3.org/1999/xlink" width="145.0000000000009" xmlns="http://www.w3.org/2000/svg" height="120.00000000000023" id="screenshot-2e69b320-0848-11ed-bd60-d1923bf7f7a7" viewBox="-0 0 145 120" style="-webkit-print-color-adjust: exact;" fill="none" version="1.1"><g id="shape-2e69b320-0848-11ed-bd60-d1923bf7f7a7" height="162.50237mm" width="196.13805mm" rx="0" ry="0" style="fill: rgb(0, 0, 0);"><g id="shape-2e69b322-0848-11ed-bd60-d1923bf7f7a7"><g id="fills-2e69b322-0848-11ed-bd60-d1923bf7f7a7"><path rx="0" ry="0" d="M80.60254259685735,2.0005025906182254C78.1446276668903,2.0249583476013413,75.93660753202948,2.7289877152998088,74.84949123994829,4.044040465805438C72.91672504656071,6.381492074918015,73.6719544347261,10.969910843447678,73.6719544347261,10.969910843447678L69.07159827027135,11.359424354670864C69.07159827027135,11.359424354670864,67.53348841305888,9.173302005436199,64.83758196076997,6.801390011483818C62.14167550848288,4.429478017531437,60.131353208566,1.2211791347535836,54.67240880281952,5.233479555442955C49.2133165303303,9.245779976131871,52.93978024562966,20.341134594346613,52.93978024562966,20.341134594346613C52.93978024562966,20.341134594346613,49.959378180452404,24.81520417189131,47.85301643117418,26.23267466830839C45.74687648200961,27.650145164725473,39.52272168296622,39.047046677378376,38.104383887312906,42.36317321594561C36.68619395840233,45.679299754513295,40.814337680154495,46.29432498846336,40.814337680154495,46.29432498846336C40.814337680154495,46.29432498846336,40.585218162393176,49.24724648165284,41.22540722476606,51.77723159574202C41.86574415388168,54.30684616805888,43.4069592126898,54.1833816494709,43.4069592126898,54.1833816494709C43.4069592126898,54.1833816494709,35.435906715789315,60.93709831962224,32.50178694106671,64.75975546115978C29.567741099715022,68.5827090361156,26.137898070203846,80.46101841956488,25.4356049759117,85.75509693959134L25.435235309054406,85.75509693959134C25.435235309054406,85.75509693959134,25.582140917893412,86.61631012717248,25.921938692539698,88.68015369149111C26.261736467186893,90.74414547251877,27.72236415124189,91.0920841968707,27.63741470758032,92.51592801177435C27.552834930775134,93.9396236099692,28.33083579731283,101.5654473958125,28.33083579731283,101.5654473958125C28.33083579731283,101.5654473958125,25.579035716296858,102.39812886691311,21.72917720424266,100.56928289469693C17.87924475881755,98.74065924754382,11.802808835696851,94.16409781573338,9.112817053115577,92.21719723480692C6.42297313727795,90.27037076223519,3.2249112268955287,85.41990485221254,2.3552329799049403,86.18744507971292C1.485998333142561,86.9546888737948,0.11667836268316023,87.97827346607346,1.793265424402307,92.24172710014477C3.469852486122363,96.50525484257037,17.99095808290167,110.17898733035895,26.624971120545524,112.35584613528181C35.258910224818464,114.53255672349565,41.57540780465661,115.62891571988803,52.93904091191598,114.62452519142334C64.30289581928992,113.62006055460438,74.36234425623479,109.21839483940084,78.3155616214126,101.82238106084515C82.26900078670405,94.42651549899847,77.0470867694512,81.79059640755145,77.0470867694512,81.79059640755145L74.4582358388534,70.92319908776221L72.84515754310905,63.23171529983665L78.32583836002777,63.249501304915384C78.32583836002777,63.249501304915384,88.78127393383238,60.077293190776345,92.99739836747085,55.94597475276896C97.21322706762294,51.814359881343535,96.02038605453617,45.3710089998151,95.19654649777112,42.44832371525922C94.37285480775063,39.52549021399432,84.57106416990064,19.497929736906826,84.57106416990064,19.497929736906826C84.57106416990064,19.497929736906826,87.47878973105708,14.947824987651074,88.25102379463169,12.38397235555749C89.0232578582054,9.82019383181887,90.50665702063179,5.122094698637056,86.38161850047618,3.2104696944502393C84.57705277297919,2.374156913979732,82.51431171278728,1.9817531769308516,80.60254259685735,2.0005025906182254ZZM128.05874712136665,30.871857659666603C125.9597047758507,30.88964366474511,123.94383747308348,31.24402981593812,122.42295409139206,32.07018975184337C118.36733900691797,34.273579347675195,112.16048461676564,37.87153995838548,108.9560644364501,47.634648687851495C105.75193998961822,57.39775741731751,113.61682416528492,61.844629228762415,113.61682416528492,61.844629228762415L107.14129590370885,69.28332941950703C107.14129590370885,69.28332941950703,107.27541103930707,75.63056176525606,108.55261002908537,74.23584253366857C109.8299568856064,72.84112330208109,115.43203629825348,65.46289552860412,115.43203629825348,65.46289552860412C115.43203629825348,65.46289552860412,119.8010549438086,66.02900924858795,121.77307975737403,66.210797042163C123.74488277082582,66.39273305244728,130.7137684193076,65.6850723753787,134.29894546199012,62.67338295707509C137.883974637929,59.66161943041675,143.64242313094564,50.86873727799343,143.97852423702534,45.75466795103398C144.31477320984777,40.64074684078332,140.63991498773976,34.900387809990434,137.3458875613669,32.95978643919625C135.28736070334162,31.747077326247563,131.55727425284658,30.842140209514582,128.05874712136665,30.871857659666603ZZ" style="fill: rgb(255, 255, 255);"/></g></g><g id="shape-2e69b323-0848-11ed-bd60-d1923bf7f7a7"><g id="fills-2e69b323-0848-11ed-bd60-d1923bf7f7a7"><path rx="0" ry="0" d="M81.35001991762692,0.0036978118844217533C80.68134548025137,0.02142063095720914,80.04808232596133,0.1063424723481603,79.48342391217739,0.2662170694013639C75.2064949762489,1.4772025276351997,71.33934629530995,6.190512414986188,72.18315503253507,9.164106075096697C72.71875993013418,11.05151246127798,70.1771317204093,10.538879919595274,69.11885924157832,8.567659368215118C65.70725195180603,2.2130687445564945,58.79532434574321,-1.9730611204563502,51.50954526043097,6.658099458192282C49.658178324533765,8.851372163539963,48.97930188910959,14.185128408600804,50.49866032326554,17.834552236023455L51.76363415388187,20.8732772562264L48.643966648873175,23.79215171244914C45.50788723395908,26.72601671980442,41.541453890842604,32.559482617640924,41.877380551255555,33.743293086629365C41.97659128591022,34.092728002682634,41.225783371484795,35.28709831803553,40.20868852246258,36.39735908787134C38.39886885398391,38.37345341449691,37.03867637490475,42.81922257892711,37.98066086147628,43.68025620555113C38.242216434658076,43.91914503763746,39.206157395292394,43.132178025722396,40.122710814262064,41.93138318845581C41.03911637818692,40.73080988642755,42.94260221716377,38.6967471724181,44.352178281003034,37.4119904797933C47.28163027165374,34.74271239218024,47.80230180978924,33.63813769346348,46.541615775454375,32.77326412270713C45.91293612753452,32.34178732336204,46.011703297056556,31.930101005315237,46.88160844958202,31.356324737830846C47.92243403319844,30.669934724154245,49.208994700266885,29.04401376437727,53.06254071714193,23.54336763971355C53.38205546764766,23.086709668269123,54.35642020889827,22.69976145184455,55.227877839388384,22.68130018197735C56.714042816121946,22.651023699394273,56.737699623192384,22.519505612857984,55.60572140483055,20.55921413323904C52.250151176807776,14.747901759243632,52.60345080491334,10.154368590793183,56.655492218620566,6.458126982986414C58.972085051079375,4.344976188864166,61.99387251683038,5.489722610812805,64.57423874813321,9.711298113971452C66.11740184440441,12.235692155664083,66.286474087442,13.124713067407129,66.08709156034547,16.182194737795726C65.82058284318191,20.26981526679515,66.11000909219456,21.682767017379774,67.2802078394825,22.015808325791113C68.47095843791249,22.354461860241827,70.44615397332382,18.765812533223198,70.65004607926949,15.892943561510492C70.7449690176436,14.555313791985554,71.14018555077837,13.38656771920887,71.52298226020139,13.278163142546418C72.56698672726816,13.006339405016206,75.29942187152665,14.29633909828317,79.21979836837727,16.91141489756501C82.163666225837,18.87502940575996,83.21565486528925,20.16111530981493,85.87704566081266,25.052613373927898C89.7993442732377,32.26092696134242,93.90882737161428,42.75172817629186,94.08617949712698,46.011102293952035C94.27669072157369,49.50810987734803,92.5646032373088,54.32805205945465,90.41479089470249,56.34690268709301C89.40161420435197,57.29839653606814,87.19657800273762,58.81960517315633,85.51487473005545,59.727530425243685C82.34641506046319,61.43756093053776,81.42601741034377,63.08430620272566,83.66624311247597,63.03335309789122C93.30498737111884,62.81610087408967,100.7931060844121,51.796716580291786,97.97328860903326,41.976797912330085C96.7992456305974,37.88585435475443,91.22718043503664,26.482401802631784,88.48787003122106,22.56373881546051C87.38383641621203,20.983971030352222,86.56900726764889,19.59036669058878,86.6762761022137,19.46704540787323C92.27214595988971,13.054412551751284,93.19357859531738,7.240072529497638,89.31378830809899,2.814536916842144C87.80795861048773,1.097269593760302,84.24746129120922,-0.07457797235429098,81.35001991762692,0.0036978118844217533ZZM81.98069560864406,3.614057592267045C82.90087147619579,3.64950323041262,83.88048507151507,3.8183869271613275,84.89942810858975,4.143305276830688C86.6512146722207,4.701795612864771,86.93502242955492,5.112448099798939,87.3898984730231,7.857122013551361C87.78304503553954,10.231610543919032,87.52104589722512,11.583492413782096,86.26479551421562,13.667769781831339C83.9119781959289,17.570999147393422,84.39605561062581,15.479189581238188,80.52668910402281,13.324759387691756C76.08201862045462,10.76499355293322,74.92143045104058,10.942443278900328,75.00178966755993,8.901143747102424C75.12303080380025,5.819662425886008,77.99348863181694,3.4609028974455214,81.98069560864406,3.614057592267045ZZM56.84615129810936,10.483274574753978C55.96848375576428,10.506905000184815,56.42949578356638,11.658445169444349,58.28677692123165,13.692581728533696C59.53045962548367,15.054801909522439,60.87690158545229,17.32967342768461,61.278845523098425,18.748458939547618L62.01080191938945,21.327350649889013L60.20342185914069,19.375477509329812C56.78937496113849,15.688909606933976,55.64408978879783,17.554014779115278,58.6726046590602,21.867305870975997C59.69494836215108,23.323309302892085,60.31187353405767,23.63198173507817,61.17948693339895,23.12171223593805C61.81245437760117,22.74975457064602,62.406609872701665,22.715490453771963,62.50057175328766,23.046094874560367L62.49983247806631,23.046537945037016C62.810623780965216,24.1414389383433,63.91295706296751,23.31910013336187,64.537201059562,21.526584674299556C65.72410742684315,18.119225017380813,63.09014374201797,13.30991652671787,58.86747760730941,11.174021448118765C57.9206139042808,10.695136107754024,57.24506420734997,10.472714728389292,56.84615129810936,10.483274574753978ZZM127.9108301027427,29.46050001258982C119.63590077176195,29.56964304004714,108.71288759923482,39.85449032835368,106.76230992868204,49.37341645239394C106.05127502114465,52.843027511306445,107.269230947707,58.22086926881093,109.36049269281193,60.84680029477522C110.35777496591254,62.09906515243256,111.11198354635508,63.23480247468592,111.0365035462928,63.369938970116664C110.96087569118754,63.505370845864945,109.98983768843118,64.69723042851592,108.87915059643274,66.01905735103423C106.73872704913265,68.56545722640885,106.49883223992583,69.66877655877465,106.19809508003073,68.60902582329663C106.0968883022797,68.25279715993179,104.33667400112972,67.20840620098329,103.2526008170853,66.86886652557882C100.78275623131776,66.09548700828623,100.07386522192155,69.33684292655585,101.02649527167523,72.0064163944869C101.46606831806821,73.23837385528986,99.85385691615829,73.24007229211793,94.18051101532274,74.86695323792833C90.39993146275992,75.94693752518174,90.2148169474267,75.91629181720123,85.45684162520774,73.40806984791288C82.7831788610165,71.99881035130147,80.24975660624386,70.94363801075019,79.82644761471147,71.0634885747304C77.3208960357706,71.77291825320162,83.86917416063443,78.30584474378065,88.66743998239599,79.88391409206133C90.97693577273367,80.63816773377107,92.05125052386029,80.57429174002937,95.17535368019344,79.44926195429912C97.23231305504487,78.70852196213241,98.94329162647864,78.19980320966147,98.97729828664342,78.32009684411832C98.56626126377978,79.95569150930623,98.84622478996334,80.256610208148,99.48880281203856,80.69251771226095C99.43705354656959,81.29797351883803,98.81059172431287,81.47786013242785,98.5421608915758,82.21970780078641C98.14524402543157,83.31874411854301,98.733485318764,84.7145638106906,100.05575297900668,85.54081640488425C101.78181276494797,86.57021681269998,103.15553398057182,86.21723733283238,105.04623035822351,84.02433385288168C105.97668215134854,82.65147998044927,107.19855623658168,81.33120380459968,107.62223486572475,81.48206930195738C110.15210859943545,82.38305311657473,112.37392634856496,80.05117319706142,111.81392536867406,78.07736806789944C111.561241098143,77.18723947996455,111.08189504486108,77.36284307894493,112.42900235252819,77.00395599271928C113.70166464544309,76.66493323287114,114.17568791713438,75.210480547624,112.50307772966971,73.46877050323724C112.22281849339652,73.17693474917064,114.2805171434693,71.24448286451207,115.28696642930936,69.7099082680395L117.11652474618768,66.91959809517448L120.09447319133415,67.70309438835466C122.48721137155462,68.33254984575956,123.99348463429851,68.21144391542816,127.76105294297213,67.08789103128765C142.80589511006656,62.599365565843755,150.11141284377754,44.687281554287665,140.99385761592475,34.642356929180096C138.18276358815365,31.545294296195607,132.75766630652288,29.396993244245095,127.9108301027427,29.46050001258982ZZM129.4263443057498,32.77134415064097L126.20887068900538,34.69463924544516C116.9604637470402,40.22260804951293,110.68276035305462,51.25786903539665,113.29654182434751,57.332586807862526C114.07492470451598,59.141495874567,114.36442488105149,59.65538378260112,114.27726433249791,59.55997593992515C110.7725083648811,57.48426460109431,110.43022393756837,53.76121722943981,110.63914311501776,51.37188583809848C111.03591212611627,46.83550876115828,116.83175593106716,38.56714905794706,121.6458422425585,35.66961582969111C123.96080866953162,34.301561887424214,126.65177047389443,32.76248274110412,129.4263443057498,32.77134415064097ZZM84.37912620806492,32.85301680853513C83.8981537492964,32.86040131648224,83.33867026206008,33.14005263243621,82.74821114306451,33.70932435007262C81.64410360053262,34.77372732555796,81.70272812555595,36.86413383520312,82.85481462992902,37.5066598716744C84.40803186920584,38.37271496370204,86.30715598437837,36.197460457745365,85.74064938254287,34.20120642442453C85.48567335882672,33.302585652350444,84.99745600289225,32.84755227265441,84.37912620806492,32.85301680853513ZZM78.08745051240385,32.94192628421729C77.95482453776003,32.94192628421729,77.81221834763255,32.966295160442314,77.65955801450127,33.009863757330095C76.13058900247233,33.44281745826447,75.22896894296719,35.05603706437273,75.6623320775052,36.58315330781875C76.09451237169014,38.10635576205277,79.13160283451361,37.377578672760364,79.28241497959425,35.714292102771196C79.44623836856226,33.903684599238886,79.01583233490874,32.92634497244944,78.08745051240385,32.94192628421729ZZM132.5559180987184,34.989207267452C132.96954258485675,34.978868956326096,133.37222579772424,35.00323783255112,133.76123241900223,35.06512000914745C140.51916899653497,38.24274762383425,136.61572190224524,47.50055754686764,134.1676859354966,51.12384021615799C133.5312438977562,52.14585611602706,131.95289130096626,53.94952218208937,130.65915966425382,55.13222497488573C128.12307601868542,57.45103431533312,121.1669397544083,60.35159519184731,118.24199734260583,60.30950349654904C116.71805540208061,60.288088423502586,116.28410084736606,59.83541808634982,115.40044517573006,57.35887565615394C114.54310770196116,54.95278143177302,114.84147918114832,53.92020568553994,115.5899214148676,51.07045022370107C117.67327291510719,43.13764256160357,126.35132902408805,35.142509652432636,132.5559180987184,34.989207267452ZZM129.8148334343732,37.64630091695244C129.6111631109934,37.66106993284643,129.35670457993274,37.70980768529671,129.04924001552808,37.79709256923093C127.04706093455115,38.363927399245085,123.64410316486374,41.44858405887885,123.92584095157872,42.44157884251581C124.09661352762487,43.043416240198894,124.98248702492401,42.69161828160236,127.29190888773974,41.10446598854696C130.1719772936276,39.12519632350427,131.24052569803007,37.54409932696558,129.8148334343732,37.64630091695244ZZM141.00568601946088,38.74651875598056C141.99550161282968,38.8710215599674,142.78852214237395,42.01091433904503,142.44749448293533,46.167949242746545C142.00274650999472,51.586701174278005,139.2280987506183,55.719810272230916,134.94821271380533,60.40144062048944C130.34304557976247,65.43870887147682,123.17673337016186,66.60066119694216,117.53288455064285,64.37282899440265C117.53288455064285,64.37282899440265,129.12294575505985,64.51379925111155,137.48754917034603,53.91259964235405C140.31986039695948,49.55455843233426,142.58433432633956,43.898025344909,140.80512065201037,38.7621739128283C140.87239469711858,38.74297419216623,140.9396687422277,38.73854348739769,141.00568601946088,38.74651875598056ZZM87.03955594580111,39.56043922190224C86.34315868763952,39.54788555839241,85.81457690463958,40.20650982218763,86.18998086185275,40.785824470632406C88.0709927341104,43.68911761508707,86.56205808057075,42.23614183142922,85.00492268262315,42.79529677317851C82.91713553105728,43.54489817488161,82.58756663754593,47.377088573993206,84.12658979257958,48.970074628326756C85.5198278740354,50.40148764877904,85.63212378010212,50.804534092528,84.72030172254654,51.062770335435744C83.21624628546579,51.488561063661564,79.12214011168453,49.48086104302297,77.60152490965447,47.57152266823846C76.21678849323962,45.832544891792395,76.11262461460319,45.42935075788432,76.7511366229628,44.28704122355816C77.77451531136376,42.45590478793315,76.81027864064072,41.094201522500725,75.18246853156779,43.32461830282159C73.82419816806396,45.185735840711914,71.42643291634067,45.11351535298991,70.50034284702178,43.2552039281195C69.4448056865076,41.13651475303709,68.97521806614259,41.88323619664084,68.95230053429168,43.2552039281195C68.9182938741269,45.274349936076305,71.12222116290832,47.35065203554268,73.36022903937737,46.49006147939576C73.77762382914261,46.32952227662736,75.02529861958828,47.98298745104694,76.06767668116754,49.760807739294705C78.27929243224844,53.532519018320045,80.2779969196863,54.41755229577166,82.84069447320871,54.66862556597084L82.84069447320871,54.66862556597084C82.84069447320871,54.66862556597084,83.71814023298884,54.81757109126238,84.15948753991233,54.79763291980544C90.1975918347789,54.529501436248665,93.89988214144068,49.49267625573793,90.62725859321108,44.107745370604334C89.83017204995213,42.79618291413226,88.73345725962918,40.54885561061246,87.76471101005973,39.823401549895834C87.52252444766691,39.6421118797964,87.27168836518831,39.56324533492193,87.03955594580111,39.56043922190224ZZM42.613181178694504,41.51888457453401C42.549603509691224,41.52626908248112,42.48306873980255,41.53734584440167,42.41416828920683,41.55654556506374C39.92850321371043,42.26028917241592,38.62279531841796,50.97711004324992,40.78096147102133,52.45785157678847L40.78096147102133,52.458220802185906C42.07920268658199,53.34849708027991,43.04255222703887,53.12939872949164,43.0299845482823,51.94536672526465C43.01002411731588,50.0178624609307,43.20999806459076,43.072215821192,43.31039163960031,42.19840699581982C43.36140162984702,41.75319501169338,43.058890209422316,41.47649749891798,42.613181178694504,41.51888457453401ZZM45.50633475599534,48.656749956134036C45.16745099469881,48.721733626068044,44.80232296305712,49.44297851725446,44.436973148849574,50.83037987034254C43.48316025874283,54.45233332820203,44.12470329550797,58.103160212134526,45.910496519303706,59.21881167277206C47.78049319076945,60.3877054357074,47.913932368156566,60.216606386574995,47.453881398140766,57.234889767722734C47.25664276918451,55.957000667488956,46.8853787532089,53.43999113374366,46.62907203409577,51.64171575848263C46.33454478605745,49.57486582918841,45.941989643717534,48.57337886141204,45.50633475599534,48.656749956134036ZZM129.38235743010137,50.78998661187234C128.86952220930834,50.80254027538217,128.05602375614308,51.29907458974094,126.94008781007597,52.27899879431175C125.78349172685466,53.29459017226691,123.43710610298967,54.70746807777209,121.72531432881351,55.4184485029125C117.90459213175109,57.005600795967666,117.48054386499825,57.98404809894919,120.6078998323037,57.99881711484318L120.6078998323037,57.99881711484318C121.90510606255611,58.00620162279051,123.4204724105175,57.90503386391606,123.97470704368607,57.774032692935634C125.6419944495592,57.38272761682242,129.90790818469486,53.452249416935956,130.0211651485488,52.20301220753686C130.10751249435907,51.24893378078059,129.89526657841543,50.778245244236814,129.38235743010137,50.78998661187234ZZM49.34117710977807,54.4464995669241C48.80305867642801,54.41326928116246,48.65993499364595,55.11885901550113,49.05803470014325,56.52169399019863C49.72515665955416,58.87262594021513,54.012805086186745,61.311211999563284,60.26796058593209,62.89710892626749C63.306973164331794,63.667756175619616,68.43643428509222,63.54546872401693,68.3854242948455,63.847716634288645C67.99493912312391,66.1658613690206,68.0069893092259,67.96288137793067,64.91733637818925,72.99822965685212C61.806244465744385,78.06835896820371,60.071830869806945,78.43595977380687,54.46834647735432,75.21417280159676C52.065628081650175,73.83260520978706,49.53220582687845,71.96705696712866,48.8193227312895,71.0844605772993C47.422314346204985,69.3550088161046,44.60619324693198,69.00660773116397,45.68243011363211,72.41743810681783C47.41203842063351,77.8988106657398,56.75736434407008,85.89335281427498,63.543171597433684,83.10156573982044C66.9313438627014,81.70759217465934,68.63929140572964,78.65668271634354,70.82924639283374,73.26842880263371C71.64791977254663,71.25363965436577,72.68504898005722,69.73508944013861,73.15086629679536,69.86749366762865C73.73208447552952,70.03305433580113,73.76890038153397,70.25791260278811,73.2707767376387,70.59789534866923C72.16304674652383,71.35148438466376,73.0851447296518,73.54136021635554,74.4787524487183,73.46685053117017C76.46281928678127,73.3613259126073,78.58468702603386,70.99769260892162,79.59608945585478,67.76756114273121C81.08757721417987,63.00411044641942,80.98112158235836,62.255690565987834,78.62423825035694,60.94139584157551C77.45795766173978,60.29096838160103,76.4593446932422,59.6046522130041,76.40611687733144,59.41649495051365C76.35288906142068,59.228559223261755,77.71019836713822,58.89551791485064,79.4222858514031,58.676567254221254C82.00279993775166,58.346627439147824,82.48465952678544,58.09769567625358,82.23670661766846,57.22381300580196C82.0721439534791,56.64390759672165,81.04773027976898,55.89127854676008,79.96055213979798,55.550852730402084C77.37863343052959,54.742175265122796,71.39804474785615,55.12868041107049,69.51311471692588,60.35986584074681C69.42588024085126,60.601856166171046,68.60735471618318,61.002908792774406,60.879636903770006,59.71113681760039C57.36150005465515,59.12303460469866,52.685140716831484,57.519045633524456,51.24444116618815,55.882121756906145C50.41682255630167,54.9445107828717,49.75968081237443,54.47212380950009,49.34117710977807,54.4464995669241ZZM41.85830725055348,55.28338585256097C41.473662353078,55.23686345249462,40.781626818719815,55.51540709225651,39.83121459462927,56.21560613579436C31.64448079751037,62.47427200122047,25.040609176029648,72.25431432626806,23.47837277905819,85.46793131144659C23.236481926754095,87.60892170052921,23.362676206974356,87.9954268464769,24.43957842137388,88.41811608136504C24.63940451360486,88.49653955576264,24.82917646283022,88.62163312038501,25.002684357194084,88.77146478663053C23.873145747060335,90.49907042083828,23.147694972713907,92.71582586145723,24.302442867882746,94.17655537845962C25.621753427241856,96.03324221158141,26.295454936120223,92.98624654247783,26.910531919973437,91.72393875401235C27.525682831350423,90.46155712046743,29.143882362550357,86.36197368859371,27.90005180325352,86.19375459756066C27.732975603313207,86.17750868007715,27.517402948875315,86.24692305477924,27.27270285073064,86.3868594803755C27.176301361915648,85.84372892087163,27.399118913518578,84.36734424702149,27.783098463294664,82.55474292634312C29.590182813454703,74.0244547262514,33.786604677819014,65.1238334526156,40.9906938512122,57.77639573547867C42.28597796588929,56.34084739057607,42.49933279466404,55.360701650766714,41.85830725055348,55.28338585256097ZZM113.84552760344559,65.12567957960209C114.404863235638,65.15078690662222,114.3486043913208,65.74405827508645,113.68665735845752,66.80092905246534C112.64575784732006,68.4631817913421,112.0809515784913,68.10990693115605,112.6604694242169,66.15869839631205C112.83589943415427,65.5698577326159,113.3692125785692,65.103526055761,113.84552760344559,65.12567957960209ZZM75.61302242026522,74.60022481088095C75.38192498618719,74.55591776319898,75.13752059813123,74.87064549190131,74.72522680739257,75.608431680889C74.08390555319329,76.75598421585778,74.30051319293943,78.37865599213819,75.82770794443786,83.8380965624574C77.94750571307304,91.41844166024316,77.82449031630222,95.00635253646715,75.26001850224839,100.38751732254809C72.49771663906085,106.18265762413921,70.35869771468242,108.07146706683079,63.92862969765338,110.3947809571257C59.375063974034674,112.04004932772409,57.148810573578885,112.49892265155268,53.83116516439259,112.47676912771135C44.431206802126326,112.41400081016172,38.145814945843085,110.09659452622464,33.753115510309726,105.07475989684599C31.155819876445094,102.10485849070915,30.86299296141533,101.44232043770171,29.838061795050635,96.20626123278021C29.084296779739816,92.3553880285624,28.50426144136054,90.61101956131483,28.022697562414578,90.74741142309654C27.032438403914057,91.0276534996865,26.25856510259291,93.92777130572381,26.22825481853306,97.47359048664953C26.202380185799484,100.45988550042853,26.192030332705144,100.4728083893358,24.25889955736875,99.86742642783838C21.13220893776088,98.8883883642211,10.230191181509326,91.4459120298061,7.392187535693665,88.35320625651025C2.2852003816515207,82.78831491270739,0.551156423323846,82.60060072069359,0.10958733383267827,87.5644669626879C-0.17059797491765494,90.72031027893104,-0.06399448805314023,91.08820646485196,2.2687884717452107,95.00960171996371C5.543851628202901,100.51490008463406,8.427024990020982,103.57016640263873,15.155834123846944,108.66724916799717C22.92798237704028,114.55491735416467,29.071581245939342,116.8466255504461,37.147497687433315,116.87099442667136C44.91557992691196,116.89462485210197,50.23111662079282,117.60420222073208,52.423732998693595,118.91066936672064C54.148609944281816,119.93792826723188,56.64772982880004,120.14055916529855,64.89781951235636,119.91961468752356C70.57212647097822,119.76786304921188,76.97779840571457,119.60473926866212,79.13308138495631,119.55666612192681C81.28843829172001,119.50940527106604,84.37986548328627,119.03450756499228,86.00353565112255,118.5038568239188C88.49356245042327,117.6889025268847,88.9247816868201,117.30158508506292,88.75149557502209,116.03255739436577C88.62751912046406,115.12042297274843,88.00297941378176,114.4132824917408,87.16641557372168,114.2375312026013C85.6880869143306,113.92671726311073,77.08876361638431,114.08437650778001,70.18548553040637,114.55270200178074C67.75068259011368,114.71737652899947,66.49369293188283,114.56451721449616,67.21448627233713,114.18982728126366C72.63159938158151,112.75870964112914,76.10767147062325,109.23305016689892,78.61270555690953,105.71514442601301L83.4893345520959,106.79734406565012C92.9774884482249,108.90384880262036,101.3080852033454,108.01135717214197,100.44808633878074,104.980533575442C100.15111948251433,103.93400110918901,98.94366126408931,103.59586449029416,94.60722067287315,103.34493891025431C91.60036656658576,103.17088605794265,87.3629149274584,102.67848706803466,85.19055469061186,102.25018560710691L81.24112467757732,101.47171077933103L82.11901400249008,97.31792505912608C83.7843792927888,89.43806431900862,82.76144416952047,84.56790748286244,78.06490261816452,78.01098134145536C77.24393748526745,76.8649057080761,76.33647715151528,75.53347892522652,76.04779017772398,75.0531905283517C75.88544533919685,74.78240062193413,75.75171045172192,74.62673519441068,75.61302242026522,74.60022481088095ZZM2.873959167637622,87.84840129325175C3.19288249796773,87.85947805517208,3.9156718815193017,88.70936107479588,4.679417112311967,90.02011123539387C7.421241051877587,94.72581507955988,18.744867466652977,102.74575993543249,25.428654739522244,104.71535589506448C27.164399030858476,105.22680691547566,28.71421560411818,106.1009849662455,28.872272646362944,106.65770302037186C29.0301818335638,107.21449491957787,30.097990962745826,108.6807628175402,31.245124323138043,109.9158217716813C32.39225768353117,111.15058534550417,33.23362681252729,112.18788717682355,33.115120994604695,112.22185591338007C32.99683695924796,112.25508619914172,31.33361556708951,111.8174802582007,29.418966672276838,111.24843007580239C24.822005493187135,109.88192688020445,19.49087009214327,106.8117438561469,13.958208265860776,102.34478115390834C8.389248026227506,97.84805888464348,2.174161243459821,89.90247602379713,2.722259892292641,87.97962399946982C2.748134525027126,87.88812994600607,2.8003273556278145,87.84581671546971,2.873959167637622,87.84840129325175ZZ" style="fill: rgb(0, 0, 0);"/></g></g></g></svg>