<svg xmlns:xlink="http://www.w3.org/1999/xlink" width="122.53314399167903" xmlns="http://www.w3.org/2000/svg" height="116.99999999999977" id="screenshot-26199260-08e0-11ed-869f-e58ebeb8a75e" viewBox="0 0 122.533 117" style="-webkit-print-color-adjust: exact;" fill="none" version="1.1"><g id="shape-26199260-08e0-11ed-869f-e58ebeb8a75e" width="50.181011mm" height="65.133713mm" rx="0" ry="0" style="fill: rgb(0, 0, 0);"><g id="shape-26199264-08e0-11ed-869f-e58ebeb8a75e"><g id="fills-26199264-08e0-11ed-869f-e58ebeb8a75e"><path rx="0" ry="0" d="M101.3903057057887,22.681500249472265C103.2127955429005,24.705931418952787,103.30621816270468,27.843872643879422,101.02505057962117,30.684475707147158L99.15972490337481,33.007317591138644L100.94588840520191,34.79348109296643C102.54688866578908,36.39448135355224,102.85807917927195,36.472656555178446,103.9468533550662,35.54516038613565C108.92953952050448,31.30259086924707,116.30871622480117,34.492908162617596,115.68557598755433,40.620570202669114C115.20160295280766,45.377069625243166,110.09337834341204,49.8456794508661,106.27526909211338,48.85245586186056C105.17371813704267,48.565905017746445,104.04022054585766,48.55854267567793,103.75951695440381,48.839246267130875C103.4772810303457,49.11841752597911,102.91891949132696,50.95769419841372,102.51886351603935,52.92647567877839C102.11852022839048,54.89496984678135,101.47839346985529,58.05800562396189,101.09584884742617,59.955069485542936C99.29553764455522,68.88474967798174,94.08618442843544,74.02024446250971,87.47622396003135,73.38016474864503C83.87619160218492,73.0313759816188,82.59803082995859,74.24198004009077,78.1277850527822,82.23103610466683C74.16378040305244,89.315827647471,70.70505996234169,93.6714223622921,67.89267468279832,95.12079778907128C65.33936718318,96.43712979274551,61.333820357604054,96.46056556758458,56.76343040273787,95.18702204748661L53.23223101707481,94.20278201900192L56.48548892557483,99.55167542987851C59.1172621885562,103.8787991540828,59.58575481966727,105.05319692616467,58.939002912553406,105.699948833279C57.10070621552404,107.53824553030972,53.07899349649597,102.83590987117987,50.14032904418127,95.41217507748433C48.335740958164024,90.85336893520343,48.95634940392665,91.62812171434507,43.16087093198985,86.69459036436274C39.55379332664961,83.62395401565914,38.02259734260042,82.6747823650303,36.14283538222844,82.34357991696106C34.82029099627289,82.11042362498574,31.698714658617973,80.75065494896899,29.205900019407636,79.32184736705631C26.713498114093454,77.89339321755142,24.403646818436755,76.60783674967797,24.073060580296442,76.46531529581125L24.073060580296442,76.46531529581125C22.562393365240496,75.8136696626566,21.102706147068602,73.4124724933622,21.694897492991004,72.55365527404956C22.49515892646741,71.39406184453901,25.809144244652998,72.13058707377195,30.712184951889867,74.55822555217719C35.38527082216751,76.87200173913993,35.969453512667314,76.88732502646144,35.54376379229143,74.68391507861611C35.22893037039648,73.0532607160037,35.01227867563648,72.84457518774025,32.75771829518817,72.00018441474913C29.17374186917914,70.65790305502469,21.358505869333385,62.838634554022974,20.819933272292474,60.05587622822077C20.529360085709413,58.55438643244452,20.760702884652346,57.798794340779295,21.75489234185261,57.005340454923044C22.886227393732042,56.103089127593876,23.690166971760846,56.205294435943415,27.3338116168743,57.716991301117105C29.99560398257927,58.82128939705808,32.95771153565147,59.47564002668423,35.23874962595437,59.462837275959146C38.86819384087357,59.44261097217736,38.898714770351944,59.42812207258521,41.16152561911622,56.65485292454855C45.04489248033133,51.89633260390838,52.95952356273847,47.840938651414035,60.53486840031292,46.72839811993458C63.84949347204201,46.24150133043713,63.97960069039982,46.162056858856204,64.86042609991091,44.08294735169238C67.01233193543703,39.00256236510768,72.11698565959341,35.717419531108135,81.60485989490553,33.30585726889581L86.83993417701822,31.975683628344996L86.70486011704816,29.23652311149931C86.45957468320012,24.259235941990482,90.89646542145238,20.274287551629186,96.38214756418529,20.54462130061256C98.58097326512143,20.652990495753556,100.29698408433615,21.466650112810157,101.3903057057887,22.681500249472265ZZM99.70948836225762,24.677671643252324C98.6492099699044,23.617393250900932,96.10923222992096,23.1368178043831,94.24508155680269,23.643896413583207C91.63408824941325,24.353648040456847,89.88437416242414,26.199343611033783,89.16274635380796,29.004177597092394C88.83822951520597,30.266865073531335,88.63293833176976,31.36029623522836,88.70649029684137,31.43384820030178C88.78042534506676,31.507783248526266,90.28341543454735,31.51224451405733,92.04668094393492,31.44412194971801C95.40045860395912,31.314372092075246,95.87399044698941,30.902631561369162,96.51483542803726,27.561816529089356C96.72362407975015,26.47423512800833,97.01345121811937,25.46539922273405,97.15889799998877,25.31995244086579C97.70561818113674,24.773232259715996,98.86355697777071,26.551721589533372,98.91346025793791,28.014996757486415C98.95756081350919,29.30996335771738,99.06422514602855,29.437343676562023,99.63109794937372,28.870470873217073C100.38755760850654,28.114011214082893,100.43830405784138,25.40648733883654,99.70948836225762,24.677671643252324ZZM111.40899768797135,38.17785087212724C110.53944463728476,37.160202239795126,109.05869118197552,36.610442605144726,107.20096427676435,36.70286488611987C105.75627396992968,36.77496826140623,104.29544975749195,37.11236282397704,103.955009800884,37.45280278058499C102.9929617678954,38.41485081357223,104.81757594050578,39.77507503695392,106.06973734544044,39.029349558202284C106.82172815350532,38.5813352307905,107.54403003072366,38.72807663673302,108.2981292143013,39.482175820310886C109.48970935680518,40.673755962814084,109.06261386817096,41.757800747821875,107.64383483841266,41.14394057612981C106.2410818019689,40.53723094177917,104.9932463405712,41.48944113522202,104.65783069632562,43.422505062482514C104.4848431533519,44.42161142150053,104.54874065166223,45.457124259461125,104.80019027524031,45.72379459818421C106.54131196926937,47.57120432511647,112.36612526590216,43.47681593177731,112.26368467724205,40.47724070178765C112.23253464303343,39.56751936194132,111.93073915675996,38.78844573647211,111.40899768797135,38.17785087212724ZZM99.42052158632214,36.872517990601864C98.00880866024636,35.39124441959666,96.1859813314095,34.2906301408168,94.2637788254815,33.95310175312761C90.45373412522713,33.284138246935754,74.10834961165892,38.905665406970456,71.091267828122,41.92274719050715C67.49560119744456,45.518413821185504,66.5302769148584,50.46171185646881,68.5852462539824,54.754047253283716C69.8701794530607,57.43823858610426,75.93914878756368,64.08512068422351,78.74085928651766,65.87676871241297C87.22515879959246,71.30221842753372,94.17369702192627,69.63984461169184,96.7210701852473,61.575690984721405C97.23913737731345,59.935381700555354,98.6458236735798,55.58029592935782,99.84677892935724,51.89753647708676C101.04802149749412,48.21506433717491,102.09173106698836,44.50844801134872,102.16586638281296,43.66048472965076C102.37137070071003,41.310806550760844,101.23557100397738,38.777033585851086,99.42052158632214,36.872517990601864ZZM93.14749373242194,48.60112877471147C93.47770685722935,49.074930568110176,93.32676229993922,49.802300343346815,92.62717276739386,50.50188987589331C92.07765553274658,51.05140711054037,91.47019132234709,51.068367797180144,90.95101788137981,50.549194356212865C89.90979787581091,49.50797435064351,90.59348083967416,47.97032242562523,92.04777349689357,48.08283985772823C92.57786324557674,48.123850471189144,92.94936795685317,48.31683793769207,93.14749373242194,48.60112877471147ZZM89.71504846281641,45.76169838089254C90.51166987620309,46.55831979427899,89.58012581608091,48.19316621209691,88.31871548246818,48.21300405194597C87.48736596877279,48.22608795420433,87.18915294178987,47.81929390346522,87.20678258678345,46.696852449761764C87.22804115460167,45.33844214190049,88.73157824232658,44.77822816040157,89.71504846281641,45.76169838089254ZZM91.18067250277272,53.54431454934593C91.67572118249336,54.13634092842085,91.51827337317445,56.644099642509445,90.7866320542762,58.356529599839405C89.6900877942262,60.92373007820743,87.99462365304862,61.9345288570039,85.48165703685481,61.519016322138896C84.07775345478149,61.28677176448127,83.29944971503392,60.710033781013635,82.04936617297972,62.036599874250214C81.70328962507483,62.40386092042809,82.33941030045753,62.74896942910118,83.73557943646483,62.55075877006857C84.75342038262352,62.40627079252499,87.03896761337273,61.88049263447192,86.8911299843603,63.38524909413991C86.80012941300811,64.31146670638418,82.43192645232739,65.22119497601216,80.36932252603401,65.03241922138932C78.06440921787726,64.82181701572154,77.25010991925774,63.868455728728804,77.05923275140958,61.156711858240214C76.93735148718588,59.42791841793678,76.60639626688135,58.777644454183246,75.72880752834863,58.54258733356437C74.24154382383313,58.14429661261738,73.81315088094561,56.7153492041416,75.17443699995601,56.69370486565799C75.6970347909155,56.68539620548836,77.5000441643715,56.03449025577811,78.29696046760546,54.771668223782854C79.67319607076934,52.59086223184363,80.64393045471843,52.76533577491432,80.61498804776238,54.598025200350776C80.59233640739876,55.4655284228661,80.14192993420693,56.39534430590379,79.88872585704848,57.185075490789586C79.6509708573576,57.93520420550885,79.62230368073324,59.123502389808664,79.82453428298686,59.82534802491318C80.31907379451513,61.539857506070575,80.55873985946528,61.70913270526489,81.35919133880088,60.9086812259286C81.73313663589033,60.53473592883938,81.80855817450174,59.78175522030392,81.52689891385126,59.23557179072736C81.2451339988329,58.68930247394519,81.02162388803299,57.295358902805674,80.93857846550964,56.604710438553184C80.85189510400414,55.8837779002306,81.35716038333521,54.715970310508965,81.86562525448426,54.22269468631612C83.34949909853822,52.78314356288206,86.62696346494158,53.32896397262948,88.20900110953517,54.911001617221245C89.41925655567138,56.12125706335701,89.57291640389121,56.11399244145241,89.97992234335652,54.829917626801034C90.22399443994618,54.05546690706569,90.65195794621468,53.420312878349705,90.92824308244235,53.415825238056186C91.02581852542608,53.414307895294314,91.10992120720766,53.4597064728498,91.18067250277272,53.54431454934593ZZM63.411144955285636,47.96653038203726L59.75646755541857,49.37023033829814C46.26671925484516,54.552820500250164,41.0353222207068,60.03854643861723,39.8653443906569,70.22802552736061C39.646323994116756,72.13510183065,39.81298435471763,74.80942442932383,40.234978388825766,76.17029938193878C41.309983665640175,79.6357871573714,43.99803627321853,82.72121903321522,49.54585854009747,86.85754729275004C57.14954514632882,92.52654263389059,62.85136605133266,94.00722435156172,67.22037879000345,91.44636408760925C69.51280639202014,90.10264191009492,70.6946956754091,88.63349772560696,74.65636301087397,82.20420027024875C76.0527700497405,79.9378113944988,78.29800153543147,76.71680965965743,79.64560046221413,75.04665471937733C82.0708590534723,72.04045052898618,82.08047981201344,72.00340101680331,80.57181652092368,71.34496292029053C72.30180608519186,67.25780267807704,68.58557693783041,60.43706158732539,66.47055091945185,57.119776976942376C65.53186163816281,55.64753244474514,64.45950346490463,52.98553859545427,64.087657019787,51.20464927114563ZM61.88020561673693,49.892907303644506C62.45971465405273,50.472416340959626,62.35888392734887,50.7213853223202,59.83467602749079,54.9361391694074C56.32301563424335,60.8006962787008,54.97129927473543,67.2565742394645,56.43476292584273,71.17830198949287L57.48957793468617,74.00482800839927L59.96874446644324,74.66403188636741C61.33204804940033,75.02632635899772,62.73749343593954,75.61279843491457,63.091749580218675,75.96705457919393C64.10203562131028,76.97734062028553,70.03033124913054,76.31235848897813,74.69132010011708,74.66546787339098C79.16687142516639,73.08430129892486,80.30209201865546,73.1515021011237,78.55852944803155,74.89506467174715C76.94763418870207,76.50595993107572,72.93616543034841,78.29449293250855,69.3054274063561,79.02069450240424C66.96063912026875,79.4895245959708,65.5178570330263,80.19215172634858,64.20647382029529,81.50353493908051C62.31566565601315,83.39434310336173,58.76178544997856,84.9563824635693,58.0257869453053,84.22038395889604C57.47922305901193,83.6738200726029,58.36355666509735,82.82097590156263,60.64962852031567,81.68932512316269C61.66349991253446,81.18725282124524,62.776255829741785,80.3423677976707,63.122011957646464,79.81139096605148C63.48744378630363,79.2503951885933,62.413655708436636,79.58215120215255,60.558625326470064,80.6034011050474C57.30969745644143,82.39201600184606,53.44110151728455,82.91010923617932,54.15642612657575,81.46098885033871C54.35839020667299,81.05254295162581,54.262014136727885,80.45661115031771,53.942628136306666,80.1372251498965C53.62312721093804,79.8177242245306,53.834387405993766,78.96110299843122,54.412262592968546,78.23363384082609C54.99005189273521,77.50605902885081,55.282539308089326,76.5451106684186,55.062433855395284,76.09865143763682C54.76633488387051,75.49833583483291,54.53169631335368,75.59353213823033,54.163128229089125,76.46298144297998C53.888939997536,77.11010112244753,53.293474000709466,78.20709958111479,52.839782323477266,78.90079285271577C51.307368656725885,81.24381046787767,50.61319768757494,78.49195694839818,51.83350132819942,74.91052030397213C53.62052216795382,69.66464169001529,53.62643587794082,69.59799014636883,52.277376340325645,69.9983442594853C51.41932191853448,70.25304271778236,50.806577576375275,71.24452221759884,49.99857007554601,73.6871455255523C49.39026467376971,75.52399859394404,48.71178318451166,77.2088395219921,48.490124107524025,77.43049859897906C47.67964079320518,78.24098191329767,47.321202998051376,76.99351598352632,47.549690396886945,74.1573815729505C47.72620547072802,71.96891378783266,48.21144959495723,70.8252646512517,49.518167757332776,69.51854648887593C50.47199265070776,68.56472159549935,51.58261032663722,67.85745216970554,51.98574193979039,67.94658240612989C52.42031300202689,68.04258150861733,52.80588877833179,66.79677336163422,52.93264581256517,64.88561500806782C53.194673067280746,60.94215866817194,54.41547876168079,57.200991458082626,56.49455056130864,53.968073206368445C58.30225510807941,51.1574569691677,61.05877956929726,49.07148125620415,61.88020561673693,49.892907303644506ZZM38.023092918041584,61.68887682965624C37.75944358815286,61.43214600665169,36.6205400869876,61.41595803548648,34.07521768080551,61.50140775559157C31.646770486324385,61.58289602287414,29.211420428355268,61.11627628386532,27.227252883501933,60.189394961050084C25.533784975237722,59.398377090757094,24.020195815443003,58.87913550751955,23.86382767628129,59.03550364668263C23.707499071440907,59.191832251521646,24.05969047385952,60.049628137033324,24.64663000297878,60.94177265555845C25.79936710477523,62.6941466325859,30.432629748152976,67.31096299674255,32.13492979572584,68.40344608038185C35.82435814627388,70.77094543699195,35.3864318580363,70.94109660238337,36.258231958241595,66.80198030368524C36.69153325925072,64.74517260694483,37.32543249223636,62.78233876751233,37.66716719798933,62.44060406175936C38.02442900990718,62.08334224984219,38.181294314974366,61.842907355294074,38.023092918041584,61.68887682965624ZZ" style="fill: rgb(0, 0, 0); fill-opacity: 1;"/></g></g><g id="shape-26199262-08e0-11ed-869f-e58ebeb8a75e"><g id="fills-26199262-08e0-11ed-869f-e58ebeb8a75e"><path rx="0" ry="0" d="M2,94.72869295189776L4.022977004926361,57.93295880613573L9.731613756814113,55.21521613417258L11.449151505357804,35.78452471125229L21.067916285961473,22L29.04205629014723,37.94492064529754L37.50112860198169,25.080787161059334L45.58687518590705,38.84395113265441L53.01334117161423,23.15807919626627L62.648126020683776,36.85779324027362L62.23104235803112,49.966738777999126L71.47017164560566,55.034760215813094L72,98.8731041538772L35.407160158525585,114Z" style="fill: rgb(255, 255, 255); fill-opacity: 1;"/></g></g><g id="shape-26199263-08e0-11ed-869f-e58ebeb8a75e"><g id="fills-26199263-08e0-11ed-869f-e58ebeb8a75e"><path rx="0" ry="0" d="M28.64668701706978,113.01860870659743C23.87786149263229,110.77951485845938,15.726512218187054,106.29146421036671,10.533392875686332,103.0450653959474C2.3117402140123886,97.90537770568608,0.9980214978459117,96.81117891785107,0.36694889058526314,94.57849154172936C-0.4120295340071607,91.82446257434322,0.15199037414095073,64.07368889945064,1.0986613157019747,58.55035920793921C1.730824318687155,54.858761981701036,3.9720427310076047,52.05639435174453,7.332567257082701,50.7556758952328C9.544265622493185,49.8991960239091,9.71608194545297,49.56181665090844,10.045836608644095,45.411778700025934C10.23895383668605,42.975371463099236,10.363531683164183,39.6557630327643,10.321641526043095,38.03480777211871C10.259275568741941,35.62153378327139,11.10773706591499,33.748554760178195,15.003689592975206,27.69645800656076C20.47998970023218,19.189049274621084,21.04456644613856,18.593804926165376,23.379456012973606,18.861405006602126C24.735941366910993,19.01700577607926,25.40256269400743,19.911865902763566,26.52196052851832,23.08108194284705C28.988608278863467,30.066158344876612,30.41605149174029,33.312296403137225,31.01382783023473,33.29713860771494C31.33246120237709,33.28905903152872,32.74679094034582,31.380509651382454,33.80959162335421,28.8967220457414C38.921158525628925,16.949524958460415,39.83253682895702,20.869152922865396,43.66703941056221,28.94448422616597C45.08871876246121,31.937605232263195,46.476815040367,34.380774180642675,46.75286071998926,34.37377449920746C47.02851923878006,34.36678463499811,47.936933083403346,31.770480529420638,48.7717313251851,28.60424806846345C51.37567405113805,18.73009329296474,51.684522609319174,18.01358137995203,53.34308071495798,18C54.52445646547494,17.990766665703177,56.04954993755564,20.0384559974932,60.088013002748994,27.056397510946226C64.05498059884667,33.72137038938672,65.43029630461206,34.00597263196187,65.01646647506641,41.1090269278011L64.72684864097755,46.09259923669515L71.0813698952461,50.17591382003684C76.1862549333855,53.45601790294381,74.03875132118083,54.99759965117619,75.45216575040831,73.396623193589C76.09383972652176,81.7511628079285,76.7206088505609,90.87815714835324,76.84412566862011,93.6788546550315C77.56351163208456,101.17277180559267,75.92863337464223,99.40424666977833,69.08169510791231,103.20576937567512C61.31850213672624,107.51624428893274,39.633185838580175,118.37807684600398,36.5820573553101,116.8547251502232C34.2169794189158,115.67382440273468,33.416673032943436,115.25763475268741,28.64668701706978,113.01860870659743ZL28.64668701706978,113.01860870659743ZM49.079283958792075,105.23689955027749C53.040276941528646,103.15570909004464,58.504556964053336,100.35953267218292,61.221825896631344,99.02312641788467C63.93948298112991,97.68674869673623,66.45028002723302,96.00632247282101,66.80210839418396,95.28891259970214C67.15393477896396,94.57142602583508,67.46554560861296,85.76164195210276,67.49444818127449,75.7116307139413C67.69246592987292,58.17387750806279,68.40273726448322,56.410357337671485,65.46710002346299,58.39654872737128C64.32311779302654,58.923286947347606,61.40460379155775,60.44773219852527,58.9806118502911,61.784300187552844C46.83660888154009,68.48121959916261,44.75033542896199,70.20341725823346,41.90337816348256,71.52852932354108C39.198446067057375,72.78764149013705,40.640991004640455,104.66658887896892,40.61879501865951,105.33680426337105C40.479690059582936,109.53343109247044,45.11828998497185,107.31805166013555,49.079283958792075,105.23689955027749ZL49.079283958792075,105.23689955027749ZM32.639935922627046,94.60095375940637C32.473706320261044,88.16863726919587,32.50329087858154,79.74906881705056,32.70605240333134,77.9407007971563C33.11966794955515,71.99866446185979,32.85754705486943,74.1035685375,23.113668776388295,70.50511114542087C17.27040469721942,67.75097754066974,10.800075729614036,65.60265266235774,9.545601882848132,64.73217744286376C5.610651662849705,62.18442976226834,6.8031474693416385,65.93352653906459,6.84983087650653,83.45068405123493C7.31485562864691,94.75893726122467,6.502099230458043,94.07086584907802,9.026037486670248,95.35749232471471C9.879128923226745,95.79241389502158,13.612860404753519,97.3749008543673,17.13782594440454,99.37909408928545C23.72181976333559,103.12237767150305,30.361290534303407,106.19402633235586,32.01103490364585,106.2591463496683C32.719176927123044,106.28712549455031,32.86985160648692,103.49762693672028,32.639935922627046,94.60095375940637ZL32.639935922627046,94.60095375940637ZM37.58681148530195,57.3921142895756C38.206052641186034,49.872465972191776,38.16053545675277,48.33602879286718,37.30038847944343,47.837966546500866C36.73485234430518,47.51160909511373,36.043418693125204,47.485547182374376,35.76279523939047,47.780133849913C35.481396472883716,48.074701801527226,35.31313729820977,52.132611308121795,35.38836721511507,56.79762561435564C35.551954505082904,66.99541365197001,35.49748910149901,66.38696958018909,36.243548042097245,66.36805178758777C36.57689352619127,66.35959915685135,37.1822530411082,62.320423878314614,37.58681148530195,57.3921142895756ZL37.58681148530195,57.3921142895756ZM33.341085857528014,58.634459948561016C33.53994159206741,55.41569928297281,33.82474374333651,51.55001241807395,33.97410791990842,50.04401585390542C34.20071975479368,47.76436749416689,34.082108068687376,46.847475897560344,32.43106456068017,46.19240380925703C31.866231878639155,45.96822249013235,31.28835346244705,45.61401038093118,30.973156547575854,47.95876406681782L30.874814661599885,55.11191905950682C30.768896879279055,62.81142634050275,31.34906778088589,65.06827623049435,32.05693585595327,64.81581413165168C32.630063106793386,64.61139936382824,33.11655260662155,62.26878767770222,33.341085857528014,58.634459948561016ZL33.341085857528014,58.634459948561016ZM41.10810150876932,64.32109090005679C42.080291214389945,63.92277682514191,42.2367276437526,62.39062071323042,42.04764760339094,55.07409799855577C41.922999930951846,50.25080980265557,41.517094121403716,46.31218613215833,41.145806874888876,46.321600850946425C40.774519628375856,46.33101556973497,40.34436505796111,49.57928058353127,40.19025131177477,53.53993325493366C40.03575040474425,57.50059574356078,39.78520351140287,61.65741321620226,39.63322211021659,62.777303438869694C39.33346781669934,64.98504874905552,39.37647445294169,65.0301623391299,41.10810150876932,64.32109090005679ZL41.10810150876932,64.32109090005679ZM24.93008998473124,55.402614718839004C24.830405617596625,51.2454679278344,24.907332487420717,46.09697832589336,25.110157602195613,43.96126563626649C25.406979394167138,40.84551511163204,25.26602790272591,40.083574641194446,24.398787618898496,40.10556522522529C23.540064873570373,40.12733983030603,23.21685029186483,42.296767260240586,22.827061031830453,50.659885673469944C22.35660056303641,60.74354315142682,22.65997262919518,63.0232225286436,24.465303630755443,62.97744480840356C24.824588891195162,62.96833442359093,25.033646951362243,59.55970168796648,24.93008998473124,55.402614718839004ZL24.93008998473124,55.402614718839004ZM21.0529668351046,50.26535666478185C21.494764014450993,43.989659847711664,21.464594905875856,40.52860891817022,20.963898415177027,40.057812076055825C19.624579591778456,38.7975208602802,19.334116123416607,40.54026484277756,19.126257079667994,51.056125819518456C18.86993072106634,64.05895073848501,20.11811606262563,63.5467624697867,21.0529668351046,50.26535666478185ZL21.0529668351046,50.26535666478185ZM50.113351790130764,52.18547825326914C50.48695661437705,48.62289351478512,50.91754701332684,44.79184703142232,51.06991557535184,43.67194699153015C51.255412773492935,42.30487454355739,51.02525620462984,41.644012968667084,50.353532145505596,41.66104585406674C49.64851225405255,41.67892302081668,49.17002897358179,43.83663038813711,48.70227430718842,49.10789255804639C47.90878980702837,58.05530663716809,47.9207677737013,59.64313480938927,48.77771841647882,59.08806237156523C49.13855495257121,58.85414731857236,49.73974597479719,55.74802464137974,50.113351790130764,52.18547825326914ZL50.113351790130764,52.18547825326914ZM17.242790337098995,49.39763312383934C17.793864859100722,41.72878244460594,17.736369418551476,39.938718281237016,16.921946425854912,39.45599808039333C14.946847837616588,38.28439639157341,14.630120215884745,38.95087455775888,15.184581163573966,43.10616022086174C15.495339086433887,45.43177967210545,15.554965348985206,49.9127569628788,15.316782954258088,53.06389943046361C15.00621615153068,57.17687897916085,15.122215222920204,58.787205447316865,15.727347617394116,58.77186112461982C16.26279106049151,58.75828390242532,16.81552307084712,55.33610132385684,17.242790337098995,49.39763312383934ZL17.242790337098995,49.39763312383934ZM55.22040428402579,48.98332895627118C56.05816614649302,41.10462446468364,56.10287063428041,41.515260062610196,54.41252640249695,41.558122067020804C53.10818152918546,41.59119629809243,52.96911811684913,42.25151929191179,52.91998286576927,48.670300906842385C52.889995692370576,52.56195373821788,53.01460508228956,55.88464553451604,53.196421296610424,56.05414489259647C54.01576515889428,56.817226880838916,54.60664117649503,54.751111692190534,55.22040428402579,48.98332895627118ZL55.22040428402579,48.98332895627118ZM59.51142937745135,52.312199304798014C59.69461878140646,51.800268376937765,60.059227746265606,49.11885983796219,60.32287481064668,46.35343624747293C60.8060848218538,41.27546335039983,60.29614261094321,39.862245047954275,58.52991512254994,41.39116550036988C57.32073176258018,42.438125221778364,57.17666624355843,53.293757080257365,58.37221892055277,53.263441489413935C58.816292405173954,53.252181132323585,59.328627134336784,52.82412041543262,59.51142937745135,52.312199304798014ZL59.51142937745135,52.312199304798014ZM43.20368532786233,41.25197552199211C44.37858011795652,40.60218909443984,42.67465258581797,33.913103944558316,41.892338182309686,34.52292607897698C40.6820225828651,35.466108769635866,38.659850742789786,35.05146791037373,35.44313505702485,35.08095850650648C33.588635904641706,35.09805008810213,32.97700616047405,40.00394163807141,32.32404117088117,41.28654513438096C31.87827599337288,42.161796130768835,40.144998208872494,42.94406879760595,43.20368532786233,41.25197552199211ZL43.20368532786233,41.25197552199211ZM60.14825781247964,35.77382298695875C60.47938242532655,35.55950371118388,58.77582565416196,30.908570603695352,58.143122078381566,31.02634751159212C56.384970952049116,31.353679613773238,53.98296553247019,33.09128975064982,51.984002783161486,31.970680222605097C51.202498440989075,31.532485151456058,49.765268969940735,36.64750488350023,49.772641645526164,36.93279331617646C49.78675369386292,37.478864292501385,59.11451192446839,36.44363124188112,60.14825781247964,35.77382298695875ZL60.14825781247964,35.77382298695875ZM25.329414150946832,33.25680705053469C25.271765569696072,31.775631209747417,24.623045740894668,28.44032579917439,23.58760495034403,29.164478371199948C22.069646625503083,30.226213655874517,20.655637413872682,30.018422561080342,18.33057976780765,29.936387367946054C18.33057976780765,29.936387367946054,16.19183760841952,33.30112069482334,17.43739984249987,33.75180198404064C19.738858331898882,34.58467670214077,25.368780542386958,34.255413991328396,25.329414150946832,33.25680705053469ZL25.329414150946832,33.25680705053469Z" style="fill: rgb(3, 3, 3);"/></g></g></g></svg>