<svg xmlns:xlink="http://www.w3.org/1999/xlink" width="84" xmlns="http://www.w3.org/2000/svg" height="122" id="screenshot-ae6bae01-08c7-11ed-8975-41b60a43f723" viewBox="0 0 84 122" style="-webkit-print-color-adjust: exact;" fill="none" version="1.1"><g id="shape-ae6bae01-08c7-11ed-8975-41b60a43f723" height="175.93204mm" width="121.04169mm" rx="0" ry="0" style="fill: rgb(0, 0, 0);"><g id="shape-ae6bae03-08c7-11ed-8975-41b60a43f723"><g id="fills-ae6bae03-08c7-11ed-8975-41b60a43f723"><path rx="0" ry="0" d="M68.37632958973336,20.525522057274657C68.37632958973336,20.525522057274657,83.22991027229727,11.620544283113986,69.83482166262547,2.8905942539704483C62.94855610199738,-1.5974517401332378,58.52967674152933,12.449517601924526,58.52967674152933,12.449517601924526L48.46088038699236,14.126695229176448C48.46088038699236,14.126695229176448,50.12540003170761,-4.5410249665999345,37.242175478255376,4.4464291168199C28.12202163220354,10.808797959795356,40.08645478313338,22.815039398343743,40.08645478313338,22.815039398343743C40.08645478313338,22.815039398343743,30.32129728556174,45.57392282229057,30.98717839769597,49.29291308382449C31.65305950982838,53.011884960091265,30.926560507672548,56.91316514723894,27.19370717747188,63.421365930705406C23.46085384726939,69.92958509943901,21.88735260539397,86.34091820588151,20.938710096912473,90.73032724073983C19.9898844528052,95.11973627559814,11.011294440550046,101.17626619647694,6.410744545637499,102.67115389811488C1.8101946507249522,104.16604159975304,-1.054962114767477,108.26784989771,7.50040148106018,108.04908360170566C16.0555819412657,107.83033569096915,30.079191996715963,106.40836395957672,30.079191996715963,106.40836395957672C30.079191996715963,106.40836395957672,42.266501196456375,114.72139128139315,54.4941002324631,111.07531699010497C66.72169926846618,107.42926108408369,80.38196825502928,103.65557465223219,79.31263937336189,89.56357979047402C78.24312735607236,75.47158492871586,73.05745915718217,60.99675364526797,73.05745915718217,60.99675364526797C73.05745915718217,60.99675364526797,83.2473081561402,53.212413070899856,80.5434938713388,44.662418038418764C77.83967958653739,36.11242300593767,68.37632958973336,20.525522057274657,68.37632958973336,20.525522057274657ZZ" style="fill: rgb(255, 255, 255);"/></g></g><g id="shape-ae6bae04-08c7-11ed-8975-41b60a43f723"><g id="fills-ae6bae04-08c7-11ed-8975-41b60a43f723"><path rx="0" ry="0" d="M43.47498282518427,0.010285125206337398C47.16269497305257,0.19772338704956383,50.26032543751353,3.023590032591983,50.79660809387315,7.777524139379693L51.23518951372898,11.664904888016736L54.65967201933745,11.664904888016736C57.7291543921674,11.664904888016736,58.10240579897072,11.448624325114451,58.25700914633853,9.577158962321619C58.96649529149727,1.0144448815385658,69.09855969968521,-2.873578030289991,74.37527109709117,3.392393527239392C78.47097450131332,8.256504490170983,77.8578308458982,17.145547557362306,73.2456200590841,19.767554910878516C71.91496630805705,20.524023150483572,70.82132205914604,21.569281351072732,70.82132205914604,22.090369259707586C70.81838422831788,22.611457168342895,72.04628734610742,24.836901229818523,73.55008950160482,27.035612955007764C75.05334081382534,29.23432468019655,77.47183659787697,32.764350786515024,78.92367587059198,34.88024180751836C85.75798845055033,44.839624134807536,85.68718672757677,54.44152338714025,78.73719705873373,59.982657829126765C74.95180203580458,63.00040283629414,74.88704122747185,65.31042896385225,78.26022186223054,76.87492570961354C81.25185171810153,87.13021683555303,82.11160791015209,94.38332165107954,80.80500764903627,98.33901021577412C79.61922568075897,101.93073903103755,75.80191847044989,105.67036720306669,70.19984230875343,108.7304399383147L65.87127908846014,111.09448116403928L74.11742135753593,113.03961181865884C80.788317097642,114.61320519818719,82.36321475919613,115.26841347624986,82.36321475919613,116.4690201266269C82.36321475919613,119.88156706393784,74.00022026890838,119.24982526364488,64.06667977897632,115.08686476824892C57.966641291794076,112.53044979786614,59.30425402959736,112.67352375693577,49.01927552676716,113.47356735596509C42.617925765203836,113.9714823471461,40.240210745345394,114.51170671888826,38.12074941678293,115.9490514166971C36.6294330423043,116.96020157805697,32.33355318998292,118.59547931901034,28.574231415661416,119.58307126500154C24.81564409904604,120.57060816843341,21.36903605500629,121.52133994723181,20.915508420808692,121.69589825020535L20.915508420808692,121.69589825020535C18.842685156652806,122.49322641631056,15.14158751706782,121.61933405025707,14.885996234961567,120.272534362452C14.541535570282576,118.4534328210475,18.424411492400395,116.06108137233696,25.451702834925527,113.76345816813478C32.149406281345364,111.57358994746892,32.724101075789804,111.04558502388545,30.20380945352008,109.39553752952725C28.338837720501033,108.17421652934422,27.931103524348146,108.18161057980615,24.960405713136424,109.49050429179238C20.2380262702427,111.57120476990053,5.250572128383283,111.5674618758701,2.066697967653454,109.48444961027235C0.3488013905043772,108.360498897443,-0.15375129564927192,107.44444393098661,0.038676623637002194,105.78518598170967C0.25827947809011675,103.89764819160928,1.1269226084004913,103.24631124021516,6.068904905750969,101.26747619180105C9.679131765511556,99.82183841506185,13.145919035054249,97.67982052592379,15.320281077230902,95.55071929069527C18.780127721440294,92.16316167529408,18.7954962489639,92.121384372806,18.306163801538787,87.44698676416783C17.467229485486314,79.42574468647013,21.166748040999664,68.31538574974866,27.362082415693294,60.251448993575195C30.072782198552886,56.72294573139675,30.12134821444488,56.52844367444641,28.972656360376277,53.78108606594651C26.165375389016845,47.06820562216194,27.90958391352615,39.28094946393321,34.69303529726312,28.236109520265472L38.43632753212296,22.142366130700793L35.68104616643541,19.725300572876904C30.674615205280134,15.33314286066934,31.107853445315413,7.516145372913343,36.62565058511245,2.6753541075936482C38.837359801700586,0.7350305031504831,41.26233717501964,-0.10251542626315313,43.47498282518427,0.010285125206337398ZZM43.77728561746699,3.4231990129123915C41.74449029835523,3.4231990129123915,38.848945872032346,5.334698663816198,37.54803765814722,7.535630438895851C35.72548085771996,10.617885325530779,35.817490046989406,13.955078999197212,37.814480552877285,17.228276523949717C38.71382401534902,18.701490622884194,39.565207389539864,19.906941018477028,39.706223269322436,19.906941018477028C39.84797360681296,19.906941018477028,41.293037507181,18.51603389317461,42.91802518436816,16.816172882674437C46.00862321628301,13.582826170835688,46.067857230367736,12.76113249849277,43.47962827018273,9.065428288763087C42.63720528001795,7.8621612480214935,41.947953444694576,6.656765894988212,41.947953444694576,6.386763794235776C41.947953444694576,5.371852391325319,44.76285441476648,5.947836079074932,46.21340838649121,7.2597020892617365C47.49705684425862,8.42073313952119,47.72141531236775,8.439961340227455,47.72141531236775,7.3876393445311805C47.72141531236775,5.983375224845304,45.17459140542269,3.4231990129123915,43.77728561746699,3.4231990129123915ZZM67.93405864347187,5.094547977709226C66.12496078052936,4.957088359685486,64.17848260345636,5.821219845227915,62.486236961729446,7.631312754431747C61.170455979274266,9.039172987989787,60.09352064320046,10.708246860336885,60.09352064320046,11.34022717838684C60.09352064320046,13.126138056549962,63.14655116339054,12.695099774884966,63.6320277078521,10.840697605466858C63.92342380318587,9.72687472354346,64.75650081902313,9.19264999076222,66.20228081565438,9.19264999076222C68.48681151391247,9.19264999076222,69.1165722749538,10.595262833669494,67.16805597774328,11.342373838198228C65.24175702617322,12.081246806355693,64.95836651984791,14.123289060335082,66.4898944537963,16.228850427714633C67.28182347658912,17.31676661174015,68.335733563541,18.218602250384265,68.83241058803833,18.232729840597585C72.27242687415492,18.33138445433451,73.93123632875904,9.12456234494175,70.95760068671734,6.435494806711631C70.0556682608294,5.620020943566487,69.0195320503899,5.177020079019485,67.93405864347187,5.094547977709226ZZM55.19042788145089,15.010446683172859C52.417170663375146,14.945881761145984,49.614718751439796,15.616226743009065,47.448509189813194,17.087092359414783C43.15486943349788,20.002586638972844,32.87483015875114,40.39187343773483,32.87483015875114,45.992674013972646C32.87483015875114,52.66753839681928,36.68817129743911,58.151813875077096,42.772786172768974,60.22849624635842C46.577644324937864,61.52726212743846,58.76723691553161,62.06367021507094,63.17049448464422,61.12614865049795C76.50457415893288,58.286980053131174,81.57196510978429,50.2944885388938,76.28350238906387,40.44506289751189C75.20770546243511,38.4416972151821,72.38132859068901,33.09372546120312,70.00223646263112,28.560750534856197C67.62369517784828,24.027775608509273,65.07099560924871,19.61860974548631,64.32919332497477,18.762734643834847C62.273758347033436,16.391060849891346,58.75605479694059,15.093487557595836,55.19042788145089,15.010446683172859ZZM60.420225792808196,31.71923936608391C61.19096571074624,31.852515749602844,61.74353496676122,32.667751094991445,61.74353496676122,33.966443585992465C61.74353496676122,34.986547336994136,61.17747005037745,35.56612713861614,60.18209624269002,35.56612713861614C58.18584019451009,35.56612713861614,57.367213634059226,33.50432460585807,58.8691796452913,32.25891331223329C59.41664442024194,31.80495897839137,59.957774497466744,31.639262527460687,60.420225792808196,31.71923936608391ZZM54.40791827875,32.26966495881152C55.93522308088177,32.26966495881152,56.609418533207645,34.65174179645783,55.41922981868447,35.84097298458482C54.63482898739312,36.624760681108455,53.95899936666683,36.52397775508052,52.8999113528771,35.465784553061894C51.61809903938047,34.18520106406186,52.52238172993384,32.26966495881152,54.40791827875,32.26966495881152ZZM63.27341037086808,38.132981847740666C64.31549568873379,38.22299477967181,66.5685365127938,40.69679086858582,67.5087341852286,42.9653332539724C68.91852575420853,46.3659543034405,68.26219598560783,48.8778581908914,65.4549150142484,50.82467681732851C63.88648058051331,51.91218935591951,62.587518679552886,52.09927901488754,62.66083592017458,54.490878215288376C62.681143675778,55.152985160779735,63.62176366139465,54.88287297490888,64.77014337093533,53.40299872630203C65.6073517113764,52.32414621703674,67.2942908961686,49.71472526207435,68.59505221851214,51.248632956367146C69.39570292657663,52.192796323092125,66.08036083625848,57.09167583596445,63.92215686364034,58.83092897138408C61.51074859646178,60.77483034217994,59.8162444972877,60.645755540685286,57.033751473545635,58.305933041041044C55.25966888179573,56.81442646490768,54.319048896177264,56.518040630743826,53.252451052334436,57.11442676046386C51.444932273463564,58.125191623908904,49.66445989966087,57.19649521633937,50.94865920070515,55.91288438657966C51.44166393666819,55.420106700930546,52.5460863524313,53.14242725070471,52.09946262068115,51.23061569196534C51.328190220905526,47.929034554148075,52.42600251730255,47.18995976327324,54.15509957448921,48.9178924790026C54.96498608822367,49.744117988725975,55.4245546370621,51.02521520827895,55.93887700797495,51.99324869820862C56.43004559966721,52.91018434561374,57.54168406240569,54.039749399488755,58.408344156905514,54.50348296136144C60.525969341202654,55.63583683823981,60.917986142421796,55.5705013203833,60.917986142421796,54.08457239025665C60.917986142421796,53.39039398022851,60.26846846905573,52.621486122228134,59.47488691642138,52.37595961283205C58.68112174936141,52.13045145095589,57.13060808368391,51.04407645858964,56.38893432950499,50.48011039628159C55.61474246034231,49.891411877339806,54.979620158037505,48.338496152578045,54.994180782083276,47.40869889382316C55.036669160444944,44.69522915431526,58.701723288048015,42.15976705149569,61.734850004373584,42.15976705149569C64.0551855158592,42.15976705149569,64.1955220222626,42.0103998931495,63.35475156193934,40.44076957788866C62.84632321412755,39.49539527485945,62.64770748865703,38.50862896725744,62.90825636028785,38.24802079662095C63.000338995329,38.15604468007609,63.12448070928804,38.1201202363909,63.27341037086808,38.132981847740666ZZM31.306212110590423,58.730953336225184L29.148393728268275,63.4260469471501C21.185036037910322,80.7573709754356,21.428839273816266,90.7048090673627,30.07505901744662,101.24844981381239C31.693252960843893,103.22185399637851,34.41665886204282,105.54942035282465,36.12574194670378,106.42087249875044C40.47832193402064,108.63967475807385,46.012864709540736,109.00851494776066,55.296226514172304,107.69839195195118C68.01960460491682,105.90264680319774,74.90485182687189,101.98466239160507,76.63817201587153,95.55248065259161C77.54761427181802,92.17747274070507,77.2722477159441,89.71683182345646,74.906743055466,80.0721278075298C74.07276632893627,76.67238743900975,73.13737935448444,71.59872945292659,72.82817265975245,68.79770534913564C72.27127010326512,63.75632065030618,72.24497651734782,63.71300215615861,70.16756289252226,64.50216567597158C58.32180667755529,68.38461094179388,48.22091999903569,65.50305957378714,43.01343124053528,64.38714507461145C40.702276450389036,63.8919088213147,37.122474501149554,62.41643797744973,35.05883195833485,61.10859007408999ZM31.685284094721283,61.939971236865176C32.796334991293406,61.939971236865176,32.938342388981255,62.26464894649553,34.55892331992436,68.51963033968968C36.81444293875029,77.22246442886149,41.707363461257046,84.46933108767053,46.86968307076495,86.75104699224289L50.590390731133084,88.39551684059506L53.598876391381054,86.70626069651462C55.253058762431465,85.77714229599087,57.16253863250495,85.01698620491447,57.84172839724124,85.01698620491447C59.77867698556474,85.01698620491447,64.8241627353018,78.89722603233349,67.71351935543862,73.04236735001223C70.48811695882978,67.42063225373067,71.64077488451585,66.42931576122874,71.64077488451585,69.66600172166318C71.64077488451585,72.6564089243916,69.50983765427736,78.0398647815814,66.72550848626634,82.0838966539086C64.92718879017775,84.6954459211629,64.21766592213498,86.68677563053188,64.21766592213498,89.1211795945269C64.21766592213498,92.63120690430969,62.308259497831386,97.37971014524896,60.89718262786482,97.37971014524896C59.84929509411268,97.37971014524896,59.87948130587756,95.76729341391342,60.986125456209265,92.5950255953478C61.476743204621016,91.1879543051391,61.733527980501094,89.37090768594726,61.55597282978488,88.55714014213936C61.36850250002135,87.69724693366084,60.65718021059365,89.00184732602361,59.857906610730424,91.67155823090957C58.45803022079781,96.3473135560098,55.24619158286805,100.41895844557212,54.542764713794895,98.40996007467675C54.34482836170355,97.84338866456255,53.68117237747356,97.37971014524896,53.06883662553446,97.37971014524896C52.456280536283884,97.37971014524896,51.8376284480637,96.38852208538515,51.694225580731654,95.17692527067379C51.55063909897399,93.96531010844274,50.90984311087959,92.80189388061444,50.27086490561305,92.5917964318703C49.41154938818545,92.30942810280135,49.277878085475095,92.61557481747627,49.75802981155721,93.76467997989334C50.11552710054093,94.61982118075457,50.596303115675255,96.19073582239844,50.82637199245801,97.25571760672733C51.60342824667896,100.85282224527964,48.3000210941027,98.94291882859466,46.03660605492769,94.48603106668247C42.72089673575465,87.9582220546929,42.66267260101449,87.89086830966266,41.75323034507164,89.51464215572832C41.17484490064817,90.54747908544164,41.5379057067621,92.03649039888774,43.1048712250813,95.05366663294262C44.282574158583884,97.32321813191561,45.247284356995806,99.51681089909198,45.247284356995806,99.92829072469522C45.247284356995806,101.43284238737601,43.70784264125177,100.6076626862789,41.20811583478462,97.76313661314293C39.27942989566873,95.56800265430661,38.64827366498139,94.05609363620329,38.64827366498139,91.63034970153376C38.64827366498139,89.85970395980917,39.03492892493887,88.17237430530326,39.50681800181701,87.88092395395415C40.01542996405624,87.56666763554631,39.19079921185039,86.0524468299534,37.48024721177353,84.16089093302594C33.95117792865858,80.25743775708156,31.535124216483382,75.65182500001424,30.429030909435824,70.7213327105992C29.467625770703307,66.43469158451762,30.110423156049364,61.939971236865176,31.685284094721283,61.939971236865176ZZM20.12330397637561,95.03251194266181C19.624460301642102,95.03893357457719,18.5171735008189,96.08101765424817,16.159105224629457,98.52285236374496C13.909277653034223,100.85252868496354,11.127408918346191,102.67986826273955,8.336836859823961,103.66122205201304C5.955174129789157,104.49885971902563,4.006474218149378,105.42179500539123,4.006474218149378,105.71207111547551C4.006474218149378,106.00227383548145,5.166384913694856,106.47156669584047,6.584255517449492,106.75485240089779C9.369135528741026,107.31142441274392,18.23639031935454,107.29615927630539,20.915508420808692,106.73013829178399C26.72176382510952,105.50314790799621,26.465070856440434,106.06755431077863,23.332975964069192,101.41651309479198C21.77666008250526,99.10523933589002,20.50272482791661,96.69499905541579,20.50272482791661,96.06061521227775C20.50272482791661,95.39740741560058,20.422613853505027,95.02864061599303,20.12330397637561,95.03251194266181ZZ" style="fill: rgb(0, 0, 0);"/></g></g></g></svg>