<svg xmlns:xlink="http://www.w3.org/1999/xlink" width="300" xmlns="http://www.w3.org/2000/svg" height="183" id="screenshot-09956584-0813-11ed-bb45-377194cd868a" viewBox="0 0 300 183" style="-webkit-print-color-adjust: exact;" fill="none" version="1.1"><g id="shape-09956584-0813-11ed-bb45-377194cd868a" width="90.015106mm" height="94.477547mm" rx="0" ry="0" style="fill: rgb(0, 0, 0);"><g id="shape-09958c77-0813-11ed-bb45-377194cd868a"><g id="fills-09958c77-0813-11ed-bb45-377194cd868a"><path color="#000" overflow="visible" rx="0" ry="0" d="M10.222078936838443,12.744882524897548L9,156.95099440959257C12.763367361851124,166.17831292741266,50.174523717259945,174.91739120195143,64.88008918986088,180L287,173.11675815230956L286.469313987689,15.806685056036258C286.469313987689,15.806685056036258,273.01143459727973,6.170947602070555,260.1760737404493,6C172.49809105751046,9.83141249790242,10.618548187298074,4.258570869236792,10.222078936838443,12.744882524897548ZZ" style="fill: rgb(255, 255, 255);"/></g></g><g id="shape-09958c78-0813-11ed-bb45-377194cd868a"><g id="fills-09958c78-0813-11ed-bb45-377194cd868a"><path rx="0" ry="0" d="M12.369463889610415,168.829257684597C5.309971313470669,164.74836018949918,4.979293085301833,164.15605557760773,2.5723456604337116,151.24119724202046C4.288750175097448,116.04533325950797,3.907568460192124,92.90175823964182,3.306094267016306,69.02246782996326C3.160105385179122,63.226523555769745,3.0011385790385248,57.38723663678047,2.856037437950363,51.3217502679513C2.236348211437871,33.94266254289141,1.1707309721405181,17.442709551709868,0.4872110956857796,14.65556104379175C-1.9277151604255778,8.113612108062625,5.098089017135862,5.665870019683098,11.367677300255309,5.1713996528728785C26.500860557160195,3.97813960637086,9.28697541953261,4.344169855306973,125.21584722811895,3.0883553407356885C158.11611458881453,2.7323083872111056,201.74170421324925,1.839864301083253,222.16219297362113,1.1051388578252954C269.6770195604513,-0.6038854941102727,266.59098494315003,-0.7489661459703711,277.8287254800325,3.7205880093806627C290.54609594402245,8.77912071978335,292.4387275923764,13.866265718833802,295.93966143429316,32.34876895658044C297.46794797199254,40.415002426912,298.2100469802572,48.833116263446755,298.44158280175,71.74696915223285C298.4819422568744,75.74112699523266,298.5067884294094,80.17573276331132,298.517581137914,85.12569808140279C298.5335078215412,92.43030855582037,298.518830857196,100.8571962292176,298.4782414410802,110.64709316288327C298.4313588341138,121.95486583113734,298.34990566790293,135.081068989929,298.2411109793975,150.39666579901768C298.1613226669706,161.217835415604,299.9964538527802,173.4126152577728,300,174.6584464769321C300,177.8761784108974,298.8635842460899,179.0847413937954,288.68170904365434,180.32658031976916C237.6340332899399,183.23818177727026,180.57120531606415,182.7969488194649,138.62382986300145,182.97730412344026C96.08070167715414,183.1596530115621,60.10415160401135,182.17203962573967,52.6687674226614,182.5440557520069C45.670445886045854,183.01856465288802,21.824378912157044,174.25381551904138,12.369463889610415,168.829257684597ZL12.369463889610415,168.829257684597ZM165.43802205916109,172.3724255743973C211.70194521449957,172.10089838880867,256.7052130335014,173.44123267131454,269.82507120684386,172.29256433599494C280.6026991420622,171.34887130011248,270.6486638984461,168.0173359483233,265.1228799945038,167.8762475896492C251.53758999867205,167.53018393153798,222.0079355695998,167.85631174819537,161.31296630670658,167.6093789335937C100.61799704381338,167.3611443956679,47.47809443090955,166.86800137665614,43.22360430496701,166.5139531321729C33.64457412975389,165.71600698449765,34.03287725023074,166.40747318926879,42.51260178756638,170.44045291634575C47.690863264051586,172.90283682967038,56.164382043751175,172.67123770083526,66.29395157470753,173.2622098400334C101.06658466701083,172.8975120637906,136.86316776879357,172.54944969663939,165.43802205916109,172.3724255743973ZL165.43802205916109,172.3724255743973ZM288.68170904365434,139.7618476135276C289.64563081495,126.47802818965192,289.5247261657187,99.45198226389857,288.77963292943423,75.72390420120155C288.1425242201476,55.43467803164776,287.04904070062366,37.556757497737635,285.787166376178,32.74342174395406C281.152351961,15.064184294868028,272.287870450411,9.571742101580185,273.6318602463962,24.30011114786157C275.6841929493694,46.79961981504766,277.12481525707153,78.36602092425119,277.88989651956035,117.6057325341717C278.3508956580263,141.21531395261718,282.4945686833762,151.4921018502282,281.32079395389883,160.62886711034116C281.30306321780336,160.79391435302568,285.93965070659215,163.67157363110437,287.5194592926382,163.67157363110437C289.8084973224777,163.67157363110437,287.4574017163086,156.62849708999238,288.68170904365434,139.7618476135276ZL288.68170904365434,139.7618476135276ZL288.68170904365434,139.7618476135276ZM267.13950400916474,160.62886711034116C269.1797581892697,159.44830660864136,269.9573121126159,140.21045268174475,269.82507120684386,116.03057630315561C269.7285710864144,98.385801648511,269.1476002352156,78.10937296370957,268.2192924366791,60.29768885439353C267.02628643052776,37.407171123546505,265.25962349291876,18.58739167965723,263.2103728905586,14.65556104379175C262.2201112796629,12.7562032173646,251.96667381216866,9.64494610140946,237.9762364965718,10.201976061184723C217.6107130180917,11.013231561111752,163.11440909393968,11.843787415516545,78.16024670614752,12.63840238145849C18.040639829530846,13.200757107113986,23.657737024363087,13.39908029287335,19.285337503384653,15.251852823974332C15.65408275117079,16.79117652858713,11.746228515878101,14.482529214736132,8.888033857398113,24.30011114786157C12.125666268308123,55.10650058199826,10.485573179539642,79.96191321960396,12.369463889610415,114.58832249500756C11.416990910018285,125.89027836820833,8.362985032066717,142.26038303148198,11.367677300255309,150.39666579901768C13.70466017551189,156.72488572932252,22.007227128136947,156.1475346651132,22.98928827358759,156.73363943530876C23.884690446375316,157.26804298376737,31.471672421335825,158.00742183166403,39.85033176293109,158.3774443737857C48.22899110452454,158.74680580445602,55.24681645084456,159.1194881670699,55.44540069510731,159.20467417135205C55.64398493937006,159.29052641197995,100.9229657046435,159.3124865869495,156.06466842264854,159.25125946667868C232.02846107357072,159.17073199192964,265.23256334216785,161.72895144129416,267.13950400916474,160.62886711034116ZL267.13950400916474,160.62886711034116Z" style="fill: rgb(3, 3, 3);"/></g></g></g></svg>