<svg width="308.993" xmlns="http://www.w3.org/2000/svg" height="350.869" viewBox="-55.536 -28.905 308.993 350.869" style="-webkit-print-color-adjust:exact" fill="none"><g style="fill:#000"><path color="#000" overflow="visible" d="M247.99 59.67c-28.686-6.683-72.922 19.405-97.786 43.628-21.995-8.795-47.407 25.006-47.407 25.006 5.828 9.714 38.921-12.066 38.921-12.066l-13.803 28.695 21.837-8.465 7.665 2.25-17.562 30.45s8.737 18.18 40.475-34.823c22.837-25.216 61.538-36.676 67.66-74.675ZM52.86 138.504c-4.214-2.102-10.736 1.696-15.844 9.228a20.93 20.93 0 0 0-6.193-3.555c.862-4.513-.627-8.527-3.75-10.11-3.655-1.85-8.577.095-11.702 4.625-8.227-4.094-18.204-.807-22.343 7.363a16.637 16.637 0 0 0-.956 12.726 16.751 16.751 0 0 0 8.343 9.698 16.749 16.749 0 0 0 13.365.777c-2.837 2.256-5.248 5.249-6.979 8.666-5.327 10.516-3.048 22.384 5.091 26.507 3.909 1.98 8.673 1.873 13.246-.298s8.58-6.228 11.138-11.278c1.563-3.087 2.522-6.42 2.795-9.716 4.629.697 8.93-1.29 10.805-4.99 1.605-3.168 1.162-7.074-1.164-10.258a38.371 38.371 0 0 0 4.164-6.527c5.087-10.043 5.093-20.27-.016-22.858Zc.02.01.01.005 0 0Zm51.272 81.832c-16.775-4.804-22.926 2.767-34.9 12.227-6.906-10.972-25.219-10.224-30.56-1.461-5.528 2.054-10.19 6.28-12.96 11.747-5.762 11.375-1.92 24.908 8.581 30.228 9.526 4.825 21.45 1.27 27.895-8.317 11.703 7.805 22.544-1.979 19.47-13.22 5.296 1.343 10.11-.143 11.898-3.673 1.423-2.81.685-6.461-1.95-9.648 7.844-4.521 25.643-8.07 12.526-17.883ZM-.89 212.47c-2.193-1.111-4.991-.806-7.779.848-2.787 1.655-5.335 4.523-7.083 7.974-1.902 3.755-2.68 7.85-2.134 11.23a12.822 12.822 0 0 0-2.488 3.39c-1.424 2.812-1.764 6.027-.944 8.94.82 2.914 2.73 5.285 5.314 6.594a10.245 10.245 0 0 0 5.603 1.045c1.21 2.48 3.33 4.585 5.958 5.916 5.919 2.998 12.784 1.348 15.335-3.686 1.839-3.63.97-8.198-2.214-11.627a19.759 19.759 0 0 0 3.569-2.574c2.873-2.6 4.88-5.922 5.577-9.235.698-3.313.03-6.345-1.855-8.43-2.803-3.098-7.853-3.637-12.896-1.377.222-4.274-1.258-7.638-3.963-9.008Z" style="fill:#fff"/><path d="M247.508 57.524c-.244-.13-.505-.251-.78-.369-26.32-8.307-71.205 14.587-90.82 37.345-1.223 1.029-2.955 3.028-5.894 6.802-1.288 1.654-1.99 1.53-1.58-.28-3.178-7.24-14.876-3.315-21.388.869-3.523 2.01-9.65 6.615-11.204 8.42-.586.682-2.734 2.473-4.773 3.982-2.04 1.51-3.863 3.051-4.053 3.427-.19.375-.643.789-1.006.92-.362.13-1.81 1.635-3.216 3.342-4.058 4.927-4.234 9.076-.444 10.47.8.296 1.96.76 2.575 1.034 7.583 1.796 18.836-8.821 29.29-11.882 2.442-.998 4.69-1.685 4.997-1.526.306.16.42 1.9.251 3.869-.316 3.946-1.017 10.226 4.186 10.77 0 0-.333.312-1.112 1.03-3.273 2.439-4.577 3.714-7.429 4.899l-1.961 1.25.332-1.59c.182-.874.686-1.952 1.119-2.393 1.158-1.183 2.097-3.394 2.24-5.278.174-2.312-2.01-3.457-3.71-1.944-2.742 2.444-5.39 5.758-6.535 8.18-1.486 3.142-.968 5.72 1.65 8.206 4.154 3.568 11.114-1.98 17.866-6.058 1.084-.604 2.398-1.595 2.92-2.202.744-.867 1.542-1.012 3.717-.676 3.412.527 3.34.489 2.828 1.51-.23.464-.928 2.197-1.546 3.855-1.313 3.522-3.378 6.21-8.843 11.512-12.747 12.364-12.525 12-9.208 15.12 7.44 6.723 15.115.726 23.062-3.284a186.45 186.45 0 0 1 3.413-2.547c1.908-1.34 9.415-7.85 11.78-10.217 3.01-3.011 6.447-9.152 6.99-12.492.195-1.196.124-3.328-.158-4.74l-.512-2.566 3.228-1.772c24.168-13.624 50.37-39.345 61.016-56.284 3.155-4.818 10.292-14.706 2.712-18.712Zm-3.421 4.713c.23.139.393.302.482.491 1.04 3.222-4.659 13.715-19.43 29.456-1.48-2.945-6.69-12.047-9.99-16.309-1.55-1.98-4.757-4.684-5.789-7.485 12.603-4.83 31.269-8.237 34.727-6.153ZM203.93 70.01c2.63 1.025-5.739 6.418-17.104 14.462-7.364 4.094-15.308 10.783-22.475 16.838-3.336 2.179-4.38 3.013-7.42 5.923-1.422 1.36-2.827 2.494-3.123 2.519-.966.081-.183-1.747 2.045-4.828 4.01-5.543 7.671-7.77 11.243-11.355 9.21-9.135 22.462-18.299 36.834-23.56Zm3.836 5.096c.249.102.515.354.801.768 7.288 8.855 11.388 16.64 11.523 19.939-.787 1.351-1.808 2.806-5.3 5.42-2.02 1.224-2.292 2.092-1.79.734.683-7.043-1.507-9.554-3.105-11.946-5.36-7.313-14.193-4.029-20.132 2.065-1.363 1.879-1.774-1.022-3.933-.058 0 0 .557-.986 2.168-2.069 5.396-3.8 16.054-11.322 19.077-14.713.213-.191.443-.241.691-.14Zm-3.88 15.154c.681.34 1.289.868 1.79 1.612-2.472-1.782-4.358-1.072-6.041-.447-.835.522-1.177.669-.752 1.963.426 1.295.398 1.336-.986 1.498-2.642.31-3.117 3.318-.97 6.163 1.555 2.063 2.816 2.528 5.114 1.887 4.263-1.19 6.6-4.966 5.132-8.269-.531-1.195-.9-2.024-.552-1.848 1.896 1.15 2.253 5.45 1.38 7.37-2.702 4.764-9.542 7.75-15.954.276-4.014-3.517 6.298-12.986 11.84-10.205Zm-2.84 4.553c1.614.818 3.237 3.027 1.921 3.946-1.105.767-3.4.295-3.063-2.058-.366-2.406-.252-2.594 1.143-1.888Zm-18.64-1.01c.36.182.557.521.44.754-.405.8 2.126 2.283 3.339 1.958 1.06-.284 1.173-.15 1.187 1.406.033 3.602 2.207 6.294 7.074 8.756 2.813 1.425 6.63 2.109 7.795 1.399.677-.413 2.013.208 1.715.796-6.232 8.173-16.635 13.065-25.22 18.551-.154.303-3.225 1.52-6.825 2.708-5.186 1.704-6.68 2.1-8.494 1.362-.919-.573-5.736-5.342-6.81-6.842-.682-.95-2.078-2.882-3.106-4.294-1.027-1.412-1.76-2.778-1.63-3.037.241-.474 1.925-1.925 5.455-4.702 5.14-4.068 10.574-9.22 16.871-13.238l.49 2.59c.336 1.22 2.709 2.586 3.516 1.734 2.07-1.542 2.862-2.235 1.107-4.664-.566-.784-2.016-1.208-3.268-.886-.307-.523 5.731-4.672 6.364-4.351Zm-13.263 11.26c-.697-.32-1.393-.37-1.812.01-1.114 1.006-2.015 3.158-1.71 4.083.466 1.42 1.942 1.813 3.89 1.037 2.24-.893 2.345-1.065 1.749-2.878-.322-.979-1.221-1.84-2.117-2.252Zm-25.395-1.967c2.366 1.234 1.602.957 2.561 1.297.416.211-3.62 7.709-4.775 8.874-2.822 1.818-2.84-1.51-13.57 3.515-1.499.731-3.064 1.454-3.478 1.607-.414.152-2.236 1.061-4.049 2.02a210.265 210.265 0 0 1-7.063 3.52c-2.071.977-3.861 1.964-3.978 2.194-.116.23-.428.309-.692.175-.264-.134-.397-.405-.296-.602.288-.558 5.063-5.005 10.786-10.044 3.737-3.289 9.193-8.62 18.238-11.69 3.953-1.373 5.025-1.52 6.316-.866Zm15.553 9.983c-2.018-.92-4.032.906-2.947 3.276.207.452.995 1.123 1.75 1.49 1.271.617 1.444.526 2.326-1.216.852-1.681.822-2-.274-2.98a3.41 3.41 0 0 0-.855-.57Zm-12.806 6.777c.37.151 1.868 1.924 3.477 4.126 1.715 2.348 3.786 4.912 4.6 5.696.815.784 1.75 1.69 2.076 2.016 2.45 1.997-7.866.98-11.09-.854-1.15-.418-1.76-1.413-1.435-3.225.515-2.585-.098-4.184 2.372-7.76Zc-.045-.013-.025-.01 0 0Zm29.3 16.797c-.249 3.91-3.06 9.416-8.1 14.41-6.21 6.045-13.558 11.637-21.14 15.427-2.564.656-4.08.352-3.543-.71.174-.344 1.364-1.436 2.643-2.426 3.75-2.905 10.607-10.513 12.65-14.037 1.985-3.427 3.687-8.682 3.132-9.674-.382-.683-.577-.62 3.534-1.13 3.796-.484 7.032-.657 10.823-1.86Zm-67.17 11.389c-.46-.24-1.559.035-3.911.795-7.3 2.387-14.887 7.461-22.027 11.71-9.918 5.431-20.629 14.223-30.387 21.702-2.432 1.853-4.58 3.681-4.774 4.064-.193.382-.863.97-1.49 1.307-1.964 1.056-10.974 9.209-16.31 14.759-2.653 2.759-2.814 3.035-2.644 4.54.134 1.196.492 1.673 1.413 1.882.678.154 1.628.413 2.11.574 1.217.408 1.88.082 3.989-1.971 3.354-3.265 11.341-10.801 12.252-11.56l2.022-1.687c.618-.515 2.622-2.21 4.454-3.767 5.093-4.31 9.82-7.728 14.84-11.755 4.99-4.076 10.058-7.565 15.087-11.329 7.545-4.8 14.955-9.593 21.482-14.77-.032-1.85 4.01-1.174 4.16-3.503.054-.52.009-.848-.267-.991Zm9.63 6.832a1.026 1.026 0 0 0-.341-.093c-1.43.565-5.98 2.001-8.62 3.707-.158.312-1.186 1-2.284 1.53-2.754 1.34-5.78 3.668-8.706 5.304-1.858 1.364-3.747 2.7-4.2 2.967-10.486 6.391-17.664 12.579-28.614 21.338-7.304 5.357-14.645 11.892-22.132 17.7-3.473 3.127-9.312 7.174-13.75 12.03-.417.298-1.453 1.546-2.303 2.773-1.525 2.202-1.53 2.249-.319 3.76 1.066 1.328 1.38 1.493 2.402 1.261.646-.146 1.545-.653 1.997-1.125.453-.473 1.633-1.262 2.623-1.754.99-.492 2.68-1.94 3.754-3.218 1.074-1.278 2.497-2.725 3.163-3.216.666-.49 2.67-2.32 4.455-4.067 15.952-15.534 41.089-33.231 50.357-40.44 3.348-2.484 25.238-17.063 22.519-18.457Zm-63.288-19.682c-2.438-1.183-5.5-2.03-7.21-1.771-4.194.635-5.744 1.205-8.516 3.128-2.917 2.023-3.708 2.084-4.112.318-1.017-4.449-8.033-7.967-14.356-7.198-1.553.189-3.333.352-3.956.363-.623.011-1.306.343-1.516.738-.568 1.067-3.26 1.316-5.266.487-4.886-2.017-17.084 5.55-20.814 12.915-1.097 2.166-1.364 3.356-1.162 5.19.708 6.446 5.19 15.85 8.678 18.212 3.462 2.37 3.56 3.422 8.237 3.745 1.37.693 1.37.727.01 2.263-2.68 3.03-3.162 3.869-4.39 7.641-2.29 7.031-1.468 12.291 2.575 16.497A220.28 220.28 0 0 0 5 199.61c.042.037.737.138 1.545.224 2.001.213 2.456-.996.864-2.296-2.443-1.994-2.783-4.512-1.387-10.26.937-3.855 1.704-5.886 2.917-7.712 1.878-2.829 6.41-6.883 8.606-7.698 2.513-.933 2.403-2.286-.306-3.758-2.085-1.133-2.59-1.18-4.601-.431-1.333.496-3.2.642-4.553.356-1.261-.267-2.501-.358-2.755-.203-.73.445-4.986-1.147-5.701-2.132a80.258 80.258 0 0 0-1.6-2.095c-1.284-1.626-3.675-8.304-4.07-11.371-.373-2.89.532-5.01 3.642-8.526 2.147-2.428 6.216-5.619 8.146-6.389.803-.32 1.624-.07 3.338 1.015 2.567 1.625 3.41 1.589 6.551-.286 1.122-.67 3.82-1.813 5.994-2.542 3.3-1.107 4.232-1.186 5.633-.476 1.327.672 1.744 1.272 1.984 2.855.465 3.057-.334 6.49-2.173 9.348-2.044 3.174-1.87 4.22.943 5.645 2.613 1.323 3.051 1.082 9.114-5.02 2.518-2.534 4.998-4.8 5.513-5.036.515-.236 1.482-.83 2.15-1.32 3.052-2.237 6.784-2.922 8.38-1.538 1.3 1.126 2.035 4.928 1.423 7.358-.795 3.157-5.376 8.615-8.607 10.254-1.04.528-2.007 1.19-2.15 1.47-.142.282-.475.403-.739.269-.919-.465-1.147 1.093-.361 2.458 1.206 2.093 3.02 2.736 5.469 1.936 1.193-.39 2.275-.654 2.405-.588.323.163-1.125 1.66-3.325 3.434-3.035 2.448-4.057 4.12-3.519 5.76.646 1.964 1.858 2.435 4.179 1.622 2.148-.753 6.89-5.514 8.65-8.686.956-1.725.931-2.035-.295-3.763l-1.336-1.884 1.596-2.202c.878-1.212 2.408-3.824 3.401-5.806 1.54-3.072 1.764-3.993 1.53-6.253-.272-2.638-1.4-5.361-3.24-7.826-.587-.785-1.825-1.615-3.287-2.325Zm57.963 36.3c-.227-.124-.781-.144-1.837-.018-3.057.387-5.592 2.202-8.247 3.614-7.514 4.133-13.05 8.027-22.975 16.406-3.533 2.653-3.704 2.973-2.459 4.615.733.966 1.317 1.306 2.214 1.288 6.338-.151 8.158-4.804 14.33-9.124 5.55-4.167 11.308-9.328 16.805-13.956.57-1.145 2.848-2.454 2.169-2.825Zm-9.314 46.78c-2.217-1.112-4.702-2.129-6.094-2.419-3.935-.82-9.739-.583-13.641.558-4.418 1.292-7.772 4.04-11.924 9.77-1.449 1.998-2.756 3.57-2.905 3.49-.149-.08-1.17-1.002-2.267-2.051-2.219-2.122-7.522-5.01-9.154-4.985-.581.009-2.486-.11-4.233-.265-2.85-.253-9.152.773-11.654 1.898-.523.236-1.89 1.149-3.036 2.028-2.018 1.549-2.088 1.673-2.185 3.862-.125 2.809.994 3.489 3.364 2.044 3.03-1.847 13.336-4.496 14.792-3.802.351.168 1.203.204 1.891.08 1.617-.292 5.34.95 7.256 2.419.826.633 2.02 2.352 2.652 3.82.633 1.468 1.657 2.926 2.277 3.24.62.314 1.153.872 1.184 1.24.09 1.042 2.755.122 2.83-.976.149-2.163 1.3-5.065 2.664-6.71.809-.975 1.945-2.469 2.525-3.319 3.122-4.575 11.12-8.176 16.07-7.233.711.135 2.107.285 3.1.331 4.871.228 9.94 3.533 8.816 5.75-.952 1.88-2.694 3.095-4.206 2.934-.8-.085-2.294.38-3.318 1.033-1.025.654-2.362 1.2-2.972 1.214-.609.013-1.419.467-1.799 1.008-.482.686-1.172.852-2.281.548-2.52-.691-4.42-.48-4.521.503-.165 1.608.676 4.685 1.389 5.084.388.216 1.16 1.03 1.718 1.807.557.777 1.204 1.51 1.438 1.628.234.119.644.882.911 1.695.442 1.344.347 1.614-1.03 2.941-2.07 1.996-6.824 3.468-10.089 3.125-1.485-.156-2.837-.015-3.003.313-.316.624 1.406 4.617 2.155 4.996.966.49.477 3.246-.958 5.404-2.083 3.131-4.254 4.578-7.941 5.295-2.98.58-6.026-.015-5.491-1.07.305-.604-1.74-6.222-3.007-8.26-1.17-1.883-2.196-2.532-4.363-2.763-1.454-.155-1.483-.123-1.3 1.496.102.91.774 3.422 1.493 5.581 1.27 3.816 1.27 3.978-.036 5.806-2.193 3.07-7.518 6.282-9.094 5.484-.302-.153-.64-.097-.753.125-.25.492-8.894.268-10.721-.278-.721-.215-2.212-.827-3.314-1.36-1.756-.85-2.109-.833-2.867.148-.708.916-.687 1.157.117 1.332.54.117 1.618.716 2.394 1.33 4.123 3.27 13.87 5.729 18.558 4.684 4.59-1.024 8.63-3.302 10.711-6.041 1.693-2.229 1.908-2.344 3.304-1.759.822.345 2.33.854 3.35 1.132 1.02.279 1.999.625 2.174.77.176.144.422.061.546-.185.125-.245.734-.363 1.355-.262 1.865.305 7.18-2.66 9.52-5.311 1.832-2.077 2.206-2.786 2.58-4.895.242-1.357.362-3.156.267-3.998-.167-1.488-.093-1.544 2.605-1.965 7.933-1.24 11.03-7.02 7.45-13.904-.63-1.215-1.465-2.368-1.853-2.564-.387-.197-.806-.799-.929-1.337-.182-.796.437-1.216 3.3-2.243 1.937-.696 3.794-1.127 4.124-.96.548.278 4.323-.819 7.377-2.143 3.592-1.557 4.038-4.906 1.217-9.13-1.094-1.637-2.502-3.342-3.13-3.79-.842-.6-2.075-1.302-3.405-1.969ZM.677 208.537c-2.528-1.205-5.41-1.15-8.789.146-2.844 1.09-7.286 4.198-8.008 5.602-.215.416-.612.83-.885.919-.273.089-1.331 1.598-2.351 3.354-1.52 2.616-1.853 3.665-1.847 5.807.02 5.351 1.837 10.205 5.466 14.603 1.19 1.443 2.792 2.415 3.046 1.848.091-.202-.576-2.884-1.481-5.957-2.47-8.385-1.948-12.05 2.338-16.432 2.615-2.674 9.538-5.922 11.021-5.171 1.651.836 1.34 4.01-.818 8.34l-1.958 3.929 1.564 1.91c.86 1.05 2.046 2.014 2.635 2.142.599.13 2.304-.637 3.868-1.74 1.538-1.084 3.32-1.995 3.96-2.024.64-.03 1.91-.285 2.824-.568 1.657-.512 3.064-.207 3.116.675.083 1.382-8.446 11.114-10.528 12.014-1.506.651-3.009 4.057-2.367 5.366.784 1.601 4.14 3.258 6.727 3.322 1.609.04 2.369.324 3.188 1.193.912.968.934 1.372.15 2.652-.51.831-1.819 1.941-2.91 2.468-1.09.526-2.083 1.153-2.205 1.393-.122.24-1.343.68-2.714.977-5.073 1.1-6.442 1.935-5.303 3.236 1.792 2.047 6.155 2.62 10.363 1.361 1.2-.359 2.25-.438 2.337-.176.086.263.498.138.914-.278.417-.416 1.784-1.493 3.037-2.394 1.528-1.097 2.685-2.437 3.51-4.064 1.116-2.203 1.135-2.62.211-4.526-1.007-2.079-5.023-5.393-7.074-5.837-1.592-.346-1.131-1.384 1.837-4.13 3.284-3.04 6.078-7.143 7.229-10.62.693-2.093.626-2.619-.532-4.204-1.331-1.823-4.5-4.07-5.632-3.995-.334.023-1.442-.178-2.463-.447-1.02-.27-2.514-.417-3.32-.328-1.322.147-1.514.033-1.978-1.174-.283-.735-.396-1.573-.252-1.863.395-.79-1.571-3.985-3.511-5.705a10.36 10.36 0 0 0-2.415-1.624Z" style="fill:#313638;fill-opacity:1"/></g></svg>