<svg xmlns:xlink="http://www.w3.org/1999/xlink" width="227" xmlns="http://www.w3.org/2000/svg" height="104.24242002118103" id="screenshot-93a3b7a0-0905-11ed-bb45-377194cd868a" viewBox="0 -0 227 104.242" style="-webkit-print-color-adjust: exact;" fill="none" version="1.1"><g id="shape-93a3b7a0-0905-11ed-bb45-377194cd868a"><defs><clipPath id="frame-clip-93a3b7a0-0905-11ed-bb45-377194cd868a-c42f6400-0905-11ed-ac6f-016da0cd9ace" class="frame-clip"><rect rx="0" ry="0" x="0" y="0" width="226.99999999999818" height="104.24242000000004" transform=""/></clipPath></defs><g clip-path="url(#frame-clip-93a3b7a0-0905-11ed-bb45-377194cd868a-c42f6400-0905-11ed-ac6f-016da0cd9ace)"><clipPath id="frame-clip-93a3b7a0-0905-11ed-bb45-377194cd868a-c42f6400-0905-11ed-ac6f-016da0cd9ace" class="frame-clip"><rect rx="0" ry="0" x="0" y="0" width="226.99999999999818" height="104.24242000000004" transform=""/></clipPath><g id="fills-93a3b7a0-0905-11ed-bb45-377194cd868a"><rect rx="0" ry="0" x="0" y="0" transform="" width="226.99999999999818" height="104.24242000000004" class="frame-background"/></g><g class="frame-children"><g id="shape-8d365cbc-0905-11ed-bb45-377194cd868a" height="45.284519mm" width="68.657898mm" rx="0" ry="0" style="fill: rgb(0, 0, 0);"><g id="shape-8d365cbd-0905-11ed-bb45-377194cd868a"><g id="fills-8d365cbd-0905-11ed-bb45-377194cd868a"><rect width="99" height="65" x="64" transform="" style="fill: none;" ry="0" fill="none" rx="0" y="19.621210000000247"/></g></g><g id="shape-8d365cbe-0905-11ed-bb45-377194cd868a"><g id="fills-8d365cbe-0905-11ed-bb45-377194cd868a"><path color="#000" overflow="visible" rx="0" ry="0" d="M150.52941820071464,68.62131729452199C147.0262144782937,68.66167724268621,144.2080997205885,71.46927630444156,144.20894991657224,74.9182009739045C144.20967546282736,78.39484658261631,147.07287223794629,81.21281280103472,150.60447495828885,81.21269448313183C154.13607767862595,81.2128128010329,156.99927445374306,78.39484658261176,157,74.9182009739045C157.00029551146508,73.24822734554459,156.3266067168097,71.64655507696739,155.12717482715198,70.4656226216523C153.92774293749426,69.28469016633721,152.30084670211,68.6212604715513,150.52941820071464,68.62131729452199ZC150.57958389874693,68.62117423515997,150.55469220289524,68.62117423515997,150.52941820071464,68.62131729452199ZZM79.34344484258145,68.65148829482791C75.81803086941545,68.73274470477304,72.99958424475881,71.83617793107283,73,75.6363491474142C73.0003963628933,79.49427771300384,75.9026391949119,82.62145229891053,79.48245302114447,82.62121000000047C83.06211730343239,82.62122438178835,85.9641267462739,79.49411654344954,85.96452309964661,75.6363491474142C85.9641267462739,71.77858175137794,83.06211730343057,68.65147391303913,79.48245302114083,68.65148829482791C79.43611829355177,68.6509528390909,79.38977957017414,68.6509528390909,79.34344484258145,68.65148829482791ZZ" style="fill: rgb(255, 255, 255);"/></g></g><g id="shape-8d365cbf-0905-11ed-bb45-377194cd868a"><g id="fills-8d365cbf-0905-11ed-bb45-377194cd868a"><path rx="0" ry="0" d="M73.98998496846798,81.98849066781099C71.5425913420695,79.75571898983094,71.14276772235644,78.88614875730514,70.82802107515818,75.10856735104267C70.4842795853092,70.9797322835741,70.59033966763855,70.66262037189995,73.17927390750265,68.0855449105386C75.48970505348188,65.78547714782985,76.41029130765128,65.38659973366089,79.40744241115317,65.38659973366089C82.21727157068744,65.38659973366089,82.83531953245802,65.15550680162073,82.48127724324513,64.23713551442347C82.14287690862147,63.358830462773085,80.6958053536855,63.087671295186055,76.3469604671227,63.087671295186055C71.6822244001014,63.087671295186055,70.37821950297985,62.81127123612464,69.11618082548739,61.555052336202834C68.26922621120866,60.712104313266764,67.57640207628356,59.700840123560056,67.57640207628356,59.30777326298289C67.57640207628356,58.14011783348292,70.66397130752739,57.50995759990133,76.21572065301916,57.54455507912667L81.43288477476017,57.57721570715535L81.43288477476017,44.302721197114124C81.43288477476017,37.001741621096926,81.22267216553882,30.482737232782256,80.96591520364382,29.81606545526256C80.5954679376664,28.855808811492352,79.26552028659898,28.603927009936797,74.56415915517573,28.603927009936797C68.77358386890228,28.603927009936797,68.57481659230689,28.54073629019649,66.37082703974374,26.00243583025076C63.61479094355127,22.82768226920689,63.36337513687977,21.922975277317164,65.09009431896447,21.388043560924416C66.90112745138867,20.827097274531297,75.19746756044697,20.2230769366156,87.15974770942012,19.781265987578536C96.14204475382758,19.449528950493004,97.27627721700264,19.555030374520356,98.70694379517772,20.855348717775996C99.57945965232102,21.648420923514095,101.04102862858053,22.52248389126862,101.95436617208907,22.797706648621897C104.06603004147291,23.43386732316685,104.68941915847063,25.025472895468738,103.4743063447404,26.679319750650393C102.55677217927041,27.92847484032427,100.56261372484005,28.20313173330851,90.18360458904863,28.509894783193886L87.0021836302767,28.60398397614881L86.93808976757282,43.738565814130425L86.87399590487075,58.873197022828435L90.89512276725873,62.397088899752134C93.3337416386421,64.5341193646384,95.52018168117866,65.83887347690984,96.45030571253665,65.71233253203559C99.80569572721288,65.2559192440724,110.99045627983469,64.64034236068005,124.15792995425909,64.1873470454168C137.91483825889372,63.71410973627121,138.05408980583525,63.69177898129351,143.46925818199634,61.09624646734869C148.57616559944654,58.648484306496584,149.17819009554114,58.52995660873171,152.92005084186894,59.23633763353814C157.15902053522768,60.036598975190145,159.4938683908058,61.018240734824076,161.6864126107448,62.92197557415261C164.66677722639724,65.50964675088585,162.1472780044587,67.69141468067596,158.40427272487068,65.76455155940698C155.34951344715228,64.1921322071978,150.85912794712385,64.38350070096135,147.63726681307526,66.22335742826112C144.98881684356093,67.73581034831045,144.98233115507173,67.75176088758076,147.25232212577612,67.16162891207136C148.52275404719512,66.83145274918593,151.352803294365,66.55569830719037,153.54191391451604,66.54878640684024C156.73516171700066,66.5385324887377,157.92852839874104,66.9148892605574,159.58123442984834,68.45206551647448C161.37509956333452,70.12098563126642,161.59103483886793,70.80890960348938,161.2579756594696,73.79135662715112C160.97146083274674,76.35730468849692,160.28855598609698,77.7371402677602,158.53169742810132,79.29979940903581C156.16022450811943,81.40887845272505,151.85525339662308,82.99983081246705,148.49795582650768,83.00765417220396C144.6565206863379,83.01676876607257,139.16924671463676,77.94290222434142,139.16924671463676,74.38190635487831C139.16924671463676,73.80825660328196,139.83956169539852,72.62278973826346,140.65866600028858,71.74756086204366C142.14274413071325,70.16173546135292,142.13969204201385,70.1545197412072,139.69649503757864,69.66183796514201C138.34823485430934,69.38991924806601,128.584603102674,69.53377792128981,117.99957797962452,69.98145639013023C102.78338976525447,70.62506064966715,98.21899111424682,71.06290295262374,96.19736386151635,72.07283793072497C94.14597874395804,73.09758412386259,93.34900208214276,73.16898177583175,92.16631771085304,72.43373787044152C90.15270219096055,71.18192435755668,90.06113952995474,71.23866270438725,90.49072101449565,73.47519415233842C91.02521804810203,76.25730999826578,88.7281397901861,80.81673367107055,85.778296061535,82.8286283576374C81.8811603025897,85.48701359180018,77.48157444138815,85.17354751767402,73.98998496846798,81.98849066781099ZZM82.51790230764527,77.12486742464648C84.73829683697113,74.91469234396504,84.89395336067719,72.5347199750097,82.89941339516008,71.29091970923332C79.52761840371932,69.18822088125148,74.97428357425088,73.55057943912493,76.67124489150774,77.2578265627028C77.8112000209967,79.74831338231365,79.93125713430709,79.70008198975961,82.51790230764527,77.12486742464648ZZM152.83306631391497,76.12332546839957C156.36891107298652,73.97733231954248,156.13313722090425,72.28338504908629,152.29856928030858,72.28338504908629C148.94928344303298,72.28338504908629,144.6492719756734,75.16895153542123,145.6343336036316,76.75572637297341C146.48434030660974,78.12477634949141,150.0518504859465,77.81134825283993,152.83306631391497,76.12332546839957ZZM87.34783267556122,66.00920244982649C87.10175802411504,65.39791702104799,86.91939572428419,65.5794873264033,86.88238914879548,66.47222381834513C86.84805315091944,67.28000469993844,87.03117847292378,67.73262024045675,87.28679090156038,67.47798127425654C87.54278484128008,67.22334230805632,87.56987212849344,66.56238234269426,87.34783267556122,66.00920244982649ZZ" style="fill: rgb(3, 3, 3);"/></g></g></g></g></g></g></svg>