<svg xmlns:xlink="http://www.w3.org/1999/xlink" width="227" xmlns="http://www.w3.org/2000/svg" height="104.24242002118103" id="screenshot-93a3b7a0-0905-11ed-bb45-377194cd868a" viewBox="0 -0 227 104.242" style="-webkit-print-color-adjust: exact;" fill="none" version="1.1"><g id="shape-93a3b7a0-0905-11ed-bb45-377194cd868a"><defs><clipPath id="frame-clip-93a3b7a0-0905-11ed-bb45-377194cd868a-ccedb3d0-0905-11ed-8038-f9707c894cb4" class="frame-clip"><rect rx="0" ry="0" x="0" y="0" width="226.99999999999818" height="104.24242000000004" transform=""/></clipPath></defs><g clip-path="url(#frame-clip-93a3b7a0-0905-11ed-bb45-377194cd868a-ccedb3d0-0905-11ed-8038-f9707c894cb4)"><clipPath id="frame-clip-93a3b7a0-0905-11ed-bb45-377194cd868a-ccedb3d0-0905-11ed-8038-f9707c894cb4" class="frame-clip"><rect rx="0" ry="0" x="0" y="0" width="226.99999999999818" height="104.24242000000004" transform=""/></clipPath><g id="fills-93a3b7a0-0905-11ed-bb45-377194cd868a"><rect rx="0" ry="0" x="0" y="0" transform="" width="226.99999999999818" height="104.24242000000004" class="frame-background"/></g><g class="frame-children"><g id="shape-8d365cb4-0905-11ed-bb45-377194cd868a" height="54.458237mm" width="140.29204mm" rx="0" ry="0" style="fill: rgb(0, 0, 0);"><g id="shape-8d365cb5-0905-11ed-bb45-377194cd868a"><g id="fills-8d365cb5-0905-11ed-bb45-377194cd868a"><rect width="161" height="63.000000000000455" x="33" transform="" style="fill: none;" ry="0" fill="none" rx="0" y="20.62120999999979"/></g></g><g id="shape-8d365cb6-0905-11ed-bb45-377194cd868a"><g id="fills-8d365cb6-0905-11ed-bb45-377194cd868a"><path color="#000" overflow="visible" rx="0" ry="0" d="M60.72168838382822,70.58698889731318L38.42102530965167,69.6709446053485C35.94289752326222,55.8478641725535,34.15403947593586,41.98354805670465,39.35797839223778,27.700882891681886C85.58451961739229,22.20601839717392,133.67806071963787,25.925849448019562,180.8381065060221,25.03833733558713C193.1685026359446,40.834258958808505,190.87935012172784,56.315330976995256,190.7542048534233,71.84301323741715L161.51341566325027,73.55965481511453C153.67709003608434,85.06144193406476,146.26972163509708,79.6258911853131,138.94841834217004,70.792014962841L80.74910097256361,70.44684473147868C76.54840440995758,86.64465063080684,63.38309629720425,83.94546035301869,60.72168838382822,70.58698889731318ZZ" style="fill: rgb(255, 255, 255);"/></g></g><g id="shape-8d365cb7-0905-11ed-bb45-377194cd868a"><g id="fills-8d365cb7-0905-11ed-bb45-377194cd868a"><path rx="0" ry="0" d="M65.85070667717082,82.14864492157562C64.03246692139328,81.18097042914746,61.44567547440056,78.71494559244661,60.102285351889805,76.66858869250632L57.659749444525005,72.94794402334742L48.468247262833756,73.22326715833537C43.41292800271549,73.37469161791364,37.28241918558706,72.36186215389375,36.78888758089306,72.04201832495642C35.02662896781658,70.9001320158743,33.444472331864745,66.01304143420407,33.23426082774131,61.346987283397766C32.421849530506734,43.313979538380636,33.87049345438027,35.48004435640382,35.31269723357582,25.096359688891425C35.7090992424055,23.251665768876137,36.69288686096479,22.99201302270785,43.06172729671016,23.070392949641246C49.12239385514113,23.145013848780764,56.150645886529674,22.870483560846424,90.94642374180512,21.200243975406465C105.08171779303484,20.521734794755957,166.96774217629172,20.402042872536185,172.83619447399542,21.041861116983C175.3807918696275,21.3192922923713,178.29551252280726,21.874294557333997,179.31335148106155,22.275195337961122C185.33028797661245,24.645108456570142,189.3249172583346,30.886297856863166,191.4439931978486,41.22804557905897C192.243477940312,45.12978584281632,193.13321723912668,48.70641217663547,193.4212008927425,49.176122753882055C194.4749047946534,50.89480063047563,193.97264753416312,73.10919045877586,192.85459770392845,74.23625519176608C192.11118663498382,74.98564489898786,187.06194664936993,75.34355471409822,176.98140840305132,75.36139843660499C165.32871610181428,75.38201245999176,162.19807479326482,75.6496496423681,162.19678861494504,76.62526193294275C162.1958818129624,77.30600041295588,160.97801899325168,79.08990628300967,159.4904010903556,80.58949719972975C157.09781331659724,83.00136591888008,156.1404247393839,83.31603292293971,151.19482851896464,83.31603292293971C146.2607801441809,83.31603292293971,145.21977147000325,82.97595750272308,142.3332264498058,80.42112446843407C140.53429787498862,78.82891968826902,139.06244722286465,76.76518544644227,139.06244722286465,75.83505459389312C139.06244722286465,74.90490508611879,138.54196139194028,73.95778865140278,137.9058120430327,73.73032549560071C136.51933957334404,73.23459087977994,104.44186721154983,72.61162763092602,91.25410720580294,73.36370369051588L81.89115467813463,73.89765353430835L80.72777400193263,77.45112873416952C78.86697932461902,83.13479741415381,71.86054605925892,85.34711119378085,65.85070667717082,82.14864492157562ZZM72.456000356,75.5675293428651C73.80367465521704,74.84046993971174,74.24578688635665,73.6014272199493,74.24578688635665,70.55155914076863C74.24578688635665,65.85301691599875,72.94342492694523,64.37697822057021,69.4023909504267,65.06224059259262C67.4455492877787,65.4409323281136,66.66049935235787,66.32042357298474,65.93764863036995,68.94378657552102C64.7370705667854,73.30088222105246,64.75638174774576,74.05626025542938,66.10307522032963,75.41379163541319C67.46721075142523,76.7889148923689,70.07507146485477,76.85202551781572,72.456000356,75.5675293428651ZZM154.60762403982335,75.66739076113868C155.21832741477556,75.05176834323743,155.71799381246274,73.41830753346062,155.71799381246274,72.03747577772197C155.71799381246274,68.94518571738013,152.58285550633263,67.69316828878004,146.23358533783176,68.24987750680998C144.30871307155394,68.41865132543921,143.93513841463027,73.86345850727798,145.7246658587046,75.66739076113868C147.1611789928138,77.11547460222778,153.17111090571598,77.11547460222778,154.60762403982335,75.66739076113868ZZM167.2380802036023,69.44366265124359C167.72155370877226,69.3781828122494,167.61745654258812,68.82093259270027,167.0067531676359,68.20531017479902C166.27472338886037,67.46738410320836,165.89638339499652,63.5102471494522,165.89638339499652,56.59170519244458C165.89638339499652,50.819843937289306,165.45338286803963,44.01513616192028,164.91193880765422,41.470134431091765L163.92749422031375,36.84285516500063L158.66610883655449,35.9210352150933C153.38878039347765,34.80937037016247,155.0977505105493,36.97312459967384,155.52588133563404,40.68919873876007C156.2459006147019,44.94169453892232,156.01054848830972,47.59825451396432,156.3528662361332,53.629376755567364C156.89725277641446,63.22059680182997,157.10748278669962,64.07676901571926,159.62094356329362,66.93862973951877C162.10093594431964,69.76239649430613,162.91282906899323,70.02939939904013,167.2380802036023,69.44366265124359ZZM172.87269788027152,63.239447906474425C173.70618769702196,55.39377858810826,172.56271965207452,40.093621359889994,170.9797857572812,37.91139845784187C169.1610463351044,35.40408960869195,168.49941399991258,36.845494879308035,169.79572444406404,40.490958992583046C170.47927732918288,42.41325864770374,170.9389796681353,48.89996013377845,170.9565235105456,56.87065676865336C170.9870586792931,70.75690652758863,171.79042971596027,73.42695423014925,172.87269788027152,63.239447906474425ZZM186.9883568926889,61.500958181159376L187.26089715338276,54.14366399243613L183.44203015358653,54.66001263164458C181.34165469166146,54.94400111854543,179.50695370400172,55.31658326794809,179.3649189039188,55.48796881804742C179.22287485075321,55.65935436814584,178.8632630937227,58.86479769442053,178.56578577854998,62.611158590945024L178.0249061561335,69.42274081664823L182.37035676752384,69.14048726565329L186.71581663199504,68.85824304226958ZM59.440856584491485,66.03113700224571C59.440856584491485,65.31682844523243,60.40831251431155,63.816202163536445,61.59076379135877,62.6964036405991C66.06848720191374,58.45592180519748,78.05833403152974,60.07812418681647,79.30701886551651,65.0933854903717L79.87189172810031,67.36213132497255L108.79572887396898,68.04633034918265C135.51838748871705,68.67846264101831,137.9477285019493,67.40193224705058,141.34003770050367,65.6361126174254C143.35608983127895,64.58668160237744,146.31641892287007,63.72805622642795,147.9185437085689,63.72805622642795L150.83149702319315,63.72805622642795L150.99495270680745,57.198727551719685L151.1584176435008,50.66939887701233L146.72971705840973,50.55894129106059C144.29393590049585,50.4982185343863,141.8846370616575,50.55427748486477,141.37571758253216,50.6827933284078C140.86679810340502,50.81167294883403,130.45708148490667,51.092900462466105,118.24301398586795,51.30774335870069C106.02894648683105,51.52259558254832,90.4143715590817,52.01510284448182,83.54395859087344,52.40221741399296C76.67354562266155,52.7893319835041,64.28598284664986,52.9647750449933,56.01604131084241,52.7921022843841L40.97978397301085,52.478144178867524L40.99394118761302,58.80266646827408C41.00134365276244,62.28115699211253,41.31402378073835,65.60955690494416,41.68792229551218,66.19910864620783C42.48025440602396,67.44844905005198,44.63325214208999,66.6482704933535,53.195017360310885,67.04237144454714C58.051922795140854,67.26593565836924,59.44084733141062,67.04143868330743,59.440856584491485,66.03113700224571ZZM186.08944779016565,48.31823425931202C186.25387504733044,48.168348855777595,185.84689676641392,45.69784676512813,185.1850701165131,42.82822546781904L183.98174388773987,37.61074152759579L179.95473807406415,37.61074152759579C176.05620204307888,37.61074152759579,175.9438233690089,37.692544688278076,176.43226577891073,40.17583493551706C176.70975643817474,41.586636309874166,177.2108015449976,44.3430763584131,177.5456983215081,46.30125001079546L178.15459734557953,49.861571678152586L181.97255754339494,49.22616539436717C184.07242408583988,48.87668774086001,185.92502978608172,48.46811966284554,186.08944779016565,48.31823425931202ZZM53.45824902107779,41.10859617476149C53.09659233304774,37.90222941486013,52.709683985771335,35.17488218937274,52.59846194687816,35.04782145336253C52.487239907984986,34.92076071735255,49.88736460383916,34.552469269649464,46.820967439716696,34.22937943160014L41.24568977431409,33.64195438596198L41.07925459847684,40.29015415299932L40.912819422639586,46.938353920036434L47.514310084996396,46.938353920036434L54.115800747353205,46.938353920036434ZM77.46501719660228,40.17583493551706C77.11348337966592,36.45644949403163,76.77598648727144,33.34761224930571,76.71500868059047,33.267301506607055C76.65403087390769,33.18699076390794,72.44026086447411,33.39686204273812,67.35106607320813,33.73368212622927L58.09798463454172,34.346077190241886L58.448334057053216,37.14436090797449C58.64102022493353,38.6834169527267,58.88814227091643,40.992001019855934,58.99748593427648,42.27454772381611C59.10682034455567,43.55709442777629,59.261457841559604,45.13112901900081,59.341117619664146,45.7724023709809C59.44617710631792,46.61822093511569,62.04188852381958,46.938353920036434,68.7950556971191,46.938353920036434L78.10416454389451,46.938353920036434ZM100.35562317050426,41.8081671041939C100.20475167764562,39.75609237785761,100.00380250804301,37.2376370318982,99.90907871335548,36.21159966873006C99.66894274385959,33.6105110045869,98.0151672575721,33.08768900237828,89.78978856197136,33.01248979127013L82.61865044700608,32.94691667615143L82.62882883658858,35.978390703694686C82.6343806854511,37.64570141884292,82.89951848099554,40.59889812318875,83.21790776021771,42.541037609868226L83.79681754734702,46.072210488499195L92.21337415855123,45.805701947221905L100.62993076975363,45.539193405945525L100.35562317050426,41.8081671041939ZZM126.00261106800826,39.41532671432401C125.89361902174278,36.37072873614511,125.56048958378778,33.846574219014656,125.26230903442593,33.80609238123179C124.41094226433415,33.69051393607651,114.07575921682655,33.67538454877649,109.22125958316792,33.78258679800274L104.82604589980474,33.879677915395405L104.82604589980474,37.55000011569723C104.82604589980474,39.568672662056315,105.19157037587502,42.192063647429904,105.63831840081366,43.37975786097127C106.42766176602163,45.47823745896062,106.72932147400388,45.530891830915834,116.32568298096339,45.24506580437469L126.20077506009875,44.950938202803854ZM148.64405006492962,45.14953239825104C150.13113128910118,45.08311979801715,150.28278004079766,44.543041712882086,149.7788017071598,41.10859617476149C149.45885791025648,38.928266778028274,149.1628795942779,36.199940153239595,149.1210741723371,35.045648119675434C149.05593247900833,33.246790086956025,148.49717590325236,32.92373755935614,145.21038884542577,32.784588237685966C143.10132474002967,32.695322987090094,139.9183572559432,32.54250871326485,138.1371390789991,32.44507247421325C132.138394141557,32.11690841502241,130.7346739280656,32.82821348084508,130.7346739280656,36.196125159771555C130.7346739280656,37.87194265742187,130.99104905548666,40.535274479060035,131.30439540532643,42.1146258093479C131.84924459967988,44.86081481186852,132.10171492673362,45.000673032080385,137.0875713044934,45.318278234042964C139.95497169919508,45.50094086752347,143.34199738824827,45.55495707088835,144.6142960860634,45.43831527792122C145.88659478388217,45.32166415734105,147.69998592498814,45.1917211891016,148.64405006492962,45.14953239825104ZZM179.04613174219412,30.905316858531478C178.25403095871843,30.106826599676424,172.54500000112057,29.372715521554255,160.11320749583138,28.47075405843043C153.16532772981554,27.96666190190581,151.09145309313135,28.084283094174225,151.09145309313135,28.982429563829555C151.09145309313135,29.62385215760878,151.61193892405572,30.191232164215762,152.2480882729651,30.243280241365483C158.2744629115823,30.736337832429854,160.62853936039392,31.05678795617223,161.003899862033,31.435171880483722C161.2470615891616,31.68029220654489,165.55731347875735,31.8138356331674,170.58222711326744,31.731948523974097C175.60715000086202,31.65005208716866,179.4159033826454,31.278066904957996,179.04613174219412,30.905316858531478ZZ" style="fill: rgb(3, 3, 3);"/></g></g></g></g></g></g></svg>