<svg xmlns:xlink="http://www.w3.org/1999/xlink" width="227" xmlns="http://www.w3.org/2000/svg" height="104.24242002118103" id="screenshot-93a3b7a0-0905-11ed-bb45-377194cd868a" viewBox="0 -0 227 104.242" style="-webkit-print-color-adjust: exact;" fill="none" version="1.1"><g id="shape-93a3b7a0-0905-11ed-bb45-377194cd868a"><defs><clipPath id="frame-clip-93a3b7a0-0905-11ed-bb45-377194cd868a-ba49ab30-0905-11ed-bb69-8b5a535d573c" class="frame-clip"><rect rx="0" ry="0" x="0" y="0" width="226.99999999999818" height="104.24242000000004" transform=""/></clipPath></defs><g clip-path="url(#frame-clip-93a3b7a0-0905-11ed-bb45-377194cd868a-ba49ab30-0905-11ed-bb69-8b5a535d573c)"><clipPath id="frame-clip-93a3b7a0-0905-11ed-bb45-377194cd868a-ba49ab30-0905-11ed-bb69-8b5a535d573c" class="frame-clip"><rect rx="0" ry="0" x="0" y="0" width="226.99999999999818" height="104.24242000000004" transform=""/></clipPath><g id="fills-93a3b7a0-0905-11ed-bb45-377194cd868a"><rect rx="0" ry="0" x="0" y="0" transform="" width="226.99999999999818" height="104.24242000000004" class="frame-background"/></g><g class="frame-children"><g id="shape-8d365cc4-0905-11ed-bb45-377194cd868a" height="43.634537mm" width="79.819565mm" rx="0" ry="0" style="fill: rgb(0, 0, 0);"><g id="shape-8d3683c0-0905-11ed-bb45-377194cd868a"><g id="fills-8d3683c0-0905-11ed-bb45-377194cd868a"><path color="#000" overflow="visible" rx="0" ry="0" d="M80.24356030148374,68.9996335631979C80.56377345170404,80.35909233079951,92.26099259992588,82.80171600882863,107.02210035841199,69.89849657985292L124.38810802870648,70.8827835276436C124.70161961937993,81.22723184002484,129.65813517674724,85.46306737885538,147.45559445331492,72.80450129929L170,70.32034970094014L165.08313636889397,44.400587845691234L136.99413793046915,40.932124631940724L125.9573011130542,21.62120999999979L97.08369993877568,22.418023116825225L90.2837847866831,39.01041919409931L60.41634604791216,42.19764699379107L57,68.02928381468178Z" style="fill: rgb(255, 255, 255);"/></g></g><g id="shape-8d3683c1-0905-11ed-bb45-377194cd868a"><g id="fills-8d3683c1-0905-11ed-bb45-377194cd868a"><path rx="0" ry="0" d="M127.22354397527124,84.46060373566002C122.79784393813134,82.02157226106215,119.14742634400318,78.10026145812321,119.14742634400318,75.78518348303191C119.14742634400318,72.1831656038105,103.23029307811157,72.68229757405447,101.20078956696489,76.38080901851231C100.3600781463465,77.91289507163515,95.98175385771356,84.7644705646519,88.37257249829236,84.81947709664496C79.56805118066586,84.88311283250755,76.21831365834623,83.20238657612231,74.69781677951141,73.72765691127847L62.63080485957471,73.5870764091926C52.65332064198083,73.47082357655495,53.87464084936619,70.75849271106676,52,66.65879137932484C52.27478679620435,60.87044027544766,51.64340834458744,43.68152424282948,53.3685913185891,41.610218181968094C55.19573217148718,39.41649380277636,65.4093620686217,37.82848506115374,80.98306153844351,37.31672498768444C84.31452218532286,37.74584526798503,85.6106645163618,33.739938553927914,88.18295768110693,27.8953676297092L94.21189131601568,19.25289186990858L109.27925548474559,18.736390067482716C127.31680449671512,18.11807108767607,130.5570422887522,19.783309346869373,136.1423858441667,28.805668164884537C140.58847497212446,35.987703786628344,142.22439820910586,37.06005259937433,147.63230324776305,36.33729177759437C154.894335797002,35.366723000749744,162.57525793058267,38.04674077857203,167.66766011537584,43.32799925497534C173.00567567453254,48.86399876272503,173.72264854824243,50.31650300453862,174.72573963243667,62.32982807156918C175.63252612007273,73.18979875780883,175.0997881267267,73.6176067058143,160.1498258587635,74.03464362459749C150.90142869132615,74.29262834520364,150.42677662094138,76.78163987148969,147.43036303259214,79.5178774696526C141.52150262966643,84.91370503159692,132.18821925352677,87.19668038740951,127.22354397527124,84.46060373566002ZZM135.61878007613996,75.91288827202538C137.22533109453798,75.18350388629938,139.27495035098218,73.41376188266554,140.17347434904332,71.98012551273064C141.5733016056729,69.74662260837817,141.50197084979482,69.1511456388182,139.67511576721336,67.82008165635875C138.50250076154225,66.9657038096841,136.6189761827809,66.59572514615616,135.48951249485435,66.99791785340244C132.59562832603297,68.02838345711666,128.84685604395054,71.7072470586138,128.80555602086315,73.55919553814897C128.76331171325546,75.45557760834731,131.65473577239754,77.712591069587,135.61878007613996,75.91288827202538ZZM90.81650509188512,72.37071769769977C96.07945003145869,69.17328196094263,96.37035178853694,64.92885266183953,91.32656783188395,64.92885266183953C87.81104625178887,64.92885266183953,84.91472682288077,68.59027214819548,84.91472682288077,73.03443594665191C84.91472682288077,75.42141982717044,85.99508771561159,75.29991766534954,90.81650509188512,72.37071769769977ZZM164.70654537347218,59.359425822022104C165.66234768273534,54.28275499836877,164.4713564032536,50.05475461395167,161.6555123803446,48.893588141852206C160.5572349312697,48.4406849338086,155.27852292512034,47.877186778593796,149.92505091929888,47.641350760605974C144.57156648868113,47.40552712311205,139.25996604657848,46.92012512000315,138.121494381292,46.56268789624778C136.49081440837108,46.05070497389738,118.71250877236344,47.321475953701565,95.63594692553852,46.67398853154123C94.61090122618589,46.64526578694972,90.73209102544388,45.10077447948174,86.97359012781635,45.81270236957266C83.215089230187,46.52463025966358,75.94658336204702,47.526001703984775,70.82135486528023,48.037959865347375L61.502757598431344,48.968799639005056L60.981810736826446,52.33673953029597C60.767147530186776,55.32318689923545,59.852160676953645,63.312232600065045,60.41745163675296,63.87555742837253C62.09674983781406,65.54886776923581,78.44622874249762,66.84631871222723,80.26124299415278,65.35746534191298C82.92741792016204,58.38917893800431,93.761082429839,55.644126428569734,98.64195245667361,61.514758291308C100.29743232312103,63.515978379266244,102.5372379373839,66.03607732437581,102.5372379373839,66.03607732437581C105.78413542026647,66.04721976839869,120.33329860738559,69.21647750227135,122.89867116055757,66.99094763564176C122.89867116055757,66.99094763564176,127.61696272707923,61.48280423794972,129.36293238538565,60.28562291066942C137.5549982162447,54.6684197469815,146.2638113275425,58.60308910225308,148.12212599449776,65.93933614927232C150.68785886676596,67.95033682698363,148.5276837723486,65.89749008172043,155.73238831120216,64.82458414677353C163.74117597101758,63.63195884104903,163.92298801609104,63.521240088944296,164.70654537347218,59.359425822022104ZZM107.60743701109095,37.725132702596284C107.19263518475236,36.64804216089419,106.85326429708948,34.14099225578502,106.85326429708948,32.15391069124189C106.85326429708948,25.395684118147983,99.07590089419682,28.32722399904287,97.55213629391983,35.65980642002728L96.71598477356201,39.68344200057368L102.53879103692816,39.68344200057368C107.33796802772667,39.68344200057368,108.22902472317764,39.33917762175247,107.60743701109095,37.725132702596284ZZM132.94533664426308,37.957316475042944C132.94533664426308,37.00794310282822,131.32322978082811,34.5008931977186,129.34064230072363,32.386094463688096C126.2197322528882,29.057066463023602,124.8857067177596,28.541022738852007,119.40080521608616,28.541022738852007L113.06566247498995,28.541022738852007L113.06566247498995,33.28687439947089C113.06566247498995,35.89709095573767,113.43840636566347,38.40414086084661,113.89398637363956,38.85809641082528C114.34955395682118,39.31202719981707,118.82248064490886,39.68344200057368,123.83382345827704,39.68344200057368C130.7974620982368,39.68344200057368,132.94533664426308,39.276532325358176,132.94533664426308,37.957316475042944ZZ" style="fill: rgb(3, 3, 3);"/></g></g></g></g></g></g></svg>