<svg xmlns:xlink="http://www.w3.org/1999/xlink" width="227" xmlns="http://www.w3.org/2000/svg" height="104.24242002118103" id="screenshot-93a3b7a0-0905-11ed-bb45-377194cd868a" viewBox="0 -0 227 104.242" style="-webkit-print-color-adjust: exact;" fill="none" version="1.1"><g id="shape-93a3b7a0-0905-11ed-bb45-377194cd868a"><defs><clipPath id="frame-clip-93a3b7a0-0905-11ed-bb45-377194cd868a-af6ca4a0-0906-11ed-975f-a1841c30ea68" class="frame-clip"><rect rx="0" ry="0" x="0" y="0" width="226.99999999999818" height="104.24242000000004" transform=""/></clipPath></defs><g clip-path="url(#frame-clip-93a3b7a0-0905-11ed-bb45-377194cd868a-af6ca4a0-0906-11ed-975f-a1841c30ea68)"><clipPath id="frame-clip-93a3b7a0-0905-11ed-bb45-377194cd868a-af6ca4a0-0906-11ed-975f-a1841c30ea68" class="frame-clip"><rect rx="0" ry="0" x="0" y="0" width="226.99999999999818" height="104.24242000000004" transform=""/></clipPath><g id="fills-93a3b7a0-0905-11ed-bb45-377194cd868a"><rect rx="0" ry="0" x="0" y="0" transform="" width="226.99999999999818" height="104.24242000000004" class="frame-background"/></g><g class="frame-children"><g id="shape-8d365cb0-0905-11ed-bb45-377194cd868a" height="73.422256mm" width="137.69057mm" rx="0" ry="0" style="fill: rgb(0, 0, 0);"><g id="shape-8d365cb1-0905-11ed-bb45-377194cd868a"><g id="fills-8d365cb1-0905-11ed-bb45-377194cd868a"><rect width="180" height="96.00000000000023" x="23.5" transform="" style="fill: none;" ry="0" fill="none" rx="0" y="4.1212100000002465"/></g></g><g id="shape-8d365cb2-0905-11ed-bb45-377194cd868a"><g id="fills-8d365cb2-0905-11ed-bb45-377194cd868a"><path color="#000" overflow="visible" rx="0" ry="0" d="M38.37388593408832,61.781917132818535L113.44489642946064,64.22877919371626C113.44489642946064,64.22877919371626,126.98909472708146,97.42792802048939,146.16587382047328,97.12121000000047C157.34809839093396,96.94235976463847,155.08165637250022,63.58698086624031,155.08165637250022,63.58698086624031C155.08165637250022,63.58698086624031,178.5826784198125,60.505297579234366,186.5990123565025,63.5067600335708C198.78540197714028,68.0695626652307,218.91372925295764,34.3010929222246,171.93252498516995,32.459507599191966C152.32099163195744,31.690770359389717,144.11522007990425,31.857819688050768,144.11522007990425,31.857819688050768C125.49599609017423,14.701570750486553,102.8749341473922,-13.358969307394545,107.73878503900596,35.42784729393338C107.73878503900596,35.42784729393338,87.58907952137633,37.87474102095007,75.68649793761688,38.79732281814199C63.78391635385924,39.7199151707066,44.97158085832234,35.66854145806087,40.15705300164882,31.135800527906213C35.3425251449753,26.60305959775087,26.961673710335162,18.861295364100442,28.744830220741278,37.15270075005924C30.527997288303595,55.44409135849514,31.01834553399567,59.17460285120819,38.37388593408832,61.781917132818535ZZ" style="fill: rgb(255, 255, 255);"/></g></g><g id="shape-8d365cb3-0905-11ed-bb45-377194cd868a"><g id="fills-8d365cb3-0905-11ed-bb45-377194cd868a"><path rx="0" ry="0" d="M137.4215959304438,97.80894244913111C126.74516081899128,91.37479377228942,119.11296351485726,82.04267159712549,114.09510910689824,72.35510386222927C111.88952738895023,68.07151889598686,110.73318017240672,66.72516710491095,110.1519340039631,67.76399881716975C109.13632374594636,69.57909470370237,87.82619531204728,70.07378349967189,77.54813897138229,68.52086508451816C73.857335423123,67.96321742976602,64.19705867647463,67.185266480976,56.0808619968393,66.79210042614545C48.71888133956236,65.51937634266073,29.16467624652978,65.49410635195386,28.347364700375692,59.504760114792816C27.916457899777015,55.13280924863125,27.4673476294829,54.350188042903255,26.63483666045795,50.17087736872895C23.616655006635483,35.01916594362069,22.890592700292473,27.85653098065086,23.9747795499934,23.929234961399743C26.361447318535284,15.283935741837013,31.554727520438973,16.299584846851758,41.927648497618065,27.44027719964197C50.47873629258538,36.6242900300233,55.751407654737704,37.380565926290956,85.06727870982104,33.62796703511958C94.05306789084534,32.47773440846686,101.93167081807042,31.528997540005548,102.57527467424916,31.51965702612688C103.39071000870535,31.507849604519834,103.60517787083518,27.87518038138569,103.28270134977538,19.537411782980598C102.75087965695639,5.787047323552542,103.51815537760558,4.071281371288478,110.17629313451653,4.122285215694319C115.23745851929925,4.16108102954604,121.764430105457,7.658797749117184,128.00631237785456,13.677251389008234C130.76748465032688,16.339582487545158,134.13581167752818,19.10656740241484,135.4914905764217,19.82610324127154C136.84716947531342,20.54563908012824,139.84801198168498,22.843626883363868,142.1600212812882,24.93274983224501L146.36366305454976,28.731155193846917L163.93832777741773,28.896764824225556C177.5138578023234,29.02469612886898,182.57584534728812,29.464670176498657,186.18384260838866,30.830324993434715C192.5312038160755,33.2328295625739,197.63956962778138,37.313527181649306,199.6940952228524,41.62265623945609C203.7688897386979,47.17875022543126,205.78417299579633,61.526201236247516,199.4298234265516,64.93950543367032C196.1131343831621,65.92907278774169,197.76648797092457,66.83646259589773,177.82176733142114,67.04009844925463C157.74360376988443,67.24509426456575,156.23235740761993,67.39418404703542,156.45054607160637,69.14856659335805C157.45246420041985,77.20458059366615,157.42134859964244,80.32085434128771,156.27865135023967,86.36363970356183C153.07075096390327,99.46040012300023,147.6538326516711,103.04248719535758,137.4215959304438,97.80894244913111ZZM148.92494499736858,86.5863888206461C152.2523642852011,79.57253791226435,152.6089499133468,72.37818104606617,150.08757436095402,63.12968071749788C147.41422566086476,53.32374358099082,148.98189540082421,54.08182221752236,133.01761058537704,54.87509118737785C119.70520344062061,55.53659144056769,112.47261814755075,56.420640506368045,112.47261814755075,57.38634000104889C112.47261814755075,58.105021910307414,118.1368169456291,69.95692165278547,118.7442879158134,70.5093192218585C119.06310687811128,70.79923359167265,119.9277769589171,71.985246922731,120.66579220945823,73.14490440198847C121.40379691948692,74.30456188124504,122.92610028216222,76.67658854336082,124.04868622862159,78.41607476224567C127.80830880041685,84.24176170206306,139.52084493137409,92.22631971696705,144.8081570690956,92.56802860674111C145.49071866933627,92.612095590953,147.34326691275055,89.92040407350964,148.92494499736858,86.5863888206461ZZM108.07678062070772,61.552293529531426C108.39515688136817,61.23386212806804,107.85198305371159,58.730678205047525,106.86973352620225,55.98965907537263C105.88748399869473,53.24863994569773,105.08617295456497,50.71513625076591,105.08903997469133,50.35964852166967C105.09220212924083,50.00416079257434,108.2039203146669,49.46365498383352,112.00462981458986,49.15851747401871C119.52835467712612,48.55448352009648,120.89806300170858,47.94174159273848,118.9901665131456,46.033529427557596C117.22257482198802,44.26562105809012,117.4442629370078,43.09923756545345,119.54787571121778,43.09923756545345C120.54061305132018,43.09923756545345,122.31932498597962,44.241120658255795,123.50056889935149,45.63674734985966C125.5349094078756,48.04031247847456,126.1100526180362,48.14429158500138,134.3975115881276,47.60667437761754L143.14676106825937,47.03909583790687L142.46359865865088,43.92813964694437C141.8457136594825,41.1144310780021,142.0168705447868,40.850651170834,144.25486434687627,41.16753284821084C146.0614454036422,41.42333220345358,146.81930844424642,42.300360070334364,147.06281542566649,44.41703015551798C147.27003141336172,46.218252321661794,146.89487339748848,47.316169636723544,146.07217564808343,47.316169636723544C145.3438892930426,47.316169636723544,146.29526565162269,48.82915366522798,148.18633947797753,50.67835402399146C150.07741330433237,52.52754384041441,152.29524310090528,55.33752042074252,153.11485247936616,56.92274056786414L154.60503889232496,59.8049427244689L169.64009297156008,59.88748925231016C177.90936955298457,59.93292674081499,187.36083869414688,59.67560928850912,190.64335538736123,59.31570431865134C196.38961209602712,58.68566241017129,196.59306511980685,58.55818442617897,196.11407248901196,55.88787277571669C195.4040950088165,51.92983529092476,194.72257691957566,51.587841757950855,189.48493168932873,52.561289873061696C183.22432946199115,53.724858560725124,179.97754511519815,53.00674593786539,176.5062477953179,49.69067374890915C172.76640977049465,46.11808954247704,172.50102067958505,40.79248907707847,175.97922203689996,39.114728263112056C181.56713912670784,36.41931529939416,145.97321075116815,38.001878776654166,96.6618453950141,42.6413099115764C78.5804770269715,44.34248526428314,68.60090699484499,44.716411547299,56.0808619968393,44.16183171369653C47.17449559760826,43.767316239253205,43.56549698757044,41.76246876209211,37.5625892750686,33.874657807979474C30.64826429699133,24.78924749035741,29.31719750101547,26.685276926601546,31.205214577970764,42.93034926711084C32.3188305460244,52.5122152770075,32.860317891252635,54.38627447518979,35.120562720863745,56.4813749312591C36.56322195092616,57.81860759761207,38.78636416714653,58.93127786427817,40.06088109924167,58.95397552384861C46.833552093974504,59.07454827466904,77.86550334258754,61.3079326139698,88.75645901874668,62.458618561273624C93.15334005658951,62.92316680512363,107.37307474703812,62.25608965369179,108.07678062070772,61.552293529531426ZZM66.69050186366985,51.88247909640745C63.819887422205284,50.32822180398239,63.732506551459664,50.10904654040246,65.47539127506207,48.83439320856655C68.02302325074015,46.9711968382619,70.3105574741221,48.05194068028982,70.3105574741221,51.118781392272695C70.3105574741221,52.506322108544055,70.19197667847766,53.62258731339557,70.04704459491222,53.59937307912901C69.90211251134679,53.576179929543514,68.39166722823757,52.80355286281906,66.69050186366985,51.88247909640745ZZM84.27125900430838,50.96267041088345C82.96988483956011,50.051000412395524,81.90512415931516,48.857575815810605,81.90512415931516,48.31062863688953C81.90512415931516,46.69695892909954,86.13363100785864,47.175787827689646,86.7808608012565,48.86274156276363C87.8796146429213,51.72653679247037,86.73216362117819,52.68665938890922,84.27125900430838,50.96267041088345ZZM102.38224621997142,50.71539980928378C100.63386988796628,49.53484741071884,99.79030191852871,46.40721323673665,101.01593194127418,45.64959846319766C101.6208521067856,45.2756721801818,102.58893518190962,45.44296858507573,103.16724054662154,46.02136356636606C104.57112122137914,47.42549370999518,103.85468240538466,51.709626877954406,102.38224621997142,50.71539980928378ZZM161.20597327341602,46.910219939534954C160.2980238373293,44.9171482569584,160.33569563854144,44.054088991533035,161.3680442346449,43.197165368406104C163.24715457628372,41.63736280476155,166.57392035217526,44.22043658576172,166.06824967748798,46.84663908264906C165.4883632355013,49.85823371232095,162.5663532420749,49.89643915509191,161.20597327341602,46.910219939534954ZZM190.5958176639524,45.62395949056577C193.78660025365753,45.00436504173945,193.82459881083923,44.9315385520415,191.91338205999637,43.09854177096554C188.91876899808994,40.22650243081648,186.21829955247267,40.38177740458673,183.74024551742332,41.54932371740438C181.4827939243296,42.61293414729266,177.8315594700107,44.90383433486227,180.0828975643053,46.39185304630723C181.43302161170504,47.260959398370005,182.60712959630837,47.175197456608885,190.5958176639524,45.62395949056577ZZM136.002420968176,29.466230442925735C136.47965333293905,28.9938281552395,135.2938453764982,27.62822605000747,133.36729217608627,26.431564954821624C131.44073897567614,25.234893317295246,127.96717544503372,22.28921572721265,125.64826210799583,19.885593669957416C120.58166835789962,14.63392664003186,116.8292344174497,12.526460018297257,112.54504202727003,12.526460018297257C108.63506954711556,12.526460018297257,108.0049153882901,14.41533120519216,108.67625133987713,24.123034810865192C108.93688665844456,27.891911076108954,109.18531606044962,30.975545736859658,109.22830028130556,30.975545736859658C119.74931549659959,30.975545736859658,135.36708087588704,30.095133778608215,136.002420968176,29.466230442925735ZZ" style="fill: rgb(3, 3, 3);"/></g></g></g></g></g></g></svg>