<svg xmlns:xlink="http://www.w3.org/1999/xlink" width="227" xmlns="http://www.w3.org/2000/svg" height="104.24242002118103" id="screenshot-93a3b7a0-0905-11ed-bb45-377194cd868a" viewBox="0 -0 227 104.242" style="-webkit-print-color-adjust: exact;" fill="none" version="1.1"><g id="shape-93a3b7a0-0905-11ed-bb45-377194cd868a"><defs><clipPath id="frame-clip-93a3b7a0-0905-11ed-bb45-377194cd868a-c041fd30-0905-11ed-9ece-cd7da5eaf43b" class="frame-clip"><rect rx="0" ry="0" x="0" y="0" width="226.99999999999818" height="104.24242000000004" transform=""/></clipPath></defs><g clip-path="url(#frame-clip-93a3b7a0-0905-11ed-bb45-377194cd868a-c041fd30-0905-11ed-9ece-cd7da5eaf43b)"><clipPath id="frame-clip-93a3b7a0-0905-11ed-bb45-377194cd868a-c041fd30-0905-11ed-9ece-cd7da5eaf43b" class="frame-clip"><rect rx="0" ry="0" x="0" y="0" width="226.99999999999818" height="104.24242000000004" transform=""/></clipPath><g id="fills-93a3b7a0-0905-11ed-bb45-377194cd868a"><rect rx="0" ry="0" x="0" y="0" transform="" width="226.99999999999818" height="104.24242000000004" class="frame-background"/></g><g class="frame-children"><g id="shape-8d365cc0-0905-11ed-bb45-377194cd868a" height="109.87786mm" width="272.83615mm" rx="0" ry="0" style="fill: rgb(0, 0, 0);"><g id="shape-8d365cc1-0905-11ed-bb45-377194cd868a"><g id="fills-8d365cc1-0905-11ed-bb45-377194cd868a"><rect width="227" height="92" x="0" transform="" style="fill: none;" ry="0" fill="none" rx="0" y="6.1212100000002465"/></g></g><g id="shape-8d365cc2-0905-11ed-bb45-377194cd868a"><g id="fills-8d365cc2-0905-11ed-bb45-377194cd868a"><path color="#000" overflow="visible" rx="0" ry="0" d="M151.52188865161224,7.124117987232239C147.21225241518005,7.0339130526135705,143.42755967981975,9.03145759504514,143.19045172159713,14.633106359338854C140.5358196643483,28.56661783304571,160.09899967551428,19.941634678282753,160.09899967551428,19.941634678282753C159.25088532198424,30.011896087631612,172.01148285010095,25.678958958988915,179.87526231128686,26.528492890226516C180.77443886411857,32.884641259282034,184.684277487675,35.572518661519325,193.78920969884894,31.933325361756943C198.03580453064023,25.219511556319958,194.8635235722195,20.04242374862224,184.52453244215394,16.349411435827278C176.27146226886362,10.737124500658865,169.16638812022939,9.598961796218646,163.00332120273924,12.141106389070956C160.6668407778343,9.39245970216325,155.83145796511053,7.214329676246052,151.52188865161224,7.124117987232239ZZM146.3183627742019,42.61635216785294L147.88683559860874,64.96521741775109L143.89501637984358,66.08127298995646L144.50147201558138,87.556815332224L154.38960333346768,89.54751767332459C158.31891653106868,90.84319285064544,158.91814448984042,99.73833826485247,168.00166136185726,89.27180330184297L223,90.1622688619675L206.66270621808144,79.90139844813007L206.27060474271275,68.47697556203207L192.64154828886785,68.34768970253867L193.5316902454906,45.1413338450277L183.4840815738262,45.95001044571404L184.58857769081987,67.31210598290113L174.48609221256447,67.69995680698798L172.13462105024882,43.99229656591547ZM3,64.53515162987719L3,86.5119983557081L16.195061221253127,86.5119983557081C15.666003829188412,87.225531099921,15.382811240226147,88.0678244705889,15.3820479470578,88.9301255165467C15.381733415062627,90.07427157080315,15.87820879807441,91.17164261585299,16.762196157587823,91.98069909165883C17.646183517099416,92.78975556746468,18.84522771551383,93.24418397118393,20.095410172643824,93.24396121837549C21.34536652790848,93.24386714471098,22.54407541934961,92.78929887889376,23.427780505646297,91.98027675407525C24.311485591942983,91.17125462925583,24.807781856643487,90.07406462835502,24.807467401000395,88.9301255165467C24.80708922964186,88.0679493837763,24.524354734683584,87.22566653294894,23.99575912403634,86.51199835570719L44.02558606771527,86.5119983557081C43.689768647609526,87.11320442490182,43.514918984676115,87.7744129477453,43.51451569104029,88.44465343300294C43.514216170513464,89.60578178051514,44.03682830602702,90.71944591626038,44.96735642046224,91.5405949647004C45.89788453489746,92.36174401314042,47.160084733272015,92.82309617930173,48.476222235609384,92.8231354417751C49.79236089749611,92.82309774533337,51.05456281528495,92.36174627048263,51.98509237720282,91.54059705226359C52.915621939117045,90.71944783404456,53.438234993209335,89.60578280344475,53.437935472478785,88.44465343300294C53.43753009699867,87.77441248359014,53.26267813823142,87.11320393716437,52.92685840351078,86.51199835570719L63.32606009807205,86.5119983557081L62.86334823413017,67.1406051596216ZM74.31867414836597,65.03645601343965L74.31867414836597,87.67686793483813L110.52891413005636,87.67686793483813C110.09330112881798,88.43503899914072,109.86365773606485,89.29796655854284,109.86363323457408,90.17678405511583C109.86334120231732,92.90714459957894,112.03265076442767,95.12080943208571,114.70898756458882,95.12121000000047C115.99444432538439,95.12137980872035,117.2273013489048,94.6005084596784,118.1362658076232,93.67321480840133C119.04523026634342,92.74592115712426,119.55582061467248,91.48818866335682,119.55568035330907,90.17678405511583C119.55524995841733,89.29784078120724,119.32514228986292,88.43490473470706,118.88906099912856,87.67686793483904L132.73896313802652,87.67686793483813L131.7952828335092,68.67749326282069Z" style="fill: rgb(255, 255, 255);"/></g></g><g id="shape-8d365cc3-0905-11ed-bb45-377194cd868a"><g id="fills-8d365cc3-0905-11ed-bb45-377194cd868a"><path rx="0" ry="0" d="M113.46538022551977,97.75499515295837C111.32319404642476,96.89707203110106,108.76918057413786,94.49261893792868,108.76918057413786,93.3338016270493C108.76918057413786,92.31034281942016,109.06951463369478,92.38527944715611,103.58830065018446,92.04151610622944C100.00146538184526,91.81650369159729,99.0693363316932,92.01451191605452,96.96813833896886,93.44978462385029C91.95064094842019,96.87641382561765,85.56654644055016,97.504396268135,82.91143771971656,94.83239916080424C82.00580676058962,93.92100774240157,81.26486646847479,92.70581918453195,81.26486646847479,92.13198014331488C81.26486646847479,91.10231037194649,79.08417420267142,90.76003226147918,74.4469411892951,91.0618040866841C73.4643651405313,91.12593903834954,72.40779568821563,90.7287074008766,72.09900907304109,90.17937466224362C71.3403586643908,88.82957021635161,67.7742522824501,89.53917282367297,67.36302874323155,91.12175338887232C66.91423829015366,92.84880637150786,65.02703753888272,93.10548119912005,61.461803246013005,91.92431792086995C58.33710810192679,90.88904478003974,58.32825304366088,90.89059752097569,56.884341875938844,92.70176855600516C56.0728294527853,93.71962399417248,54.12464955026735,94.90450034857099,52.44721976264009,95.40022976970727C47.38829814118435,96.89545177969126,42.88825144717157,95.06314996584956,42.03669001049275,91.16131452747891L41.64109699079199,89.34865826198916L33.82489805955629,89.41076789939075C28.76597643810055,89.45059907989912,25.921557304920498,89.73596585957262,25.761629585915216,90.21886829037453C25.625717858270946,90.62919696008271,25.832268800728343,91.16259722651216,26.22075094030697,91.40421721810185C27.445566499693086,92.16600542293531,26.987719737024236,94.20596945922284,25.417623988998457,94.98281250007881C22.62794521601245,96.3629966599176,20.970103890613245,96.5634352614909,18.30909179760056,95.84235587334592C16.091168036811723,95.24131011052782,15.483657372675225,94.67469469018329,14.55602293543052,92.3415326590723L13.449274819602579,89.55780571489345L8.538608340344581,90.00560269846869C3.7664027721693856,90.44084273361227,3.5955403978805407,90.40377948259743,2.480540977760029,88.69124125218082C1.8494839086852153,87.72199335632854,1.470930167770348,86.5677667577786,1.6392433586170227,86.12631575889395C1.8076236332399276,85.68486476001021,1.532580156765107,82.13975467385012,1.0281101706441405,78.24838335917252C-0.7043283122766297,64.88380711019113,-0.08845230142833316,66.23620395833973,1.6938965099070629,64.14857752639386C4.369948785219094,60.503335903065135,10.173077678620757,62.90824806747082,14.232860267326032,62.74820773439956C23.406345087949376,62.38658112167218,31.174243701363594,63.23610594038405,40.26061353209661,63.94256255954974C48.65004331857199,64.58208929336729,60.64539370730381,64.1407193070529,62.93623753124484,65.10395877059204C65.88805778780079,66.34513886150512,66.68534845070644,68.64508573870103,66.20623613144198,74.53665741963346C65.64769662287108,81.40402551253487,66.34992957695613,83.84351654245916,69.04475189244295,84.39818260865218L71.20216608840565,84.84219900560242L71.2959492055088,81.38316477562444C71.74172088872183,64.95354543131748,71.82081265915258,64.43769788850227,73.79904609275945,65.06952842811847C74.68743652177545,65.35327495638126,75.16165172548244,65.08438073271486,75.40147622021505,64.16178257538945C75.86012798818228,62.396586174131926,80.40471830862771,61.86608885814644,91.66271738719479,62.263523027045494C101.90691291984876,62.62517664396296,105.37702242012347,62.93646744620423,120.17335519788321,64.82088734708327C130.4595787154194,66.13099563341825,131.37755308909982,66.3635692213004,133.15681604679594,68.11006522086086C134.80586939770546,69.7286963799445,135.16275507937462,70.77396107113896,135.72947880846368,75.64457183203399C136.72942955489088,84.23852033424305,136.76203226941834,84.33762571218472,138.58624135619903,84.33762571218472C140.7785391150319,84.33762571218472,142.6126095167001,86.19639163239776,141.61460419974355,87.40658441508572C141.20606401151417,87.90190877336886,140.21456582070823,88.40141878112922,139.41117053430207,88.51652414174919C138.6078423316685,88.63162950237006,137.92137406465008,89.18150232480662,137.88568549648335,89.73846374716345C137.70402263445976,92.57619907169214,137.14716022026005,92.79574313781382,130.53531629711142,92.63682347863437C126.36444968579781,92.53663793308556,124.29196354866872,92.7202664262752,124.56559826587363,93.16576805368572C126.09416915732982,95.65481177258084,117.29975462268703,99.29072344820383,113.46538022551977,97.75499515295837ZZM115.64526748602475,92.66679812972893C115.18406653461716,92.47952407086564,114.42937406867895,92.47952407086564,113.96817311727136,92.66679812972893C113.50697216586377,92.85413969906699,113.88431839883378,93.00732096783418,114.80672030164897,93.00732096783418C115.72912220446233,93.00732096783418,116.10646843743234,92.85413969906699,115.64526748602475,92.66679812972893ZZM23.069691872742624,90.63182986862489C24.42142993395646,89.83115562993885,23.243774268219568,89.42386493162599,20.192133354836187,89.63659043972916C17.33262037233726,89.83601638417008,16.93481358807003,90.02295289065592,17.615244315360542,90.84806592145037C18.350549570395742,91.73967677054975,21.40366632682344,91.6186304880905,23.069691872742624,90.63182986862489ZZM50.69841283867936,90.48404943789251C50.90261584901964,90.15156034636425,49.863823597013834,89.76378017545198,48.390060149527926,89.62234572941111C46.530564997228794,89.44391554283106,45.710465850908804,89.62909677695484,45.710465850908804,90.22690203695151C45.710465850908804,91.21593050210708,50.10968563147253,91.44269818910129,50.69841283867936,90.48404943789251ZZM130.97095833033927,79.94937729828894C130.88240774766928,75.0126737819412,130.59300834339774,73.00126667676363,129.8939954105008,72.46489594941545C129.36825986778422,72.06152085867802,124.17369485378185,71.0834290905434,118.35055487037243,70.29126117176315C103.78384985358207,68.30982871767924,102.8020117263386,68.21058831878713,93.6753312553592,67.79674910435665C89.24783566373844,67.5959729504059,83.61608568969132,67.30628550030565,81.16041703118754,67.15290170011144L76.69552223514438,66.87408343655557L76.60710582002321,76.28092557350487L76.51875648867644,85.68776771045418L80.07721532029791,85.68776771045418C86.16667788946506,85.68776771045418,103.02734612572567,86.43544622592094,103.30802463928012,86.71797756562614C103.45480393843172,86.86569048588285,109.76624671824902,86.92212924334785,117.33343067761234,86.84347953946349L131.0919774599879,86.7004248420119ZM61.23083380954813,77.87235001098747C61.11129052294382,73.44508054228868,60.96645665325741,69.78135455078541,60.90889877452173,69.73065418373176C60.797271373337935,69.6322239105441,40.14366638757383,68.75346030492096,34.52862027344054,68.15855799536735C27.774692915372725,67.44294695573285,5.362439815891776,67.72170445986126,5.022257994134634,68.06405008080333C4.625390382712794,68.46350956396532,6.537029753124443,83.36014153832934,7.1230736093421,84.3144021086348C7.34532215508807,84.67639327792881,10.771424699127238,84.73965059341322,15.370352877122059,84.46677325169571C19.697189264730696,84.21009842408353,30.482448982631468,84.04213236119563,39.33750724964739,84.09357534347896C52.376043877629854,84.16932209692027,55.88405571063777,84.38866363161492,57.78554530593101,85.24705932680013C59.07690796987117,85.83001228220041,60.429249785058346,86.22035785117828,60.79083133096174,86.1144339152172C61.18857103145638,85.99791083461264,61.36231800805763,82.74275824045549,61.23083380954813,77.87235001098747ZZM188.48342135043822,97.07253175676328C187.42068019084763,96.68090348875126,186.41059979443344,95.60309874839663,186.0026633601792,94.42537850439317C185.33310020439785,92.49235106119909,185.18699174299218,92.4365874084881,180.58377020341322,92.35442715988142C171.89944014313733,92.19955812922785,172.27967097841974,92.13252022711845,171.48392324233464,93.95780095151554C170.74613588763168,95.6502210602514,166.6408772080249,97.01926599164312,162.0310814585191,97.11020260205737C159.29218510302235,97.1642109824063,157.1337646504362,95.80603523756076,155.3924711092477,92.93258687152525C154.89759410291663,92.11598016063658,153.5777879184825,91.78983705379983,150.36118800298755,91.68911142444745C142.94158834807604,91.45674036799232,143.49046779308082,92.53366747216683,143.2657371476671,77.76696615882906L143.06965127407238,64.88373959971545L144.79632055236652,64.44762192839084L146.52292274688443,64.01150425706624L146.05541592065128,57.17971418471939C145.79821672826074,53.42221614283358,145.30340680570225,49.81303861548463,144.95571160117288,49.15926717134994C144.60808348041792,48.50556323769092,144.32364827547826,46.784316155943316,144.32364827547826,45.334258654026826C144.32364827547826,43.24008370596425,144.63411198502035,42.5659916087227,145.83303320735467,42.05703013440166C146.66319491988725,41.704625452619666,152.07665429089866,41.46354554483355,157.86289819819467,41.52133451180748C166.89217302823818,41.611528506992045,168.74636856233155,41.81520761138586,170.94423427446964,42.958497512914846C172.35272520912258,43.69118870283569,173.82903784004884,44.93520423371797,174.22503336239788,45.722983971594886C174.62096180097433,46.5107637094718,175.3524432808499,51.42005797279239,175.8505403083691,56.63254178130069L176.75610418372162,66.10972983365559L179.85195330466377,66.10972983365559L182.94780242560773,66.10972983365559L182.3720223869277,59.52745847852498C182.05538697010707,55.90720923320373,181.99219405429176,51.33364456423192,182.2316831301505,49.36395893287522C182.70033038055408,45.509515848262026,183.85189045791594,44.50637769373975,187.808021906254,44.50637769373975C189.182568450884,44.50637769373975,189.83328106595945,44.00572000789748,190.53631902534107,42.40727448097027C191.13953632789526,41.03593419341382,191.22399480030617,40.15823050225413,190.77990021145888,39.87563165207416C190.40604233477643,39.63772473663289,190.1397197490187,38.54574279643589,190.1880871506146,37.448900102006746C190.27569856043738,35.46105415275747,190.26489807270264,35.45531576234521,186.77238259166188,35.64144214312569C183.7815866619767,35.80083437563394,183.0205883212111,35.57865740096918,181.57339004852656,34.12205138293575C180.39432562351976,32.93541975617518,179.87804889304243,31.68310043681413,179.87804889304243,30.009448240250094C179.87804889304243,27.876724810712403,179.70638151345702,27.636590049582082,178.36866396116602,27.897720568573277C166.43989421887272,30.22629188735391,163.30023939301645,29.812385162448663,160.55939760805086,25.55004378524336L159.00714614410754,23.136071715034632L154.0372446917463,24.47068630395279C149.25544614378305,25.754803057244317,148.95162372793857,25.760811489558364,146.00778644057937,24.629403431705214C142.152750240788,23.14781853776003,140.85347169142733,20.50836147959035,141.41690831555388,15.3031688024289C141.91916453710837,10.663106315152163,143.10963320382507,8.891698950154932,146.84264401734254,7.22992859726719C151.0565784120481,5.354015016292578,156.01400228230705,5.878098837111793,160.31239514942172,8.653927055664553C163.36859775948687,10.62759580507236,163.56575697347762,10.664321503710198,166.14237767785562,9.740913220679431C171.37041749545642,7.867159974919105,177.84534343433916,9.055884426417833,182.56139988304676,12.755255948952254C183.85276254698692,13.76825063288743,186.3389543230005,15.138443242361973,188.08628540391874,15.8001134121223C189.83361648483333,16.4618510923583,191.60637231638066,17.419284655008596,192.02571299234478,17.927841066477413C192.4451207520815,18.436329967471465,193.20216115013682,18.852397027590996,193.7081069793021,18.852397027590996C194.2140528084674,18.852397027590996,195.54794658559877,20.13037032761713,196.6722706504097,21.692292687333975C198.66325000122015,24.45826437647247,198.70812904652848,24.68813754533585,198.39672616413736,30.5159118269803C198.21573413986152,33.903587484420314,197.7063670381849,36.94905254186983,197.22269302223503,37.5355835524681C196.64382712991755,38.23748996558993,196.31323828794848,41.54158765443867,196.19738460895496,47.7836737238415C196.10340024052857,52.85033490540559,195.9060397752164,59.23648832939148,195.75892505718912,61.97505076550283L195.4913949634847,66.95428588137588L200.3272630338961,66.51330745581913C202.9870005351895,66.27074231757365,205.67370571393258,66.2694596185404,206.29771898665786,66.51330745581913C208.0018481166353,67.17139957038148,209.44944889196813,71.33672839438373,209.59803945303975,76.00960097272332C209.68887088405063,78.86637425132471,210.04562239817096,80.36699709934351,210.73658527809857,80.7979839745351C211.29002641978695,81.14323254592114,213.5541038176034,82.43139992773945,215.76786838435692,83.6606306645001C217.98163295111226,84.88992891173734,221.52553460361014,87.07389279213135,223.64323520492326,88.51395874368359C226.93584103720968,90.7529436615589,227.38704650617728,91.3038966516026,226.75813611789636,92.31743141934135C226.33691709623963,92.99611422891235,225.12156034909276,93.54112629711676,223.91398531981395,93.5927718108262C222.75424102193392,93.64205445789526,220.74883865955417,93.75986023753399,219.457475995614,93.85369979839129C218.16611333167566,93.94760686972427,213.17387298231915,93.93086427181629,208.36356383008751,93.81656903690077L199.61765086458945,93.60870428302974L197.5140378559754,95.72563026131434C195.2616330349665,97.99236198459516,192.20972378648366,98.44853026712485,188.48342135043822,97.07253175676328ZZM162.2685580211346,91.97346554698856C161.62287668916542,91.80367670126384,160.56630723684975,91.80367670126384,159.92062590488058,91.97346554698856C159.2749445729114,92.14325439271329,159.80322929906833,92.28219095116333,161.0945919630085,92.28219095116333C162.38595462694866,92.28219095116333,162.9142393531056,92.14325439271329,162.2685580211346,91.97346554698856ZZM217.7941338006858,89.0857724706359C217.55853558376293,88.702110438727,217.06721401749382,88.38818672794355,216.7022782828517,88.38818672794355C216.3374096319876,88.38818672794355,214.3871501324502,87.32489673980695,212.36839809889534,86.0253200876407C210.3497131491149,84.72574343547353,208.43366637470172,83.66245344733693,208.11059091550487,83.66245344733693C207.78751545630985,83.66245344733693,206.81231862276582,82.89067369213831,205.94338248842723,81.94728230837813C202.4906476858141,78.19869564925034,202.12034524919363,78.47663627662519,203.2119995157027,83.99777797883348L204.19987518267226,88.99409324499288L206.96506837787274,89.19750230748491C214.9041647844515,89.7814004095419,218.2004602243469,89.74737512992147,217.7941338006858,89.0857724706359ZZM198.78956874907453,87.35919206132917C198.98297127168007,87.16449185016813,198.7372434047702,84.50626687982663,198.24390932525785,81.45202546057067C197.75044107819485,78.39771653083994,197.3406262982462,74.95272447975299,197.33324708302462,73.79640505646353C197.32050116582104,71.80984180624841,197.14849836736175,71.67050018494524,194.20741151476795,71.26476222756742C189.37288511985025,70.59796126167407,182.3309000330064,70.75694843132828,178.63049193401457,71.61655931507107C175.79164075413792,72.27600163914144,175.01682315577455,72.23191729868108,173.65428460682597,71.3334878915623C172.0903605660751,70.30226537925887,172.0262284774144,69.92022359875978,171.58072512929903,58.981771305566554C171.3278863822652,52.77357549483281,170.9559739350516,47.42546314117067,170.75432010815166,47.09702467816919C170.26158978261265,46.29479769854811,149.00274156429805,45.094677478795575,149.14563000451744,46.728032672571544C149.07418578440775,48.30568497306399,157.04340280584802,47.87251750951623,159.47116461405494,47.805344586456386C163.4428594981364,47.69537002196853,164.06486025761842,47.86407870008611,165.6764137784412,49.48541027818669C167.4486329397896,51.26869948686203,167.47043516658414,51.406623388179696,167.74111819770042,62.58055221969903C167.89165418824086,68.79165098087492,168.03098718839647,76.68355804901262,168.05091106949658,80.11815348688219L168.08713630786224,86.3628724648263L173.14404541607473,86.39460238828201C179.04553924839274,86.43173314977253,188.13928158597082,87.05026412572829,188.54312590996597,87.44189239373941C188.95985031871533,87.84601009970652,198.38149814726967,87.76979077293822,198.78956874907453,87.35919206132917ZZM165.4550373217662,78.14907544980383C165.4550373217662,73.81713077242352,165.30275715308198,70.11958203272593,165.11673384569986,69.93237548433831C164.93064345454513,69.74516893595069,160.73173582538584,69.370620818225,155.78578328060757,69.10003883267314L146.79313619157983,68.60808999816186L147.23548660228153,73.87424463464345C147.47873236952546,76.7706465623271,147.67783701298322,80.76679413488296,147.67783701298322,82.75457257365747L147.67783701298322,86.368745876189L156.5664371673738,86.19706673715268L165.4550373217662,86.0253200876407ZM205.9246661152738,76.00636046990189C206.35118475513264,73.77783967571872,205.41113981956005,71.51056786863433,204.06060926629107,71.51056786863433C202.42342974351413,71.51056786863433,201.7843897052444,73.51083574536392,202.67137137499049,75.85871506012086C203.4514885915596,77.92365797231946,205.5396723319809,78.01844267983347,205.9246661152738,76.00636046990189ZZM191.61770947431432,60.37133942149035L191.61770947431432,54.6329490093251L188.35502300556618,54.6329490093251L185.09240362059427,54.6329490093251L185.6247804570121,57.83969659259424C185.91760113379678,59.6034077633924,186.2305469430048,61.957835594266044,186.32017086607084,63.071758438979714C186.40979478913687,64.1856812836943,186.50639542477802,65.32492055669832,186.53477186149757,65.60340126787673C186.56294704689208,65.88188197905515,187.71846506696238,66.10972983365559,189.10206792118333,66.10972983365559L191.61770947431432,66.10972983365559ZM163.767679135477,58.432168525031784C163.76097075800135,55.78562286694091,163.53556927483987,53.28564245102484,163.26455082484972,52.87659648034992C162.9830673059987,52.45188807937507,159.56977776293752,51.967095355259744,155.30747596663787,51.74647112153093L147.8433326852919,51.36010867060418L148.3825520667324,53.84037602769263C148.6791294349041,55.204560204852214,149.0394363890864,57.99159516232817,149.18319691837678,60.033787044304745L149.44462238857705,63.74686319335274L155.77270194453195,64.08441557053925C159.25314234611687,64.27006937799092,162.47819481722945,64.15692182115822,162.93939576863522,63.83300656001052C163.478883485177,63.4540702613815,163.77425334540203,61.52792888668159,163.767679135477,58.432168525031784ZZM192.3269862247471,49.84456600751332C193.00084274211258,48.747318250231956,191.33562220148997,47.90424743297194,188.4708096007853,47.89223056834385C186.00514545984333,47.88210399702825,184.44269726214043,48.993798996052874,185.77028516444625,49.81391625166475C187.04078477443727,50.5987930390977,191.85002058627288,50.62127402741885,192.3269862247471,49.84456600751332ZZM193.747216819982,30.737953780692806C193.81161724374033,30.69272176215054,193.96255573692906,29.1526727964756,194.0826356937323,27.315037655074775C194.30092629676983,23.976037050424566,194.2989137835266,23.97245899522568,190.95451927713293,21.75068924858624C189.11394174931593,20.52793951746753,186.75453830757942,19.52750178196311,185.71145269398767,19.52750178196311C183.2981138973537,19.52750178196311,181.2197243880455,18.41857471243111,181.2197243880455,17.13094741441637C181.2197243880455,15.489970287963843,177.151831370973,13.456892320171391,173.86291514629738,13.454124390678317C170.72654742540544,13.454124390678317,165.1196184480159,15.24038406027239,165.1196184480159,16.243724746220323C165.1196184480159,17.4658668830607,163.73648518021764,16.732298056959735,161.22205113503333,14.176418967381323C158.37508281841292,11.282582437764177,155.31874604079712,10.312659437157436,151.17793296057062,10.988844359136692C147.0154518211002,11.668674846790054,145.45776657140232,13.336656163417501,145.21901541706757,17.369934497464783C145.07545613910224,19.795923432301606,145.26731573488723,20.897019286682735,145.8414857629723,20.94036101191341C149.6345365548932,21.226402896340915,153.33943926679422,20.49850495017654,157.2610896549122,18.69658285028163C162.55520699064255,16.264112909802407,163.4425240792625,16.606391020269257,163.4425240792625,21.080917821774165C163.4425240792625,22.64007225199657,163.74440106563816,24.017488482342742,164.11336182676314,24.141910288573854C164.48232258788812,24.266264584329292,165.1491353089059,24.672880177887237,165.5952424109928,25.045470491825654C166.04134951308333,25.41806080576316,167.2488574585841,25.549233659538004,168.27859340099894,25.33691321428796C169.30832934341197,25.124660279512682,172.45771131660695,24.800339955512754,175.277242369355,24.616238888995213C179.73502628527422,24.325133718910365,180.63180218613525,24.462112473572233,182.1533292812419,25.666566865847926C183.28416047220526,26.561755770145282,183.90307537804983,27.710851572563115,183.90307537804983,28.915440985789246C183.90307537804983,29.940587555303864,184.1072783883901,30.984772078891183,184.3568300304596,31.23591104751813C184.70432398366574,31.585615310283174,193.1767363995059,31.136333096248563,193.747216819982,30.737953780692806ZZ" style="fill: rgb(3, 3, 3);"/></g></g></g></g></g></g></svg>