<svg xmlns:xlink="http://www.w3.org/1999/xlink" width="227" xmlns="http://www.w3.org/2000/svg" height="104.24242002118103" id="screenshot-93a3b7a0-0905-11ed-bb45-377194cd868a" viewBox="0 -0 227 104.242" style="-webkit-print-color-adjust: exact;" fill="none" version="1.1"><g id="shape-93a3b7a0-0905-11ed-bb45-377194cd868a"><defs><clipPath id="frame-clip-93a3b7a0-0905-11ed-bb45-377194cd868a-c9ae4040-0905-11ed-8a15-558260f32104" class="frame-clip"><rect rx="0" ry="0" x="0" y="0" width="226.99999999999818" height="104.24242000000004" transform=""/></clipPath></defs><g clip-path="url(#frame-clip-93a3b7a0-0905-11ed-bb45-377194cd868a-c9ae4040-0905-11ed-8a15-558260f32104)"><clipPath id="frame-clip-93a3b7a0-0905-11ed-bb45-377194cd868a-c9ae4040-0905-11ed-8a15-558260f32104" class="frame-clip"><rect rx="0" ry="0" x="0" y="0" width="226.99999999999818" height="104.24242000000004" transform=""/></clipPath><g id="fills-93a3b7a0-0905-11ed-bb45-377194cd868a"><rect rx="0" ry="0" x="0" y="0" transform="" width="226.99999999999818" height="104.24242000000004" class="frame-background"/></g><g class="frame-children"><g id="shape-8d365cb8-0905-11ed-bb45-377194cd868a" height="104.24242mm" width="127.08038mm" rx="0" ry="0" style="fill: rgb(0, 0, 0);"><g id="shape-8d365cb9-0905-11ed-bb45-377194cd868a"><g id="fills-8d365cb9-0905-11ed-bb45-377194cd868a"><rect width="127.08038" height="104.24242" x="49.95981000000029" transform="matrix(1,0,0,1,0,0)" style="fill: none;" ry="0" fill="none" rx="0" y="0"/></g></g><g id="shape-8d365cba-0905-11ed-bb45-377194cd868a"><g id="fills-8d365cba-0905-11ed-bb45-377194cd868a"><path color="#000" overflow="visible" rx="0" ry="0" d="M158.0817093349633,1.8442132809823306C153.84589118545045,1.825587885193272,150.2387809305892,4.587459940677945,146.76524137124215,7.941813092857956C133.45020393582672,2.9205676469809987,131.2104718719038,8.11440842716911,129.14173061685324,13.466186113293588C132.55691060272693,12.823771217411377,135.75612468980944,11.848558394606698,140.71173778861885,13.582719812574396C142.9648382102132,22.769168162804817,158.7635923314465,16.17010980534269,158.7635923314465,16.17010980534269L168.93833159624228,14.452009767639538C173.60357396840845,15.034444438727405,181.35931778201848,1.3173645313527231,166.49109972252336,5.352850826418944C163.39039059663264,2.867223223370729,160.62319699949512,1.8553804555140232,158.0817093349633,1.8442132809823306ZZM111.54026394561879,22.855102997574704L113.62213973302278,42.61718814681103L87.26325385005839,45.341575585402325L89.90260144042986,74.16344833056087L53.090232328242564,73.77762043476218C55.816337173457214,89.81164313769591,64.70251350438957,99.66394535591121,77.71055442696161,100.32076066602735C90.7185872865939,100.9775759761435,113.30115401598414,101.96219018920351,139.40308200353866,99.91446902368648C165.50501805403655,97.86674785816854,170.84855541353863,72.59967300082394,170.84855541353863,72.59967300082394L141.67708157053858,73.13983366753041L141.33377763031967,42.3667934861071L133.22044234344503,42.50065444753022L132.72595824260134,23.936988541716346Z" style="fill: rgb(255, 255, 255);"/></g></g><g id="shape-8d365cbb-0905-11ed-bb45-377194cd868a"><g id="fills-8d365cbb-0905-11ed-bb45-377194cd868a"><path rx="0" ry="0" d="M87.60432435537041,103.94567389660301C71.14068391917863,103.24726186922567,66.92344278780183,102.08515005317827,60.69014366375086,96.5295411958216C55.437782051252725,91.84819712868125,51.947495761580285,85.9537834526866,50.55542884254646,79.41425379527232C49.78049949653723,75.77367426858405,49.76517990692628,74.26622665096079,50.489312718966175,72.91310374130285C51.42493649704193,71.16481604912519,51.570150080660824,71.15417296581768,69.60606418735188,71.50950681535073C87.1077277637487,71.85435884041294,87.76324494021901,71.81154461892424,87.32591097156183,70.35086206432084C86.19064875204276,66.55942489468293,84.38398536050954,53.87802987436339,84.38164710735873,49.68465505101108C84.37358416545794,42.53951782748868,84.98918977952417,42.196520279062725,98.91509988210782,41.531730719407506C105.27958307087283,41.227919068615165,110.58846590609028,40.87774550189829,110.71263521135006,40.753576196638505C110.83680451660985,40.62940689137872,110.24111436903877,37.06139384179028,109.38886141020885,32.824801649854635C108.41655124648787,27.991229239642053,108.06928033885379,24.261715463797373,108.45678532656893,22.812966063205295L109.0742454172705,20.504062020720994L120.70689358465825,20.415692177497476C130.10207537479437,20.343931994587365,132.57344769656447,20.561873314144577,133.55591716707931,21.5470035554863C134.4790433852104,22.472548656187428,134.77237321153189,24.72428644060028,134.77237321153189,30.883970905105343L134.77237321153189,39.001257033511365L137.9133728580946,39.25854550954068C141.66118951205317,39.56550170767355,144.00750560495362,41.95237439833022,144.00105525143408,45.4516105535115C144.00105525143408,46.78199596701165,144.24092777295846,53.07584778473233,144.53941788209704,59.437912090927284L145.0822151308039,71.00525042892446L147.3217778729486,70.55735400637991C148.5535535070121,70.31095050191584,154.62906085808027,69.8638603735601,160.82285156682156,69.56375767604209L172.08428188913422,69.01813839766987L173.47449433153088,71.13990155865417C176.26378845241743,75.39689299359748,172.7172228282834,82.52533992738722,162.42141042791627,93.35612852281906C156.3539660187471,99.73891458969706,153.72286681793958,101.14106018610732,146.46363896653202,101.86019397416862C143.58113723728093,102.14570274684706,139.9528133822805,102.5262736045272,138.4006970665323,102.70591595005976C136.84858075078228,102.88547766617216,133.94592166678194,103.21831590780425,131.95034354653217,103.44552961054637C125.0237926779173,104.23416595778531,100.8358539015262,104.50693528226225,87.60432435537041,103.94567389660301ZZM138.15010083227935,96.37287823470456C150.97743510098917,94.88091146552802,153.36414653280917,93.91424536113777,157.81843815604407,88.40636911982824C161.6562372416065,83.66092466458326,164.582359486536,79.60292663573205,165.77962572926663,77.36586340557756L166.79660459111437,75.4655892585854L159.25057789632228,75.96033137356903C145.46875256548992,76.86386464288375,128.57858250278878,77.4018241264514,104.93956881095073,77.69015492879521C75.5461141145006,78.04871395508803,77.73173577533453,77.94171871607546,78.37943189815996,78.9897399042377C78.67961522509722,79.47545152429325,78.49940847363177,80.66860566665514,77.97894557398831,81.6410770892146C75.70576036412058,85.88863488213451,80.15803625188164,89.66297861494354,83.68089682682876,86.47481075826477C85.83128343156022,84.52873910128005,87.9036207586978,85.64255389534651,87.25229631201546,88.39427470697797C86.26394089391397,92.56983042873185,81.56792227251572,94.30916825539975,78.26888896471246,91.72160894085141C77.7618105486199,91.32386401692406,76.09487794021516,91.70467676286103,74.26821845276936,92.63626906998729C70.98990690564824,94.30763629643866,68.87427158050741,94.13468619268338,66.43910186786889,91.9963940008031C64.28250679787561,90.10257020733138,64.71572866616407,89.50994397768159,68.45483734286972,89.23943227693621C71.85618938338484,88.99335129014821,71.88086198559904,88.96900120561008,71.78789626549224,85.94910694638406C71.73629343733228,84.2758046138772,71.05747435877129,82.20298351022507,70.27915857716289,81.34290949775209C69.50076216613706,80.48291611469836,69.07802212232127,79.22146885444386,69.3395839575569,78.53974711679825C69.72700831585098,77.53010553208082,69.09326108251116,77.30023105851183,65.92162225672655,77.30023105851183C63.78010488808832,77.30023105851183,60.34456597391727,77.0695502907522,58.28706445987518,76.78750858309036C55.64225825783615,76.42499871526638,54.546262565369034,76.556344038818,54.546262565369034,77.23588878214946C54.546262565369034,78.81251644127519,59.356694332327606,88.03628008661894,61.25309826720877,90.09587796555411C63.70124931630562,92.75471368649892,68.36735442325516,95.62044449659629,71.15326210854255,96.17622308176328C72.44075267113476,96.43310841069729,74.94550557237017,96.94196067400685,76.71935279036916,97.3071313126577C82.44702482787216,98.48609467727533,125.62665884378112,97.82944868893924,138.15010083227935,96.37287823470456ZZM127.96104178266796,87.42962433806247C126.70983445862657,85.92209609101906,127.39881284398143,83.75058457851105,129.12839451094987,83.75058457851105C130.9256242604606,83.75058457851105,131.58009325448438,86.07908156981216,130.17722199330274,87.4819528309938C129.1315390582913,88.52755513658508,128.86707456397198,88.52134667132236,127.96104178266796,87.42962433806247ZZM103.21095469700958,86.47029551080072C102.70371502208036,86.2623522391998,102.46739019499182,85.40897046850318,102.68573466164344,84.57405283475805C103.18813657143255,82.65281503882602,105.34271590595017,83.36267644370241,105.34271590595017,85.44944643684107C105.34271590595017,86.97882525643331,104.93142523963252,87.17572229763141,103.21095469700958,86.47029551080072ZZM149.38734232889146,84.93414382001197C149.109896498112,84.21113981983967,149.37605421023,82.91550568592834,149.97883974667457,82.05486726752247C150.93107318506554,80.69537463376332,151.2040843977993,80.64602942933493,152.06101386293085,81.67856976904955C152.6034079645433,82.3320712100442,152.9223779461081,83.51506604561223,152.7698270853598,84.30733071670625C152.40812351172644,86.18543177347351,150.0361672635845,86.62502336586135,149.38734232889146,84.93414382001197ZZM138.9001963172359,70.61919677075207C139.47016568014806,70.04922740784173,139.33027363818292,50.95980931249619,138.73272901397286,47.77478600315885L138.17832112892938,44.819717796808845L126.39675042465024,45.370658616835726C119.91680590787655,45.67366397343744,113.16376954894986,46.10390255322113,111.38992233095087,46.326681637918455C109.61607511295006,46.54946072261578,104.08417130477937,46.80650731038736,99.09683859253528,46.89794107153307C92.47063230969616,47.019449605966884,90.02820594934747,47.33559755786541,90.02602895503514,48.0720666710115C90.02602895503514,48.802085430637135,91.9745194945881,49.07993440851101,97.10037354867563,49.07993440851101C105.74046082987661,49.07993440851101,107.75579315778305,50.116264330918284,107.77328974170632,54.56813707158403C107.78135268360529,56.20596245973161,108.3188283906602,59.07814362334943,108.97120101978908,60.95076187962445C110.43430245696254,65.15050642707706,109.43433640252442,68.99378831313174,107.14567034420907,67.96681140332862C105.05333692115892,67.02796244849219,98.37077067443897,66.58554882643898,95.21727346792977,67.17712687364224C92.51618793143098,67.68388277205781,91.49816088713669,69.5809317422893,93.04672950845088,71.22198230719664C93.64975693315137,71.86105108219022,138.24459851134816,71.27519772373603,138.9001963172359,70.61919677075207ZZM123.88748227594988,62.18100555472597C121.3771659448048,60.926976201019215,121.03707105546164,60.37361649842228,120.8090510585298,57.172144787608204C120.49628954223044,52.78050222293518,121.85981364693907,51.498816978511286,126.84496936487085,51.498816978511286C130.66414305464423,51.498816978511286,132.30890257282408,53.08995793305735,133.22509466092197,57.67067648528541C133.6318700797765,59.704795467817576,133.33636325914085,60.42933142695097,131.51550908986428,61.86163242606767C128.84772350341154,63.96001305554205,127.55692713464123,64.0141153956913,123.88748227594988,62.18100555472597ZZM128.5497171707866,56.46115457086603C128.7807204562232,55.767257790952726,128.3930542096714,55.47666936487644,127.47387883307056,55.65486038086624C126.6834686386137,55.80805627696668,125.8742717895293,56.421646155556346,125.67560090111328,57.018303856156535C125.44451698625926,57.71228126548908,125.83218323281108,58.00278906214612,126.75135860941191,57.824598046156325C127.54176880386876,57.67140215005588,128.35096565295316,57.05781227146622,128.5497171707866,56.46115457086603ZZM103.43526574066709,60.76265344509761C103.20595567303099,60.1651894503068,102.77531394615289,58.38061851958014,102.47819453713782,56.796976101001064L101.93805805925695,53.917699548511564L95.9405193563598,53.917699548511564L89.94306128288372,53.917699548511564L90.37700881594174,57.60818868556021C90.61575252560033,59.63795367946591,90.96084643892027,61.542823703341355,91.14387522005018,61.841233183059785C91.32698463059933,62.139642662779124,94.26125044684704,62.26348945036284,97.66445696399933,62.11642139010678C102.4469103225656,61.90968755979088,103.75746089899076,61.60232821456361,103.43526574066709,60.76265344509761ZZM129.6612743411206,39.81214710039444C129.88050573138207,39.59291571013296,129.90961295164198,38.38976351981569,129.72577787632144,37.138314307516566L129.3918914522419,34.86303273275507L122.40656173717798,35.21481888785206C118.56465055124681,35.4083294934519,115.36261443449985,35.61377325306444,115.29085425158883,35.67134265823029C115.21909406867962,35.72858954572007,115.352132610029,36.773869333636185,115.58644170164371,37.993389296010946C116.00990741023088,40.197797611471515,116.05086715508332,40.210698318511504,122.63748439319352,40.210698318511504C126.2813697260608,40.210698318511504,129.44196232144168,40.031378490655015,129.6612743411206,39.81214710039444ZZM129.38600550465526,27.943093476499143C129.14210151217958,26.25269770716386,128.69291501893167,26.14473491512308,120.97466388515568,25.92195583042576L112.8209332593633,25.68667918578376L113.2072288057916,27.707736202438355C113.58884784591828,29.703798099201776,113.69318231410398,29.728873848511284,121.61865105470861,29.728873848511284C129.4431717627267,29.728873848511284,129.63724677426035,29.68452766806149,129.38600550465526,27.943093476499143ZZM141.91670414086366,18.549604904161242C140.5245565924106,17.675743261039315,139.24682218951784,16.544754400726106,139.07733915077915,16.03630528451231C138.90785611204228,15.527936797717302,137.25898449349188,14.90934789514904,135.4130545749049,14.661734949399943C132.47935316459007,14.268263384679813,131.7955350620523,14.493703240204013,129.97992180501024,16.45275623364705C128.83756419661768,17.68533816190029,127.80381441561804,18.546299097982228,127.68278965769969,18.3659310876792C127.5616842703621,18.185563077376173,127.0143717741903,17.448529558297196,126.46657550150303,16.72818632895087C125.07225095873582,14.894512082053097,127.73987528635189,8.847305657052857,131.1049440883162,6.21378757367529C134.15136542639266,3.8295756538450405,139.35438183446422,3.3471698399680463,142.7408174324628,5.1350465768737195C144.79735139347758,6.220721703709387,145.16897238564889,6.223785621630668,145.96599419246377,5.161654285144323C149.57940160494763,0.34509468234136875,155.7613397890982,-1.293536999995922,161.41193010203642,1.0673730177431935C163.26390722704673,1.8411735518857313,165.56353888634658,2.0783046731648938,168.19455745773485,1.7666719687304067C171.8563425216198,1.3330469533484575,172.37253206205787,1.492612573549195,174.63902503014833,3.759105541638746C178.21526228047514,7.335342791965104,177.7519656389013,12.201005710939171,173.5481896204983,15.216223463863116C171.32176947365042,16.813089107157793,164.21557625950481,18.625880334535395,162.21612792714222,18.10703002327C161.34557209020022,17.881025761813362,159.99930268115713,18.269982079068996,159.2243733351479,18.971296765531406C158.23585665820792,19.86588016933638,157.02399649063773,20.09333576033532,155.163150129536,19.733567292757016C151.74470465219383,19.072647945214158,151.5018488421665,19.069906544968035,147.6731608809514,19.650035214673153C145.2415388627487,20.018431030083775,143.82512185917585,19.747758070500822,141.91670414086366,18.549604904161242ZZM158.60852583282576,14.270682267249867C163.28849919984168,14.899752994288065,166.15439126877936,14.39912493171687,169.12405339996803,12.43394410243036C171.60913272296602,10.789345843087176,172.26513367594998,9.852512623725943,172.26513367594998,7.947803858688985C172.26513367594998,5.24365440426709,171.12196977336862,4.89815734385229,168.42507696665598,6.787062742764647C166.77483464798388,7.9429660935488755,166.42506422836232,7.8842678765167875,163.62391758288322,5.980768552764857C159.60800811075023,3.251865866709977,155.18016293694564,3.2379169772229943,151.63367794223086,5.942872725834604C150.18049392359353,7.05128534882806,148.76117426093697,8.684031083577793,148.47961632978877,9.571196580835021C147.84216014317462,11.579594778705996,146.4385632172216,11.619506341110991,143.9519519352616,9.699961762978091C141.04260060948582,7.454029296733097,138.53083294879798,7.11691769589379,135.49416777041915,8.565022061134187C132.33212384549734,10.072872825852755,131.97025901302368,11.139761298060876,134.5708802934514,11.287232505412248C140.12358649172347,11.602251645444994,142.4322486459514,12.652530457338798,142.4322486459514,14.86379227341422C142.4322486459514,16.682791966053628,144.09313404793102,17.07053884202469,147.32113283759645,16.00526295819691C149.96593903963367,15.132368868103185,150.81867577497906,15.171877283412869,153.08081475444305,16.272065705667956C155.65426392066547,17.5237568062239,155.75005167043673,17.50867910487068,156.18964326282548,15.784983385488886C156.52917374623394,14.453630418960984,157.13744208317075,14.07281767302402,158.60852583282576,14.270682267249867ZZ" style="fill: rgb(3, 3, 3);"/></g></g></g></g></g></g></svg>